Montserrat-Regular.ufo
<glyph name="exclam" format="1">
  <advance width="210"/>
  <unicode hex="0021"/>
  <outline>
    <contour>
      <point x="65" y="691" type="line"/>
      <point x="65" y="519" type="line"/>
      <point x="83" y="223" type="line"/>
      <point x="156" y="223" type="line"/>
      <point x="175" y="519" type="line"/>
      <point x="175" y="691" type="line"/>
    </contour>
    <component base="period" xOffset="11"/>
  </outline>
</glyph>
<glyph name="numbersign" format="1">
  <advance width="725"/>
  <unicode hex="0023"/>
  <outline>
    <contour>
      <point x="493" y="0" type="line"/>
      <point x="579" y="700" type="line"/>
      <point x="494" y="700" type="line"/>
      <point x="408" y="0" type="line"/>
    </contour>
    <contour>
      <point x="664" y="259" type="line"/>
      <point x="35" y="259" type="line"/>
      <point x="27" y="173" type="line"/>
      <point x="655" y="173" type="line"/>
    </contour>
    <contour>
      <point x="231" y="0" type="line"/>
      <point x="317" y="700" type="line"/>
      <point x="232" y="699.995" type="line"/>
      <point x="146" y="0" type="line"/>
    </contour>
    <contour>
      <point x="696" y="521" type="line"/>
      <point x="68" y="521" type="line"/>
      <point x="60" y="435" type="line"/>
      <point x="688" y="435" type="line"/>
    </contour>
  </outline>
</glyph>
<glyph name="dollar" format="1">
  <advance width="621"/>
  <unicode hex="0024"/>
  <outline>
    <contour>
      <point x="275" y="362" type="line"/>
      <point x="275" y="-142" type="line"/>
      <point x="362" y="-142" type="line"/>
      <point x="362" y="362" type="line"/>
    </contour>
    <contour>
      <point x="275" y="834" type="line"/>
      <point x="275" y="273" type="line"/>
      <point x="362" y="273" type="line"/>
      <point x="362" y="834" type="line"/>
    </contour>
    <component base="S"/>
  </outline>
</glyph>
<glyph name="ampersand" format="1">
  <advance width="663"/>
  <unicode hex="0026"/>
  <outline>
    <contour>
      <point x="214" y="705"/>
      <point x="142" y="640"/>
      <point x="142" y="547" type="curve" smooth="yes"/>
      <point x="142" y="419"/>
      <point x="279" y="294"/>
      <point x="597" y="-19" type="curve"/>
      <point x="656" y="41" type="line"/>
      <point x="366" y="322"/>
      <point x="233" y="445"/>
      <point x="233" y="548" type="curve" smooth="yes"/>
      <point x="233" y="596"/>
      <point x="269" y="633"/>
      <point x="325" y="633" type="curve" smooth="yes"/>
      <point x="376" y="633"/>
      <point x="409" y="603"/>
      <point x="409" y="557" type="curve" smooth="yes"/>
      <point x="409" y="404"/>
      <point x="57" y="409"/>
      <point x="57" y="191" type="curve" smooth="yes"/>
      <point x="57" y="78"/>
      <point x="153" y="-5"/>
      <point x="277" y="-5" type="curve" smooth="yes"/>
      <point x="417" y="-5"/>
      <point x="542" y="106"/>
      <point x="615" y="285" type="curve"/>
      <point x="540" y="341" type="line"/>
      <point x="483" y="184"/>
      <point x="386" y="82"/>
      <point x="281" y="82" type="curve" smooth="yes"/>
      <point x="209" y="82"/>
      <point x="152" y="130"/>
      <point x="152" y="200" type="curve" smooth="yes"/>
      <point x="152" y="358"/>
      <point x="500" y="362"/>
      <point x="500" y="558" type="curve" smooth="yes"/>
      <point x="500" y="644"/>
      <point x="428" y="705"/>
      <point x="324" y="705" type="curve" smooth="yes"/>
    </contour>
  </outline>
</glyph>
<glyph name="parenleft" format="1">
  <advance width="319"/>
  <unicode hex="0028"/>
  <outline>
    <contour>
      <point x="199" y="742" type="line"/>
      <point x="120" y="628"/>
      <point x="77" y="475"/>
      <point x="77" y="309" type="curve" smooth="yes"/>
      <point x="77" y="143"/>
      <point x="120" y="-10"/>
      <point x="199" y="-124" type="curve"/>
      <point x="303" y="-124" type="line"/>
      <point x="230" y="-10"/>
      <point x="185" y="143"/>
      <point x="185" y="309" type="curve" smooth="yes"/>
      <point x="185" y="475"/>
      <point x="230" y="628"/>
      <point x="303" y="742" type="curve"/>
    </contour>
  </outline>
</glyph>
<glyph name="asterisk" format="1">
  <advance width="348"/>
  <unicode hex="002A"/>
  <outline>
    <contour>
      <point x="322" y="514" type="line"/>
      <point x="231" y="565" type="line"/>
      <point x="322" y="614" type="line"/>
      <point x="292" y="670" type="line"/>
      <point x="203" y="618" type="line"/>
      <point x="204" y="721" type="line"/>
      <point x="143" y="721" type="line"/>
      <point x="144" y="618" type="line"/>
      <point x="55" y="671" type="line"/>
      <point x="25" y="614" type="line"/>
      <point x="115" y="565" type="line"/>
      <point x="25" y="514" type="line"/>
      <point x="55" y="459" type="line"/>
      <point x="145" y="511" type="line"/>
      <point x="143" y="408" type="line"/>
      <point x="204" y="408" type="line"/>
      <point x="202" y="511" type="line"/>
      <point x="292" y="458" type="line"/>
    </contour>
  </outline>
</glyph>
<glyph name="plus" format="1">
  <advance width="498"/>
  <unicode hex="002B"/>
  <outline>
    <contour>
      <point x="35" y="364" type="line"/>
      <point x="35" y="285" type="line"/>
      <point x="463" y="285" type="line"/>
      <point x="463" y="364" type="line"/>
    </contour>
    <contour>
      <point x="212" y="539" type="line"/>
      <point x="212" y="110" type="line"/>
      <point x="287" y="110" type="line"/>
      <point x="287" y="539" type="line"/>
    </contour>
  </outline>
</glyph>
<glyph name="comma" format="1">
  <advance width="214"/>
  <unicode hex="002C"/>
  <outline>
    <contour>
      <point x="36" y="-82" type="line"/>
      <point x="95" y="-82" type="line"/>
      <point x="152" y="4" type="line" smooth="yes"/>
      <point x="162" y="20"/>
      <point x="169" y="37"/>
      <point x="169" y="57" type="curve" smooth="yes"/>
      <point x="169" y="97"/>
      <point x="141" y="121"/>
      <point x="108" y="121" type="curve" smooth="yes"/>
      <point x="73" y="121"/>
      <point x="47" y="94"/>
      <point x="47" y="57" type="curve" smooth="yes"/>
      <point x="47" y="22"/>
      <point x="70" y="-7"/>
      <point x="119" y="-7" type="curve"/>
      <point x="93" y="50" type="line"/>
    </contour>
  </outline>
</glyph>
<glyph name="period" format="1">
  <advance width="218"/>
  <unicode hex="002E"/>
  <outline>
    <contour>
      <point x="73" y="123"/>
      <point x="46" y="96"/>
      <point x="46" y="58" type="curve" smooth="yes"/>
      <point x="46" y="19"/>
      <point x="73" y="-9"/>
      <point x="109" y="-9" type="curve" smooth="yes"/>
      <point x="145" y="-9"/>
      <point x="172" y="19"/>
      <point x="172" y="58" type="curve" smooth="yes"/>
      <point x="172" y="96"/>
      <point x="145" y="123"/>
      <point x="109" y="123" type="curve" smooth="yes"/>
    </contour>
  </outline>
</glyph>
<glyph name="slash" format="1">
  <advance width="331"/>
  <unicode hex="002F"/>
  <outline>
    <contour>
      <point x="296" y="816" type="line"/>
      <point x="-21" y="-117" type="line"/>
      <point x="77" y="-117" type="line"/>
      <point x="394" y="816" type="line"/>
    </contour>
  </outline>
</glyph>
<glyph name="zero" format="1">
  <advance width="691"/>
  <unicode hex="0030"/>
  <outline>
    <contour>
      <point x="154" y="703"/>
      <point x="48" y="577"/>
      <point x="48" y="350" type="curve" smooth="yes"/>
      <point x="48" y="123"/>
      <point x="154" y="-3"/>
      <point x="345" y="-3" type="curve" smooth="yes"/>
      <point x="536" y="-3"/>
      <point x="643" y="123"/>
      <point x="643" y="350" type="curve" smooth="yes"/>
      <point x="643" y="577"/>
      <point x="536" y="703"/>
      <point x="345" y="703" type="curve" smooth="yes"/>
    </contour>
    <contour>
      <point x="463" y="610"/>
      <point x="522" y="528"/>
      <point x="522" y="350" type="curve" smooth="yes"/>
      <point x="522" y="173"/>
      <point x="463" y="90"/>
      <point x="346" y="90" type="curve" smooth="yes"/>
      <point x="228" y="90"/>
      <point x="169" y="173"/>
      <point x="169" y="350" type="curve" smooth="yes"/>
      <point x="169" y="528"/>
      <point x="228" y="610"/>
      <point x="346" y="610" type="curve" smooth="yes"/>
    </contour>
  </outline>
</glyph>
<glyph name="two" format="1">
  <advance width="588"/>
  <unicode hex="0032"/>
  <outline>
    <contour>
      <point x="198" y="705"/>
      <point x="109" y="667"/>
      <point x="33" y="605" type="curve"/>
      <point x="80" y="514" type="line"/>
      <point x="139" y="568"/>
      <point x="210" y="602"/>
      <point x="271" y="602" type="curve" smooth="yes"/>
      <point x="344" y="602"/>
      <point x="388" y="568"/>
      <point x="388" y="512" type="curve" smooth="yes"/>
      <point x="388" y="472"/>
      <point x="354" y="415"/>
      <point x="303" y="363" type="curve" smooth="yes"/>
      <point x="45" y="86" type="line"/>
      <point x="45" y="0" type="line"/>
      <point x="543" y="0" type="line"/>
      <point x="543" y="106" type="line"/>
      <point x="201" y="106" type="line"/>
      <point x="383" y="299" type="line" smooth="yes"/>
      <point x="457" y="379"/>
      <point x="511" y="458"/>
      <point x="511" y="529" type="curve" smooth="yes"/>
      <point x="511" y="636"/>
      <point x="420" y="705"/>
      <point x="288" y="705" type="curve" smooth="yes"/>
    </contour>
  </outline>
</glyph>
<glyph name="three" format="1">
  <advance width="539"/>
  <unicode hex="0033"/>
  <outline>
    <contour>
      <point x="262" y="409" type="line"/>
      <point x="462" y="625" type="line"/>
      <point x="462" y="699" type="line"/>
      <point x="36" y="699" type="line"/>
      <point x="36" y="594" type="line"/>
      <point x="316" y="594" type="line" smooth="yes"/>
      <point x="135" y="398" type="line"/>
      <point x="135" y="329" type="line"/>
      <point x="231" y="329" type="line" smooth="yes"/>
      <point x="325" y="329"/>
      <point x="379" y="290"/>
      <point x="379" y="214" type="curve" smooth="yes"/>
      <point x="380" y="142"/>
      <point x="325" y="94"/>
      <point x="232" y="94" type="curve" smooth="yes"/>
      <point x="168" y="94"/>
      <point x="104" y="120"/>
      <point x="53" y="167" type="curve"/>
      <point x="4" y="71" type="line"/>
      <point x="64" y="25"/>
      <point x="154" y="-5"/>
      <point x="241" y="-5" type="curve" smooth="yes"/>
      <point x="396" y="-5"/>
      <point x="495" y="86"/>
      <point x="495" y="217" type="curve" smooth="yes"/>
      <point x="495" y="327"/>
      <point x="415" y="395"/>
      <point x="298" y="405" type="curve" smooth="yes"/>
    </contour>
  </outline>
</glyph>
<glyph name="four" format="1">
  <advance width="599"/>
  <unicode hex="0034"/>
  <outline>
    <contour>
      <point x="269" y="700" type="line"/>
      <point x="30" y="260" type="line"/>
      <point x="30" y="172" type="line"/>
      <point x="364" y="172" type="line"/>
      <point x="364" y="0" type="line"/>
      <point x="474" y="0" type="line"/>
      <point x="474" y="172" type="line"/>
      <point x="576" y="172" type="line"/>
      <point x="576" y="277" type="line"/>
      <point x="475" y="277" type="line"/>
      <point x="474" y="443" type="line"/>
      <point x="364" y="443" type="line"/>
      <point x="365" y="277" type="line"/>
      <point x="156" y="277" type="line"/>
      <point x="383" y="700" type="line"/>
    </contour>
  </outline>
</glyph>
<glyph name="five" format="1">
  <advance width="577"/>
  <unicode hex="0035"/>
  <outline>
    <contour>
      <point x="79" y="700" type="line"/>
      <point x="79" y="330" type="line"/>
      <point x="126" y="335"/>
      <point x="222" y="339"/>
      <point x="263" y="339" type="curve" smooth="yes"/>
      <point x="353" y="339"/>
      <point x="408" y="295"/>
      <point x="408" y="224" type="curve" smooth="yes"/>
      <point x="409" y="145"/>
      <point x="353" y="98"/>
      <point x="262" y="98" type="curve" smooth="yes"/>
      <point x="199" y="98"/>
      <point x="130" y="125"/>
      <point x="74" y="172" type="curve"/>
      <point x="26" y="76" type="line"/>
      <point x="95" y="28"/>
      <point x="192" y="-4"/>
      <point x="275" y="-4" type="curve" smooth="yes"/>
      <point x="433" y="-4"/>
      <point x="534" y="89"/>
      <point x="534" y="231" type="curve" smooth="yes"/>
      <point x="534" y="354"/>
      <point x="436" y="444"/>
      <point x="284" y="444" type="curve" smooth="yes"/>
      <point x="259" y="444"/>
      <point x="216" y="443"/>
      <point x="188" y="443" type="curve"/>
      <point x="188" y="594" type="line"/>
      <point x="506" y="594" type="line"/>
      <point x="506" y="700" type="line"/>
    </contour>
  </outline>
</glyph>
<glyph name="seven" format="1">
  <advance width="570"/>
  <unicode hex="0037"/>
  <outline>
    <contour>
      <point x="37" y="700" type="line"/>
      <point x="37" y="496" type="line"/>
      <point x="142" y="496" type="line"/>
      <point x="142" y="594" type="line"/>
      <point x="415" y="594" type="line"/>
      <point x="143" y="0" type="line"/>
      <point x="268" y="0" type="line"/>
      <point x="546" y="610" type="line"/>
      <point x="546" y="700" type="line"/>
    </contour>
  </outline>
</glyph>
<glyph name="less" format="1">
  <advance width="498"/>
  <unicode hex="003C"/>
  <outline>
    <contour>
      <point x="35" y="376" type="line"/>
      <point x="35" y="275" type="line"/>
      <point x="463" y="89" type="line"/>
      <point x="463" y="178" type="line"/>
      <point x="112" y="326" type="line"/>
      <point x="463" y="473" type="line"/>
      <point x="463" y="562" type="line"/>
    </contour>
  </outline>
</glyph>
<glyph name="equal" format="1">
  <advance width="498"/>
  <unicode hex="003D"/>
  <outline>
    <contour>
      <point x="35" y="469" type="line"/>
      <point x="35" y="390" type="line"/>
      <point x="463" y="390" type="line"/>
      <point x="463" y="469" type="line"/>
    </contour>
    <contour>
      <point x="35" y="259" type="line"/>
      <point x="35" y="180" type="line"/>
      <point x="463" y="180" type="line"/>
      <point x="463" y="259" type="line"/>
    </contour>
  </outline>
</glyph>
<glyph name="question" format="1">
  <advance width="443"/>
  <unicode hex="003F"/>
  <outline>
    <contour>
      <point x="95" y="495" type="line"/>
      <point x="98" y="563"/>
      <point x="137" y="597"/>
      <point x="202" y="597" type="curve" smooth="yes"/>
      <point x="264" y="597"/>
      <point x="306" y="569"/>
      <point x="306" y="511" type="curve" smooth="yes"/>
      <point x="306" y="390"/>
      <point x="167" y="389"/>
      <point x="167" y="228" type="curve"/>
      <point x="254" y="228" type="line"/>
      <point x="254" y="363"/>
      <point x="412" y="370"/>
      <point x="412" y="528" type="curve" smooth="yes"/>
      <point x="412" y="637"/>
      <point x="332" y="695"/>
      <point x="213" y="695" type="curve" smooth="yes"/>
      <point x="88" y="695"/>
      <point x="9" y="623"/>
      <point x="5" y="496" type="curve"/>
    </contour>
    <component base="period" xOffset="100"/>
  </outline>
</glyph>
<glyph name="at" format="1">
  <advance width="974"/>
  <unicode hex="0040"/>
  <outline>
    <contour>
      <point x="235" y="702"/>
      <point x="34" y="513"/>
      <point x="34" y="267" type="curve" smooth="yes"/>
      <point x="34" y="26"/>
      <point x="226" y="-153"/>
      <point x="480" y="-153" type="curve" smooth="yes"/>
      <point x="556" y="-153"/>
      <point x="655" y="-126"/>
      <point x="714" y="-84" type="curve"/>
      <point x="673" y="-11" type="line"/>
      <point x="617" y="-51"/>
      <point x="539" y="-70"/>
      <point x="480" y="-70" type="curve" smooth="yes"/>
      <point x="276" y="-70"/>
      <point x="120" y="72"/>
      <point x="120" y="267" type="curve" smooth="yes"/>
      <point x="120" y="465"/>
      <point x="285" y="621"/>
      <point x="493" y="621" type="curve" smooth="yes"/>
      <point x="715" y="621"/>
      <point x="854" y="468"/>
      <point x="854" y="269" type="curve" smooth="yes"/>
      <point x="854" y="166"/>
      <point x="809" y="95"/>
      <point x="760" y="95" type="curve" smooth="yes"/>
      <point x="733" y="95"/>
      <point x="714" y="111"/>
      <point x="714" y="149" type="curve" smooth="yes"/>
      <point x="714" y="498" type="line"/>
      <point x="606" y="498" type="line"/>
      <point x="606" y="433" type="line"/>
      <point x="596" y="454"/>
      <point x="536" y="508"/>
      <point x="448" y="508" type="curve" smooth="yes"/>
      <point x="315" y="508"/>
      <point x="228" y="401"/>
      <point x="228" y="269" type="curve" smooth="yes"/>
      <point x="228" y="129"/>
      <point x="337" y="35"/>
      <point x="459" y="35" type="curve" smooth="yes"/>
      <point x="528" y="35"/>
      <point x="590" y="64"/>
      <point x="631" y="124" type="curve"/>
      <point x="633" y="104" type="line" smooth="yes"/>
      <point x="644" y="48"/>
      <point x="688" y="23"/>
      <point x="749" y="23" type="curve" smooth="yes"/>
      <point x="861" y="23"/>
      <point x="940" y="121"/>
      <point x="940" y="272" type="curve" smooth="yes"/>
      <point x="940" y="521"/>
      <point x="750" y="702"/>
      <point x="493" y="702" type="curve" smooth="yes"/>
    </contour>
    <contour>
      <point x="548" y="408"/>
      <point x="599" y="348"/>
      <point x="599" y="273" type="curve" smooth="yes"/>
      <point x="599" y="195"/>
      <point x="550" y="133"/>
      <point x="471" y="133" type="curve" smooth="yes"/>
      <point x="395" y="133"/>
      <point x="345" y="197"/>
      <point x="345" y="274" type="curve" smooth="yes"/>
      <point x="345" y="348"/>
      <point x="395" y="408"/>
      <point x="469" y="408" type="curve" smooth="yes"/>
    </contour>
  </outline>
</glyph>
<glyph name="A" format="1">
  <advance width="738"/>
  <unicode hex="0041"/>
  <outline>
    <contour>
      <point x="310" y="700" type="line"/>
      <point x="1" y="0" type="line"/>
      <point x="124" y="0" type="line"/>
      <point x="368" y="574" type="line"/>
      <point x="611" y="0" type="line"/>
      <point x="738" y="0" type="line"/>
      <point x="432" y="700" type="line"/>
    </contour>
    <contour>
      <point x="155" y="263" type="line"/>
      <point x="155" y="158" type="line" smooth="yes"/>
      <point x="574" y="158" type="line"/>
      <point x="574" y="263" type="line"/>
    </contour>
    <contour>
      <point x="768" y="10" type="move" name="ogonek"/>
    </contour>
    <contour>
      <point x="369" y="700" type="move" name="top"/>
    </contour>
  </outline>
</glyph>
<glyph name="B" format="1">
  <advance width="706"/>
  <unicode hex="0042"/>
  <outline>
    <contour>
      <point x="92" y="699.995" type="line"/>
      <point x="92" y="0" type="line"/>
      <point x="403" y="0" type="line" smooth="yes"/>
      <point x="561" y="0"/>
      <point x="658" y="72"/>
      <point x="658" y="192" type="curve" smooth="yes"/>
      <point x="658" y="286"/>
      <point x="602" y="353"/>
      <point x="508" y="369" type="curve"/>
      <point x="584" y="387"/>
      <point x="631" y="446"/>
      <point x="631" y="525" type="curve" smooth="yes"/>
      <point x="631" y="634"/>
      <point x="541" y="700"/>
      <point x="396" y="700" type="curve" smooth="yes"/>
    </contour>
    <contour>
      <point x="483" y="306"/>
      <point x="537" y="269"/>
      <point x="537" y="207" type="curve" smooth="yes"/>
      <point x="537" y="141"/>
      <point x="483" y="105"/>
      <point x="390" y="105" type="curve" smooth="yes"/>
      <point x="210" y="105" type="line"/>
      <point x="210" y="306" type="line"/>
      <point x="390" y="306" type="line" smooth="yes"/>
    </contour>
    <contour>
      <point x="465" y="595"/>
      <point x="511" y="563"/>
      <point x="511" y="504" type="curve" smooth="yes"/>
      <point x="511" y="445"/>
      <point x="465" y="410"/>
      <point x="390" y="410" type="curve" smooth="yes"/>
      <point x="210" y="410" type="line"/>
      <point x="210" y="595" type="line"/>
      <point x="390" y="595" type="line" smooth="yes"/>
    </contour>
  </outline>
</glyph>
<glyph name="C" format="1">
  <advance width="697"/>
  <unicode hex="0043"/>
  <outline>
    <contour>
      <point x="195" y="703"/>
      <point x="34" y="550"/>
      <point x="34" y="351" type="curve" smooth="yes"/>
      <point x="34" y="150"/>
      <point x="193" y="-5"/>
      <point x="398" y="-5" type="curve" smooth="yes"/>
      <point x="497" y="-5"/>
      <point x="598" y="40"/>
      <point x="669" y="110" type="curve"/>
      <point x="599" y="188" type="line"/>
      <point x="546" y="137"/>
      <point x="474" y="105"/>
      <point x="404" y="105" type="curve" smooth="yes"/>
      <point x="264" y="105"/>
      <point x="154" y="214"/>
      <point x="154" y="352" type="curve" smooth="yes"/>
      <point x="154" y="490"/>
      <point x="264" y="598"/>
      <point x="404" y="598" type="curve" smooth="yes"/>
      <point x="475" y="598"/>
      <point x="548" y="564"/>
      <point x="599" y="509" type="curve"/>
      <point x="668" y="595" type="line"/>
      <point x="600" y="662"/>
      <point x="501" y="703"/>
      <point x="402" y="703" type="curve" smooth="yes"/>
    </contour>
    <contour>
      <point x="372" y="700" type="move" name="top"/>
    </contour>
    <contour>
      <point x="383" y="0" type="move" name="bottom"/>
    </contour>
  </outline>
</glyph>
<glyph name="D" format="1">
  <advance width="775"/>
  <unicode hex="0044"/>
  <outline>
    <contour>
      <point x="92" y="699.995" type="line"/>
      <point x="92" y="0" type="line"/>
      <point x="376" y="0" type="line" smooth="yes"/>
      <point x="588" y="0"/>
      <point x="741" y="148"/>
      <point x="741" y="350" type="curve" smooth="yes"/>
      <point x="741" y="553"/>
      <point x="589" y="700"/>
      <point x="379" y="700" type="curve" smooth="yes"/>
    </contour>
    <contour>
      <point x="516" y="594"/>
      <point x="622" y="492"/>
      <point x="622" y="349" type="curve" smooth="yes"/>
      <point x="622" y="207"/>
      <point x="518" y="106"/>
      <point x="383" y="106" type="curve" smooth="yes"/>
      <point x="210" y="106" type="line"/>
      <point x="210" y="594" type="line"/>
      <point x="378" y="594" type="line" smooth="yes"/>
    </contour>
    <contour>
      <point x="385" y="350" type="move" name="center"/>
    </contour>
    <contour>
      <point x="365" y="700" type="move" name="top"/>
    </contour>
  </outline>
</glyph>
<glyph name="E" format="1">
  <advance width="656"/>
  <unicode hex="0045"/>
  <outline>
    <contour>
      <point x="92" y="700" type="line"/>
      <point x="92" y="0" type="line"/>
      <point x="604" y="0" type="line"/>
      <point x="604" y="106" type="line"/>
      <point x="210" y="106" type="line"/>
      <point x="210" y="299" type="line"/>
      <point x="552" y="299" type="line"/>
      <point x="552" y="405" type="line"/>
      <point x="210" y="405" type="line"/>
      <point x="210" y="594" type="line"/>
      <point x="592" y="594" type="line"/>
      <point x="592" y="700" type="line"/>
    </contour>
    <contour>
      <point x="600" y="10" type="move" name="ogonek"/>
    </contour>
    <contour>
      <point x="331" y="0" type="move" name="bottom"/>
    </contour>
    <contour>
      <point x="344" y="700" type="move" name="top"/>
    </contour>
  </outline>
</glyph>
<glyph name="F" format="1">
  <advance width="575"/>
  <unicode hex="0046"/>
  <outline>
    <contour>
      <point x="92" y="699.995" type="line"/>
      <point x="92" y="0" type="line"/>
      <point x="210" y="0" type="line"/>
      <point x="210" y="287" type="line"/>
      <point x="528" y="287" type="line"/>
      <point x="528" y="392" type="line"/>
      <point x="210" y="392" type="line"/>
      <point x="210" y="594" type="line"/>
      <point x="561" y="594" type="line"/>
      <point x="562" y="700" type="line"/>
    </contour>
  </outline>
</glyph>
<glyph name="G" format="1">
  <advance width="749"/>
  <unicode hex="0047"/>
  <outline>
    <contour>
      <point x="197" y="703"/>
      <point x="34" y="550"/>
      <point x="34" y="350" type="curve" smooth="yes"/>
      <point x="34" y="150"/>
      <point x="195" y="-5"/>
      <point x="402" y="-5" type="curve" smooth="yes"/>
      <point x="498" y="-5"/>
      <point x="603" y="32"/>
      <point x="674" y="86" type="curve"/>
      <point x="606" y="173" type="line"/>
      <point x="550" y="129"/>
      <point x="475" y="101"/>
      <point x="410" y="101" type="curve" smooth="yes"/>
      <point x="267" y="101"/>
      <point x="154" y="210"/>
      <point x="154" y="350" type="curve" smooth="yes"/>
      <point x="154" y="489"/>
      <point x="266" y="598"/>
      <point x="409" y="598" type="curve" smooth="yes"/>
      <point x="482" y="598"/>
      <point x="557" y="568"/>
      <point x="611" y="518" type="curve"/>
      <point x="678" y="605" type="line"/>
      <point x="609" y="665"/>
      <point x="509" y="703"/>
      <point x="409" y="703" type="curve" smooth="yes"/>
    </contour>
    <contour>
      <point x="571" y="344" type="line"/>
      <point x="571" y="86" type="line"/>
      <point x="674" y="86" type="line"/>
      <point x="674" y="344" type="line"/>
    </contour>
    <contour>
      <point x="387" y="700" type="move" name="top"/>
    </contour>
    <contour>
      <point x="387" y="0" type="move" name="bottom"/>
    </contour>
  </outline>
</glyph>
<glyph name="H" format="1">
  <advance width="791"/>
  <unicode hex="0048"/>
  <outline>
    <contour>
      <point x="581" y="700" type="line"/>
      <point x="581" y="396" type="line"/>
      <point x="210" y="396" type="line"/>
      <point x="210" y="700" type="line"/>
      <point x="92" y="699.995" type="line"/>
      <point x="92" y="0" type="line"/>
      <point x="210" y="0" type="line"/>
      <point x="210" y="290" type="line"/>
      <point x="581" y="290" type="line"/>
      <point x="581" y="0" type="line"/>
      <point x="699" y="0" type="line"/>
      <point x="699" y="700" type="line"/>
    </contour>
    <contour>
      <point x="396" y="350" type="move" name="center"/>
    </contour>
    <contour>
      <point x="400" y="700" type="move" name="top"/>
    </contour>
  </outline>
</glyph>
<glyph name="I" format="1">
  <advance width="302"/>
  <unicode hex="0049"/>
  <outline>
    <contour>
      <point x="92" y="699.995" type="line"/>
      <point x="92" y="0" type="line"/>
      <point x="210" y="0" type="line"/>
      <point x="210" y="700" type="line"/>
    </contour>
    <contour>
      <point x="249" y="10" type="move" name="ogonek"/>
    </contour>
    <contour>
      <point x="151" y="700" type="move" name="top"/>
    </contour>
  </outline>
</glyph>
<glyph name="J" format="1">
  <advance width="499"/>
  <unicode hex="004A"/>
  <outline>
    <contour>
      <point x="61" y="700" type="line"/>
      <point x="61" y="594" type="line"/>
      <point x="303" y="594" type="line"/>
      <point x="303" y="220" type="line" smooth="yes"/>
      <point x="303" y="148"/>
      <point x="266" y="109"/>
      <point x="203" y="109" type="curve" smooth="yes"/>
      <point x="155" y="109"/>
      <point x="100" y="136"/>
      <point x="54" y="186" type="curve"/>
      <point x="-2" y="96" type="line"/>
      <point x="50" y="32"/>
      <point x="120" y="-5"/>
      <point x="204" y="-5" type="curve" smooth="yes"/>
      <point x="339" y="-5"/>
      <point x="422" y="75"/>
      <point x="422" y="216" type="curve" smooth="yes"/>
      <point x="422" y="700" type="line"/>
    </contour>
    <contour>
      <point x="238" y="700" type="move" name="top"/>
    </contour>
  </outline>
</glyph>
<glyph name="K" format="1">
  <advance width="718"/>
  <unicode hex="004B"/>
  <outline>
    <contour>
      <point x="544" y="700" type="line"/>
      <point x="210" y="338" type="line"/>
      <point x="210" y="700" type="line"/>
      <point x="92" y="699.995" type="line"/>
      <point x="92" y="0" type="line"/>
      <point x="210" y="0" type="line"/>
      <point x="210" y="178" type="line"/>
      <point x="683" y="700" type="line"/>
    </contour>
    <contour>
      <point x="321" y="319" type="line"/>
      <point x="559" y="0" type="line"/>
      <point x="701" y="0" type="line"/>
      <point x="399" y="419" type="line"/>
    </contour>
    <contour>
      <point x="353" y="700" type="move" name="top"/>
    </contour>
    <contour>
      <point x="353" y="0" type="move" name="bottom"/>
    </contour>
  </outline>
</glyph>
<glyph name="L" format="1">
  <advance width="534"/>
  <unicode hex="004C"/>
  <outline>
    <contour>
      <point x="92" y="699.995" type="line"/>
      <point x="92" y="0" type="line"/>
      <point x="513" y="0" type="line"/>
      <point x="513" y="107" type="line"/>
      <point x="210" y="107" type="line"/>
      <point x="210" y="700" type="line"/>
    </contour>
    <contour>
      <point x="153" y="700" type="move" name="top"/>
    </contour>
    <contour>
      <point x="290" y="0" type="move" name="bottom"/>
    </contour>
  </outline>
</glyph>
<glyph name="M" format="1">
  <advance width="925"/>
  <unicode hex="004D"/>
  <outline>
    <contour>
      <point x="693" y="700" type="line"/>
      <point x="463" y="235" type="line"/>
      <point x="232" y="700" type="line"/>
      <point x="92" y="700" type="line"/>
      <point x="92" y="0" type="line"/>
      <point x="203" y="0" type="line"/>
      <point x="203" y="523" type="line"/>
      <point x="424" y="73" type="line"/>
      <point x="501" y="73" type="line"/>
      <point x="722" y="523" type="line"/>
      <point x="723" y="0" type="line"/>
      <point x="832" y="0" type="line"/>
      <point x="832" y="700" type="line"/>
    </contour>
  </outline>
</glyph>
<glyph name="N" format="1">
  <advance width="792"/>
  <unicode hex="004E"/>
  <outline>
    <contour>
      <point x="583" y="700" type="line"/>
      <point x="583" y="197" type="line"/>
      <point x="208" y="700" type="line"/>
      <point x="92" y="700" type="line"/>
      <point x="92" y="0" type="line"/>
      <point x="210" y="0" type="line"/>
      <point x="210" y="502" type="line"/>
      <point x="583" y="0" type="line"/>
      <point x="699" y="0" type="line"/>
      <point x="699" y="700" type="line"/>
    </contour>
    <contour>
      <point x="396" y="700" type="move" name="top"/>
    </contour>
    <contour>
      <point x="396" y="0" type="move" name="bottom"/>
    </contour>
  </outline>
</glyph>
<glyph name="O" format="1">
  <advance width="810"/>
  <unicode hex="004F"/>
  <outline>
    <contour>
      <point x="196" y="703"/>
      <point x="34" y="551"/>
      <point x="34" y="350" type="curve" smooth="yes"/>
      <point x="34" y="150"/>
      <point x="196" y="-5"/>
      <point x="405" y="-5" type="curve" smooth="yes"/>
      <point x="614" y="-5"/>
      <point x="776" y="150"/>
      <point x="776" y="350" type="curve" smooth="yes"/>
      <point x="776" y="550"/>
      <point x="614" y="703"/>
      <point x="405" y="703" type="curve" smooth="yes"/>
    </contour>
    <contour>
      <point x="543" y="597"/>
      <point x="655" y="489"/>
      <point x="655" y="350" type="curve" smooth="yes"/>
      <point x="655" y="211"/>
      <point x="543" y="101"/>
      <point x="406" y="101" type="curve" smooth="yes"/>
      <point x="269" y="101"/>
      <point x="154" y="211"/>
      <point x="154" y="350" type="curve" smooth="yes"/>
      <point x="154" y="489"/>
      <point x="268" y="597"/>
      <point x="406" y="597" type="curve" smooth="yes"/>
    </contour>
    <contour>
      <point x="400" y="700" type="move" name="top"/>
    </contour>
  </outline>
</glyph>
<glyph name="P" format="1">
  <advance width="673"/>
  <unicode hex="0050"/>
  <outline>
    <contour>
      <point x="92" y="699.995" type="line"/>
      <point x="92" y="0" type="line"/>
      <point x="210" y="0" type="line"/>
      <point x="210" y="211" type="line"/>
      <point x="371" y="211" type="line" smooth="yes"/>
      <point x="547" y="211"/>
      <point x="648" y="303"/>
      <point x="648" y="461" type="curve" smooth="yes"/>
      <point x="648" y="613"/>
      <point x="547" y="699.995"/>
      <point x="371" y="700" type="curve" smooth="yes"/>
    </contour>
    <contour>
      <point x="474" y="594"/>
      <point x="536" y="550"/>
      <point x="536" y="458" type="curve" smooth="yes"/>
      <point x="536" y="363"/>
      <point x="474" y="317"/>
      <point x="366" y="317" type="curve" smooth="yes"/>
      <point x="210" y="317" type="line"/>
      <point x="210" y="594" type="line"/>
      <point x="366" y="594" type="line" smooth="yes"/>
    </contour>
  </outline>
</glyph>
<glyph name="Q" format="1">
  <advance width="825"/>
  <unicode hex="0051"/>
  <outline>
    <contour>
      <point x="401" y="-0" type="line"/>
      <point x="457" y="-97"/>
      <point x="537" y="-154"/>
      <point x="627" y="-154" type="curve" smooth="yes"/>
      <point x="692" y="-154"/>
      <point x="763" y="-125"/>
      <point x="817" y="-77" type="curve"/>
      <point x="770" y="6" type="line"/>
      <point x="724" y="-30"/>
      <point x="678" y="-52"/>
      <point x="641" y="-52" type="curve" smooth="yes"/>
      <point x="593" y="-52"/>
      <point x="547" y="-18"/>
      <point x="503" y="38" type="curve"/>
    </contour>
    <component base="O"/>
  </outline>
</glyph>
<glyph name="R" format="1">
  <advance width="723"/>
  <unicode hex="0052"/>
  <outline>
    <contour>
      <point x="92" y="699.995" type="line"/>
      <point x="92" y="0" type="line"/>
      <point x="210" y="0" type="line"/>
      <point x="210" y="211" type="line"/>
      <point x="376" y="211" type="line" smooth="yes"/>
      <point x="555" y="211"/>
      <point x="658" y="303"/>
      <point x="658" y="461" type="curve" smooth="yes"/>
      <point x="658" y="613"/>
      <point x="555" y="700"/>
      <point x="376" y="700" type="curve" smooth="yes"/>
    </contour>
    <contour>
      <point x="380" y="259" type="line"/>
      <point x="536" y="0" type="line"/>
      <point x="671" y="0" type="line"/>
      <point x="497" y="259" type="line"/>
    </contour>
    <contour>
      <point x="485" y="594"/>
      <point x="546" y="550"/>
      <point x="546" y="458" type="curve" smooth="yes"/>
      <point x="546" y="363"/>
      <point x="485" y="317"/>
      <point x="377" y="317" type="curve" smooth="yes"/>
      <point x="210" y="317" type="line"/>
      <point x="210" y="594" type="line"/>
      <point x="377" y="594" type="line" smooth="yes"/>
    </contour>
    <contour>
      <point x="355" y="700" type="move" name="top"/>
    </contour>
    <contour>
      <point x="360" y="0" type="move" name="bottom"/>
    </contour>
  </outline>
</glyph>
<glyph name="S" format="1">
  <advance width="622"/>
  <unicode hex="0053"/>
  <outline>
    <contour>
      <point x="170" y="705"/>
      <point x="67" y="630"/>
      <point x="67" y="510" type="curve" smooth="yes"/>
      <point x="67" y="261"/>
      <point x="445" y="348"/>
      <point x="445" y="192" type="curve" smooth="yes"/>
      <point x="445" y="138"/>
      <point x="396" y="107"/>
      <point x="314" y="107" type="curve" smooth="yes"/>
      <point x="239" y="107"/>
      <point x="149" y="143"/>
      <point x="77" y="209" type="curve"/>
      <point x="26" y="107" type="line"/>
      <point x="98" y="41"/>
      <point x="202" y="-4"/>
      <point x="312" y="-4" type="curve" smooth="yes"/>
      <point x="466" y="-4"/>
      <point x="576" y="73"/>
      <point x="576" y="198" type="curve" smooth="yes"/>
      <point x="577" y="450"/>
      <point x="199" y="368"/>
      <point x="199" y="521" type="curve" smooth="yes"/>
      <point x="199" y="568"/>
      <point x="244" y="594"/>
      <point x="313" y="594" type="curve" smooth="yes"/>
      <point x="366" y="594"/>
      <point x="442" y="575"/>
      <point x="518" y="529" type="curve"/>
      <point x="567" y="633" type="line"/>
      <point x="502" y="676"/>
      <point x="413" y="705"/>
      <point x="322" y="705" type="curve" smooth="yes"/>
    </contour>
    <contour>
      <point x="319" y="700" type="move" name="top"/>
    </contour>
    <contour>
      <point x="316" y="0" type="move" name="bottom"/>
    </contour>
  </outline>
</glyph>
<glyph name="T" format="1">
  <advance width="579"/>
  <unicode hex="0054"/>
  <outline>
    <contour>
      <point x="9" y="700" type="line"/>
      <point x="9" y="594" type="line"/>
      <point x="230" y="594" type="line"/>
      <point x="230" y="0" type="line"/>
      <point x="348" y="0" type="line"/>
      <point x="348" y="594" type="line"/>
      <point x="570" y="594" type="line"/>
      <point x="570" y="700" type="line"/>
    </contour>
    <contour>
      <point x="283" y="350" type="move" name="center"/>
    </contour>
    <contour>
      <point x="276" y="0" type="move" name="bottom"/>
    </contour>
    <contour>
      <point x="297" y="700" type="move" name="top"/>
    </contour>
  </outline>
</glyph>
<glyph name="U" format="1">
  <advance width="764"/>
  <unicode hex="0055"/>
  <outline>
    <contour>
      <point x="569" y="700" type="line"/>
      <point x="569" y="290" type="line" smooth="yes"/>
      <point x="569" y="171"/>
      <point x="498" y="101"/>
      <point x="384" y="101" type="curve" smooth="yes"/>
      <point x="270" y="101"/>
      <point x="196" y="172"/>
      <point x="196" y="290" type="curve" smooth="yes"/>
      <point x="196" y="700" type="line"/>
      <point x="78" y="700" type="line"/>
      <point x="78" y="290" type="line" smooth="yes"/>
      <point x="78" y="107"/>
      <point x="195" y="-5"/>
      <point x="384" y="-5" type="curve" smooth="yes"/>
      <point x="572" y="-5"/>
      <point x="687" y="107"/>
      <point x="687" y="290" type="curve" smooth="yes"/>
      <point x="687" y="700" type="line"/>
    </contour>
    <contour>
      <point x="543" y="10" type="move" name="ogonek"/>
    </contour>
    <contour>
      <point x="382" y="700" type="move" name="top"/>
    </contour>
  </outline>
</glyph>
<glyph name="V" format="1">
  <advance width="690"/>
  <unicode hex="0056"/>
  <outline>
    <contour>
      <point x="564" y="700" type="line"/>
      <point x="346" y="131" type="line"/>
      <point x="130" y="700" type="line"/>
      <point x="3" y="700" type="line"/>
      <point x="282" y="0" type="line"/>
      <point x="404" y="0" type="line"/>
      <point x="687" y="700" type="line"/>
    </contour>
  </outline>
</glyph>
<glyph name="W" format="1">
  <advance width="1036"/>
  <unicode hex="0057"/>
  <outline>
    <contour>
      <point x="924" y="699.995" type="line"/>
      <point x="755" y="131" type="line"/>
      <point x="585" y="700" type="line"/>
      <point x="469" y="699" type="line"/>
      <point x="300" y="131" type="line"/>
      <point x="130" y="700" type="line"/>
      <point x="3" y="700" type="line"/>
      <point x="235" y="0" type="line"/>
      <point x="357" y="0" type="line"/>
      <point x="525" y="546" type="line"/>
      <point x="691" y="0" type="line"/>
      <point x="812" y="0" type="line"/>
      <point x="1046" y="700" type="line"/>
    </contour>
    <contour>
      <point x="523" y="700" type="move" name="top"/>
    </contour>
  </outline>
</glyph>
<glyph name="X" format="1">
  <advance width="692"/>
  <unicode hex="0058"/>
  <outline>
    <contour>
      <point x="512" y="700" type="line"/>
      <point x="341" y="457" type="line"/>
      <point x="170" y="700" type="line"/>
      <point x="32" y="700" type="line"/>
      <point x="269" y="359" type="line"/>
      <point x="15" y="0" type="line"/>
      <point x="153" y="0" type="line"/>
      <point x="341" y="264" type="line"/>
      <point x="530" y="0" type="line"/>
      <point x="671" y="0" type="line"/>
      <point x="415" y="364" type="line"/>
      <point x="651" y="700" type="line"/>
    </contour>
  </outline>
</glyph>
<glyph name="Y" format="1">
  <advance width="637"/>
  <unicode hex="0059"/>
  <outline>
    <contour>
      <point x="516" y="700" type="line"/>
      <point x="320" y="359" type="line"/>
      <point x="120" y="700" type="line"/>
      <point x="1" y="700" type="line"/>
      <point x="312" y="140" type="line"/>
      <point x="328" y="140" type="line"/>
      <point x="636" y="700" type="line"/>
    </contour>
    <contour>
      <point x="262" y="296" type="line"/>
      <point x="262" y="0" type="line"/>
      <point x="380" y="0" type="line"/>
      <point x="380" y="296" type="line"/>
    </contour>
    <contour>
      <point x="318" y="700" type="move" name="top"/>
    </contour>
  </outline>
</glyph>
<glyph name="Z" format="1">
  <advance width="666"/>
  <unicode hex="005A"/>
  <outline>
    <contour>
      <point x="50" y="700" type="line"/>
      <point x="50" y="594" type="line"/>
      <point x="464" y="594" type="line"/>
      <point x="37" y="85" type="line"/>
      <point x="37" y="0" type="line"/>
      <point x="628" y="0" type="line"/>
      <point x="628" y="106" type="line"/>
      <point x="197" y="106" type="line"/>
      <point x="623" y="615" type="line"/>
      <point x="623" y="700" type="line"/>
    </contour>
    <contour>
      <point x="342" y="700" type="move" name="top"/>
    </contour>
  </outline>
</glyph>
<glyph name="bracketleft" format="1">
  <advance width="345"/>
  <unicode hex="005B"/>
  <outline>
    <contour>
      <point x="92" y="742" type="line"/>
      <point x="92" y="-124" type="line"/>
      <point x="319" y="-124" type="line"/>
      <point x="319" y="-32" type="line"/>
      <point x="195" y="-32" type="line"/>
      <point x="195" y="650" type="line"/>
      <point x="319" y="650" type="line"/>
      <point x="319" y="742" type="line"/>
    </contour>
  </outline>
</glyph>
<glyph name="grave" format="1">
  <advance width="350"/>
  <unicode hex="0060"/>
  <outline>
    <contour>
      <point x="56" y="707" type="line"/>
      <point x="178" y="609" type="line"/>
      <point x="280" y="609" type="line"/>
      <point x="174" y="757" type="line"/>
    </contour>
    <contour>
      <point x="218" y="532" type="move" name="_top"/>
    </contour>
  </outline>
</glyph>
<glyph name="a" format="1">
  <advance width="586"/>
  <unicode hex="0061"/>
  <outline>
    <contour>
      <point x="200" y="536"/>
      <point x="146" y="513"/>
      <point x="72" y="469" type="curve"/>
      <point x="119" y="389" type="line"/>
      <point x="172" y="425"/>
      <point x="225" y="443"/>
      <point x="276" y="443" type="curve" smooth="yes"/>
      <point x="360" y="443"/>
      <point x="403" y="403"/>
      <point x="403" y="336" type="curve"/>
      <point x="404" y="0" type="line"/>
      <point x="517" y="0" type="line"/>
      <point x="516" y="349" type="line" smooth="yes"/>
      <point x="515" y="466"/>
      <point x="438" y="536"/>
      <point x="301" y="536" type="curve" smooth="yes"/>
    </contour>
    <contour>
      <point x="242" y="320" type="line" smooth="yes"/>
      <point x="114" y="319"/>
      <point x="41" y="257"/>
      <point x="41" y="160" type="curve" smooth="yes"/>
      <point x="41" y="66"/>
      <point x="113" y="-5"/>
      <point x="228" y="-5" type="curve" smooth="yes"/>
      <point x="323" y="-5"/>
      <point x="393" y="30"/>
      <point x="426" y="100" type="curve"/>
      <point x="404" y="195" type="line"/>
      <point x="402" y="133"/>
      <point x="337" y="86"/>
      <point x="252" y="86" type="curve" smooth="yes"/>
      <point x="188" y="86"/>
      <point x="149" y="117"/>
      <point x="149" y="165" type="curve" smooth="yes"/>
      <point x="149" y="216"/>
      <point x="184" y="236"/>
      <point x="259" y="236" type="curve" smooth="yes"/>
      <point x="418" y="236" type="line"/>
      <point x="418" y="320" type="line"/>
    </contour>
    <contour>
      <point x="546" y="10" type="move" name="ogonek"/>
    </contour>
    <contour>
      <point x="290" y="532" type="move" name="top"/>
    </contour>
  </outline>
</glyph>
<glyph name="c" format="1">
  <advance width="564"/>
  <unicode hex="0063"/>
  <outline>
    <contour>
      <point x="145" y="536"/>
      <point x="35" y="426"/>
      <point x="35" y="265" type="curve" smooth="yes"/>
      <point x="35" y="105"/>
      <point x="145" y="-4"/>
      <point x="303" y="-4" type="curve" smooth="yes"/>
      <point x="404" y="-4"/>
      <point x="481" y="32"/>
      <point x="529" y="95" type="curve"/>
      <point x="465" y="159" type="line"/>
      <point x="429" y="117"/>
      <point x="375" y="95"/>
      <point x="308" y="95" type="curve" smooth="yes"/>
      <point x="216" y="95"/>
      <point x="150" y="164"/>
      <point x="150" y="265" type="curve" smooth="yes"/>
      <point x="150" y="366"/>
      <point x="216" y="435"/>
      <point x="308" y="435" type="curve" smooth="yes"/>
      <point x="372" y="436"/>
      <point x="423" y="413"/>
      <point x="460" y="375" type="curve"/>
      <point x="523" y="449" type="line"/>
      <point x="474" y="505"/>
      <point x="399" y="536"/>
      <point x="304" y="536" type="curve" smooth="yes"/>
    </contour>
    <contour>
      <point x="288" y="532" type="move" name="top"/>
    </contour>
    <contour>
      <point x="289" y="0" type="move" name="bottom"/>
    </contour>
  </outline>
</glyph>
<glyph name="d" format="1">
  <advance width="682"/>
  <unicode hex="0064"/>
  <outline>
    <contour>
      <point x="424" y="264" type="move"/>
    </contour>
    <contour>
      <point x="138" y="537"/>
      <point x="35" y="428"/>
      <point x="35" y="268" type="curve" smooth="yes"/>
      <point x="35" y="106"/>
      <point x="137" y="-5"/>
      <point x="290" y="-5" type="curve" smooth="yes"/>
      <point x="436" y="-5"/>
      <point x="520" y="97"/>
      <point x="519" y="267" type="curve"/>
      <point x="520" y="435"/>
      <point x="435" y="537"/>
      <point x="288" y="537" type="curve" smooth="yes"/>
    </contour>
    <contour>
      <point x="410" y="439"/>
      <point x="477" y="367"/>
      <point x="477" y="264" type="curve" smooth="yes"/>
      <point x="477" y="163"/>
      <point x="410" y="91"/>
      <point x="314" y="91" type="curve" smooth="yes"/>
      <point x="217" y="91"/>
      <point x="151" y="163"/>
      <point x="150" y="264" type="curve" smooth="yes"/>
      <point x="151" y="366"/>
      <point x="218" y="439"/>
      <point x="314" y="439" type="curve" smooth="yes"/>
    </contour>
    <contour>
      <point x="477" y="742" type="line"/>
      <point x="477" y="0" type="line"/>
      <point x="592" y="0" type="line"/>
      <point x="592" y="742" type="line"/>
    </contour>
    <contour>
      <point x="-12" y="0" type="move" name="center"/>
    </contour>
  </outline>
</glyph>
<glyph name="e" format="1">
  <advance width="588"/>
  <unicode hex="0065"/>
  <outline>
    <contour>
      <point x="128" y="222" type="line"/>
      <point x="553" y="222" type="line"/>
      <point x="567" y="414"/>
      <point x="491" y="536"/>
      <point x="304" y="536" type="curve" smooth="yes"/>
      <point x="146" y="535"/>
      <point x="35" y="426"/>
      <point x="35" y="265" type="curve" smooth="yes"/>
      <point x="35" y="105"/>
      <point x="143" y="-4"/>
      <point x="307" y="-4" type="curve" smooth="yes"/>
      <point x="399" y="-4"/>
      <point x="475" y="29.0051"/>
      <point x="527" y="86" type="curve"/>
      <point x="466" y="151" type="line"/>
      <point x="427" y="111"/>
      <point x="374" y="89"/>
      <point x="316" y="89" type="curve" smooth="yes"/>
      <point x="216" y="89"/>
      <point x="146" y="160"/>
      <point x="146" y="271" type="curve" smooth="yes"/>
      <point x="146" y="376"/>
      <point x="210" y="444"/>
      <point x="305" y="444" type="curve" smooth="yes"/>
      <point x="392" y="444"/>
      <point x="449" y="392"/>
      <point x="453" y="306" type="curve"/>
      <point x="128" y="306" type="line"/>
    </contour>
    <contour>
      <point x="529" y="10" type="move" name="ogonek"/>
    </contour>
    <contour>
      <point x="301" y="0" type="move" name="bottom"/>
    </contour>
    <contour>
      <point x="299" y="532" type="move" name="top"/>
    </contour>
  </outline>
</glyph>
<glyph name="f" format="1">
  <advance width="343"/>
  <unicode hex="0066"/>
  <outline>
    <contour>
      <point x="198" y="747"/>
      <point x="107" y="688"/>
      <point x="107" y="564" type="curve" smooth="yes"/>
      <point x="107" y="0" type="line"/>
      <point x="221" y="0" type="line"/>
      <point x="221" y="575" type="line"/>
      <point x="221" y="625"/>
      <point x="254" y="647"/>
      <point x="293" y="647" type="curve"/>
      <point x="317" y="647"/>
      <point x="344" y="638"/>
      <point x="366" y="622" type="curve"/>
      <point x="410" y="710" type="line"/>
      <point x="376" y="735"/>
      <point x="333" y="747"/>
      <point x="290" y="747" type="curve"/>
    </contour>
    <contour>
      <point x="37" y="512" type="line"/>
      <point x="37" y="426" type="line"/>
      <point x="360" y="426" type="line"/>
      <point x="360" y="512" type="line"/>
    </contour>
  </outline>
</glyph>
<glyph name="h" format="1">
  <advance width="669"/>
  <unicode hex="0068"/>
  <outline>
    <contour>
      <point x="90" y="742" type="line"/>
      <point x="90" y="0" type="line"/>
      <point x="205" y="0" type="line"/>
      <point x="205" y="742" type="line"/>
    </contour>
    <contour>
      <point x="261" y="536"/>
      <point x="173" y="457"/>
      <point x="173" y="262" type="curve"/>
      <point x="205" y="262" type="line"/>
      <point x="205" y="356"/>
      <point x="262" y="427"/>
      <point x="357" y="428" type="curve" smooth="yes"/>
      <point x="437" y="428"/>
      <point x="485" y="379"/>
      <point x="485" y="299" type="curve" smooth="yes"/>
      <point x="485" y="0" type="line"/>
      <point x="600" y="0" type="line"/>
      <point x="600" y="331" type="line" smooth="yes"/>
      <point x="600" y="458"/>
      <point x="526" y="536"/>
      <point x="402" y="536" type="curve" smooth="yes"/>
    </contour>
    <contour>
      <point x="329" y="267" type="move" name="center"/>
    </contour>
    <contour>
      <point x="329" y="532" type="move" name="top"/>
    </contour>
    <contour>
      <point x="266" y="532" type="move" name="topright"/>
    </contour>
    <contour>
      <point x="332" y="0" type="move" name="bottom"/>
    </contour>
  </outline>
</glyph>
<glyph name="j" format="1">
  <advance width="287"/>
  <unicode hex="006A"/>
  <outline>
    <contour>
      <point x="84" y="532" type="line"/>
      <point x="84" y="-26" type="line"/>
      <point x="84" y="-77"/>
      <point x="56" y="-98"/>
      <point x="21" y="-98" type="curve"/>
      <point x="-1" y="-98"/>
      <point x="-26" y="-89"/>
      <point x="-47" y="-74" type="curve"/>
      <point x="-85" y="-163" type="line"/>
      <point x="-54" y="-186"/>
      <point x="-14" y="-199"/>
      <point x="26" y="-199" type="curve"/>
      <point x="111" y="-199"/>
      <point x="198" y="-141"/>
      <point x="198" y="-15" type="curve"/>
      <point x="198" y="532" type="line"/>
    </contour>
    <contour>
      <point x="101" y="754"/>
      <point x="71" y="725"/>
      <point x="71" y="684" type="curve" smooth="yes"/>
      <point x="71" y="644"/>
      <point x="101" y="614"/>
      <point x="141" y="614" type="curve" smooth="yes"/>
      <point x="183" y="614"/>
      <point x="212" y="644"/>
      <point x="212" y="684" type="curve" smooth="yes"/>
      <point x="212" y="725"/>
      <point x="183" y="754"/>
      <point x="141" y="754" type="curve" smooth="yes"/>
    </contour>
  </outline>
</glyph>
<glyph name="k" format="1">
  <advance width="595"/>
  <unicode hex="006B"/>
  <outline>
    <contour>
      <point x="230" y="111" type="move"/>
    </contour>
    <contour>
      <point x="90" y="742" type="line"/>
      <point x="90" y="0" type="line"/>
      <point x="205" y="0" type="line"/>
      <point x="205" y="742" type="line"/>
    </contour>
    <contour>
      <point x="440" y="532" type="line"/>
      <point x="196" y="285" type="line"/>
      <point x="196" y="140" type="line"/>
      <point x="572" y="532" type="line"/>
    </contour>
    <contour>
      <point x="279" y="269" type="line"/>
      <point x="451" y="0" type="line"/>
      <point x="587" y="0" type="line"/>
      <point x="364" y="343" type="line"/>
    </contour>
    <contour>
      <point x="148" y="742" type="move" name="top"/>
    </contour>
    <contour>
      <point x="123" y="0" type="move" name="bottom"/>
    </contour>
    <contour>
      <point x="266" y="532" type="move" name="topright"/>
    </contour>
  </outline>
</glyph>
<glyph name="l" format="1">
  <advance width="295"/>
  <unicode hex="006C"/>
  <outline>
    <contour>
      <point x="90" y="742" type="line"/>
      <point x="90" y="0" type="line"/>
      <point x="205" y="0" type="line"/>
      <point x="205" y="742" type="line"/>
    </contour>
    <contour>
      <point x="148" y="742" type="move" name="top"/>
    </contour>
    <contour>
      <point x="148" y="0" type="move" name="bottom"/>
    </contour>
    <contour>
      <point x="266" y="532" type="move" name="topright"/>
    </contour>
  </outline>
</glyph>
<glyph name="m" format="1">
  <advance width="1043"/>
  <unicode hex="006D"/>
  <outline>
    <contour>
      <point x="85" y="532" type="line"/>
      <point x="85" y="0" type="line"/>
      <point x="199" y="0" type="line"/>
      <point x="199" y="532" type="line"/>
    </contour>
    <contour>
      <point x="254" y="536"/>
      <point x="167" y="457"/>
      <point x="167" y="263" type="curve"/>
      <point x="199" y="263" type="line"/>
      <point x="199" y="356"/>
      <point x="255" y="426"/>
      <point x="347" y="429" type="curve" smooth="yes"/>
      <point x="425" y="429"/>
      <point x="472" y="380"/>
      <point x="472" y="299" type="curve" smooth="yes"/>
      <point x="472" y="0" type="line"/>
      <point x="587" y="0" type="line"/>
      <point x="587" y="331" type="line" smooth="yes"/>
      <point x="587" y="458"/>
      <point x="514" y="536"/>
      <point x="392" y="536" type="curve" smooth="yes"/>
    </contour>
    <contour>
      <point x="641" y="536"/>
      <point x="554" y="457"/>
      <point x="554" y="263" type="curve"/>
      <point x="587" y="263" type="line"/>
      <point x="587" y="356"/>
      <point x="642" y="426"/>
      <point x="733" y="429" type="curve" smooth="yes"/>
      <point x="811" y="429"/>
      <point x="859" y="380"/>
      <point x="859" y="299" type="curve" smooth="yes"/>
      <point x="859" y="0" type="line"/>
      <point x="974" y="0" type="line"/>
      <point x="974" y="331" type="line" smooth="yes"/>
      <point x="974" y="458"/>
      <point x="901" y="536"/>
      <point x="779" y="536" type="curve" smooth="yes"/>
    </contour>
  </outline>
</glyph>
<glyph name="n" format="1">
  <advance width="663"/>
  <unicode hex="006E"/>
  <outline>
    <contour>
      <point x="85" y="532" type="line"/>
      <point x="85" y="0" type="line"/>
      <point x="200" y="0" type="line"/>
      <point x="200" y="532" type="line"/>
    </contour>
    <contour>
      <point x="255" y="536"/>
      <point x="167" y="457"/>
      <point x="167" y="262" type="curve"/>
      <point x="199" y="262" type="line"/>
      <point x="199" y="356"/>
      <point x="256" y="427"/>
      <point x="351" y="428" type="curve" smooth="yes"/>
      <point x="431" y="428"/>
      <point x="479" y="379"/>
      <point x="479" y="299" type="curve" smooth="yes"/>
      <point x="479" y="0" type="line"/>
      <point x="594" y="0" type="line"/>
      <point x="594" y="331" type="line" smooth="yes"/>
      <point x="594" y="458"/>
      <point x="520" y="536"/>
      <point x="396" y="536" type="curve" smooth="yes"/>
    </contour>
    <contour>
      <point x="346" y="532" type="move" name="top"/>
    </contour>
    <contour>
      <point x="336" y="0" type="move" name="bottom"/>
    </contour>
  </outline>
</glyph>
<glyph name="o" format="1">
  <advance width="625"/>
  <unicode hex="006F"/>
  <outline>
    <contour>
      <point x="148" y="536"/>
      <point x="35" y="427"/>
      <point x="35" y="266" type="curve" smooth="yes"/>
      <point x="35" y="106"/>
      <point x="148" y="-4"/>
      <point x="313" y="-4" type="curve" smooth="yes"/>
      <point x="477" y="-4"/>
      <point x="591" y="106"/>
      <point x="591" y="266" type="curve" smooth="yes"/>
      <point x="591" y="427"/>
      <point x="477" y="536"/>
      <point x="313" y="536" type="curve" smooth="yes"/>
    </contour>
    <contour>
      <point x="407" y="437"/>
      <point x="474" y="367"/>
      <point x="474" y="265" type="curve" smooth="yes"/>
      <point x="474" y="162"/>
      <point x="407" y="92"/>
      <point x="312" y="92" type="curve" smooth="yes"/>
      <point x="217" y="92"/>
      <point x="150" y="162"/>
      <point x="150" y="265" type="curve" smooth="yes"/>
      <point x="150" y="367"/>
      <point x="217" y="437"/>
      <point x="312" y="437" type="curve" smooth="yes"/>
    </contour>
    <contour>
      <point x="313" y="532" type="move" name="top"/>
    </contour>
  </outline>
</glyph>
<glyph name="p" format="1">
  <advance width="680"/>
  <unicode hex="0070"/>
  <outline>
    <contour>
      <point x="90" y="532" type="line"/>
      <point x="90" y="-194" type="line"/>
      <point x="205" y="-194" type="line"/>
      <point x="205" y="532" type="line"/>
    </contour>
    <contour>
      <point x="248" y="28" type="move"/>
    </contour>
    <contour>
      <point x="248" y="536"/>
      <point x="162" y="436"/>
      <point x="163" y="264" type="curve"/>
      <point x="162" y="97"/>
      <point x="247" y="-4"/>
      <point x="393" y="-4" type="curve" smooth="yes"/>
      <point x="545" y="-4"/>
      <point x="645" y="105"/>
      <point x="645" y="264" type="curve" smooth="yes"/>
      <point x="645" y="426"/>
      <point x="542" y="536"/>
      <point x="391" y="536" type="curve" smooth="yes"/>
    </contour>
    <contour>
      <point x="462" y="440"/>
      <point x="529" y="367"/>
      <point x="529" y="268" type="curve" smooth="yes"/>
      <point x="529" y="166"/>
      <point x="462" y="94"/>
      <point x="367" y="94" type="curve" smooth="yes"/>
      <point x="272" y="94"/>
      <point x="205" y="165"/>
      <point x="205" y="268" type="curve" smooth="yes"/>
      <point x="205" y="368"/>
      <point x="272" y="440"/>
      <point x="367" y="440" type="curve" smooth="yes"/>
    </contour>
  </outline>
</glyph>
<glyph name="r" format="1">
  <advance width="394"/>
  <unicode hex="0072"/>
  <outline>
    <contour>
      <point x="85" y="532" type="line"/>
      <point x="85" y="0" type="line"/>
      <point x="200" y="0" type="line"/>
      <point x="200" y="532" type="line"/>
    </contour>
    <contour>
      <point x="249" y="536"/>
      <point x="167" y="439"/>
      <point x="167" y="262" type="curve"/>
      <point x="199" y="257" type="line"/>
      <point x="199" y="359"/>
      <point x="269" y="432"/>
      <point x="384" y="426" type="curve"/>
      <point x="384" y="536" type="line"/>
    </contour>
    <contour>
      <point x="203" y="532" type="move" name="top"/>
    </contour>
    <contour>
      <point x="140" y="0" type="move" name="bottom"/>
    </contour>
  </outline>
</glyph>
<glyph name="s" format="1">
  <advance width="470"/>
  <unicode hex="0073"/>
  <outline>
    <contour>
      <point x="142" y="537"/>
      <point x="48" y="491"/>
      <point x="48" y="383" type="curve" smooth="yes"/>
      <point x="47" y="191"/>
      <point x="327" y="252"/>
      <point x="327" y="143" type="curve" smooth="yes"/>
      <point x="327" y="103"/>
      <point x="289" y="86"/>
      <point x="240" y="86" type="curve" smooth="yes"/>
      <point x="182" y="86"/>
      <point x="108" y="111"/>
      <point x="62" y="152" type="curve"/>
      <point x="21" y="70" type="line"/>
      <point x="74" y="22"/>
      <point x="157" y="-4"/>
      <point x="235" y="-4" type="curve" smooth="yes"/>
      <point x="342" y="-4"/>
      <point x="439" y="45"/>
      <point x="439" y="154" type="curve" smooth="yes"/>
      <point x="440" y="347"/>
      <point x="157" y="294"/>
      <point x="157" y="392" type="curve" smooth="yes"/>
      <point x="157" y="430"/>
      <point x="190" y="445"/>
      <point x="235" y="445" type="curve" smooth="yes"/>
      <point x="282" y="445"/>
      <point x="341" y="427"/>
      <point x="388" y="398" type="curve"/>
      <point x="430" y="483" type="line"/>
      <point x="382" y="517"/>
      <point x="311" y="537"/>
      <point x="244" y="537" type="curve" smooth="yes"/>
    </contour>
    <contour>
      <point x="241" y="532" type="move" name="top"/>
    </contour>
    <contour>
      <point x="234" y="0" type="move" name="bottom"/>
    </contour>
  </outline>
</glyph>
<glyph name="t" format="1">
  <advance width="407"/>
  <unicode hex="0074"/>
  <outline>
    <contour>
      <point x="106" y="658" type="line"/>
      <point x="106" y="150" type="line"/>
      <point x="106" y="41"/>
      <point x="175" y="-5"/>
      <point x="255" y="-5" type="curve"/>
      <point x="300" y="-5"/>
      <point x="344" y="9"/>
      <point x="386" y="34" type="curve"/>
      <point x="357" y="122" type="line"/>
      <point x="326" y="107"/>
      <point x="301" y="99"/>
      <point x="277" y="99" type="curve"/>
      <point x="241" y="99"/>
      <point x="220" y="116"/>
      <point x="220" y="171" type="curve"/>
      <point x="220" y="658" type="line"/>
    </contour>
    <contour>
      <point x="31" y="512" type="line"/>
      <point x="31" y="426" type="line"/>
      <point x="377" y="426" type="line"/>
      <point x="377" y="512" type="line"/>
    </contour>
    <contour>
      <point x="204" y="266" type="move" name="center"/>
    </contour>
    <contour>
      <point x="245" y="0" type="move" name="bottom"/>
    </contour>
  </outline>
</glyph>
<glyph name="u" format="1">
  <advance width="653"/>
  <unicode hex="0075"/>
  <outline>
    <contour>
      <point x="568" y="0" type="line"/>
      <point x="568" y="532" type="line"/>
      <point x="453" y="532" type="line"/>
      <point x="453" y="0" type="line"/>
    </contour>
    <contour>
      <point x="399" y="-3"/>
      <point x="484" y="76"/>
      <point x="484" y="270" type="curve"/>
      <point x="453" y="270" type="line"/>
      <point x="453" y="177"/>
      <point x="399" y="106"/>
      <point x="307" y="104" type="curve" smooth="yes"/>
      <point x="230" y="104"/>
      <point x="183" y="153"/>
      <point x="183" y="233" type="curve" smooth="yes"/>
      <point x="183" y="532" type="line"/>
      <point x="68" y="532" type="line"/>
      <point x="68" y="201" type="line" smooth="yes"/>
      <point x="68" y="74"/>
      <point x="141" y="-4"/>
      <point x="263" y="-4" type="curve" smooth="yes"/>
    </contour>
    <contour>
      <point x="594" y="10" type="move" name="ogonek"/>
    </contour>
    <contour>
      <point x="323" y="532" type="move" name="top"/>
    </contour>
  </outline>
</glyph>
<glyph name="v" format="1">
  <advance width="525"/>
  <unicode hex="0076"/>
  <outline>
    <contour>
      <point x="415" y="532" type="line"/>
      <point x="269" y="113" type="line"/>
      <point x="121" y="532" type="line"/>
      <point x="1" y="532" type="line"/>
      <point x="207" y="0" type="line"/>
      <point x="326" y="0" type="line"/>
      <point x="530" y="532" type="line"/>
    </contour>
  </outline>
</glyph>
<glyph name="w" format="1">
  <advance width="893"/>
  <unicode hex="0077"/>
  <outline>
    <contour>
      <point x="781" y="532" type="line"/>
      <point x="646" y="114" type="line"/>
      <point x="510" y="532" type="line"/>
      <point x="391" y="532" type="line"/>
      <point x="257" y="114" type="line"/>
      <point x="119" y="532" type="line"/>
      <point x="1" y="532" type="line"/>
      <point x="197" y="0" type="line"/>
      <point x="315" y="0" type="line"/>
      <point x="450" y="394" type="line"/>
      <point x="585" y="0" type="line"/>
      <point x="704" y="0" type="line"/>
      <point x="898" y="532" type="line"/>
    </contour>
    <contour>
      <point x="447" y="532" type="move" name="top"/>
    </contour>
  </outline>
</glyph>
<glyph name="x" format="1">
  <advance width="554"/>
  <unicode hex="0078"/>
  <outline>
    <contour>
      <point x="27" y="532" type="line"/>
      <point x="202" y="273" type="line"/>
      <point x="14" y="0" type="line"/>
      <point x="142" y="0" type="line"/>
      <point x="278" y="195" type="line"/>
      <point x="405" y="0" type="line"/>
      <point x="537" y="0" type="line"/>
      <point x="354" y="273" type="line"/>
      <point x="525" y="532" type="line"/>
      <point x="399" y="532" type="line"/>
      <point x="278" y="350" type="line"/>
      <point x="159" y="532" type="line"/>
    </contour>
  </outline>
</glyph>
<glyph name="y" format="1">
  <advance width="531"/>
  <unicode hex="0079"/>
  <outline>
    <contour>
      <point x="421" y="532" type="line"/>
      <point x="273" y="129" type="line"/>
      <point x="114" y="532" type="line"/>
      <point x="-5" y="532" type="line"/>
      <point x="215" y="8" type="line"/>
      <point x="197" y="-32" type="line" smooth="yes"/>
      <point x="179" y="-72"/>
      <point x="151" y="-91"/>
      <point x="116" y="-91" type="curve" smooth="yes"/>
      <point x="92" y="-91"/>
      <point x="72" y="-83"/>
      <point x="47" y="-65" type="curve"/>
      <point x="-2" y="-154" type="line"/>
      <point x="35" y="-185"/>
      <point x="73" y="-199"/>
      <point x="121" y="-199" type="curve" smooth="yes"/>
      <point x="201" y="-199"/>
      <point x="261" y="-157"/>
      <point x="294" y="-73" type="curve" smooth="yes"/>
      <point x="536" y="532" type="line"/>
    </contour>
    <contour>
      <point x="267" y="532" type="move" name="top"/>
    </contour>
  </outline>
</glyph>
<glyph name="z" format="1">
  <advance width="537"/>
  <unicode hex="007A"/>
  <outline>
    <contour>
      <point x="54" y="532" type="line"/>
      <point x="54" y="438" type="line"/>
      <point x="349" y="438" type="line"/>
      <point x="45" y="78" type="line"/>
      <point x="45" y="0" type="line"/>
      <point x="500" y="-1" type="line"/>
      <point x="500" y="93" type="line"/>
      <point x="187" y="94" type="line"/>
      <point x="491" y="454" type="line"/>
      <point x="491" y="531" type="line"/>
    </contour>
    <contour>
      <point x="268" y="532" type="move" name="top"/>
    </contour>
  </outline>
</glyph>
<glyph name="braceleft" format="1">
  <advance width="329"/>
  <unicode hex="007B"/>
  <outline>
    <contour>
      <point x="266" y="743" type="line" smooth="yes"/>
      <point x="154" y="743"/>
      <point x="111" y="708"/>
      <point x="111" y="616" type="curve" smooth="yes"/>
      <point x="111" y="409" type="line" smooth="yes"/>
      <point x="111" y="371"/>
      <point x="98" y="356"/>
      <point x="67" y="356" type="curve" smooth="yes"/>
      <point x="36" y="356" type="line"/>
      <point x="36" y="261" type="line"/>
      <point x="67" y="261" type="line"/>
      <point x="120" y="304" type="line"/>
      <point x="190" y="313"/>
      <point x="214" y="343"/>
      <point x="214" y="416" type="curve" smooth="yes"/>
      <point x="214" y="580" type="line" smooth="yes"/>
      <point x="214" y="630"/>
      <point x="239" y="651"/>
      <point x="310" y="651" type="curve"/>
      <point x="310" y="743" type="line"/>
    </contour>
    <contour>
      <point x="36" y="356" type="line"/>
      <point x="36" y="261" type="line"/>
      <point x="67" y="261" type="line" smooth="yes"/>
      <point x="98" y="261"/>
      <point x="111" y="246"/>
      <point x="111" y="208" type="curve" smooth="yes"/>
      <point x="111" y="2" type="line" smooth="yes"/>
      <point x="111" y="-91"/>
      <point x="154" y="-126"/>
      <point x="266" y="-126" type="curve" smooth="yes"/>
      <point x="310" y="-126" type="line"/>
      <point x="310" y="-34" type="line"/>
      <point x="239" y="-34"/>
      <point x="214" y="-13"/>
      <point x="214" y="37" type="curve" smooth="yes"/>
      <point x="214" y="201" type="line" smooth="yes"/>
      <point x="214" y="274"/>
      <point x="190" y="304"/>
      <point x="120" y="313" type="curve"/>
      <point x="67" y="356" type="line"/>
    </contour>
  </outline>
</glyph>
<glyph name="asciitilde" format="1">
  <advance width="498"/>
  <unicode hex="007E"/>
  <outline>
    <contour>
      <point x="99" y="395"/>
      <point x="66" y="348"/>
      <point x="66" y="255" type="curve"/>
      <point x="146" y="255" type="line"/>
      <point x="146" y="288"/>
      <point x="159" y="305"/>
      <point x="184" y="305" type="curve"/>
      <point x="226" y="305"/>
      <point x="268" y="248"/>
      <point x="336" y="248" type="curve"/>
      <point x="400" y="248"/>
      <point x="432" y="295"/>
      <point x="432" y="388" type="curve"/>
      <point x="353" y="388" type="line"/>
      <point x="353" y="355"/>
      <point x="340" y="338"/>
      <point x="314" y="338" type="curve"/>
      <point x="274" y="338"/>
      <point x="226" y="395"/>
      <point x="163" y="395" type="curve"/>
    </contour>
  </outline>
</glyph>
<glyph name="cent" format="1">
  <advance width="564"/>
  <unicode hex="00A2"/>
  <outline>
    <contour>
      <point x="259" y="287" type="line"/>
      <point x="259" y="-142" type="line"/>
      <point x="346" y="-142" type="line"/>
      <point x="346" y="287" type="line"/>
    </contour>
    <contour>
      <point x="259" y="684" type="line"/>
      <point x="259" y="224" type="line"/>
      <point x="346" y="224" type="line"/>
      <point x="346" y="684" type="line"/>
    </contour>
    <component base="c"/>
  </outline>
</glyph>
<glyph name="sterling" format="1">
  <advance width="547"/>
  <unicode hex="00A3"/>
  <outline>
    <contour>
      <point x="518" y="0" type="line"/>
      <point x="518" y="96" type="line"/>
      <point x="238" y="96" type="line"/>
      <point x="238" y="480" type="line" smooth="yes"/>
      <point x="238" y="559"/>
      <point x="276" y="599"/>
      <point x="345" y="599" type="curve" smooth="yes"/>
      <point x="394" y="599"/>
      <point x="442" y="573"/>
      <point x="484" y="523" type="curve"/>
      <point x="531" y="615" type="line"/>
      <point x="480" y="673"/>
      <point x="409" y="705"/>
      <point x="333" y="705" type="curve" smooth="yes"/>
      <point x="197" y="705"/>
      <point x="120" y="625"/>
      <point x="120" y="483" type="curve" smooth="yes"/>
      <point x="120" y="0" type="line"/>
    </contour>
    <contour>
      <point x="37" y="0" type="line"/>
      <point x="210" y="0" type="line"/>
      <point x="210" y="96" type="line"/>
      <point x="37" y="96" type="line"/>
    </contour>
    <contour>
      <point x="37" y="298" type="line"/>
      <point x="414" y="298" type="line"/>
      <point x="414" y="382" type="line"/>
      <point x="37" y="382" type="line"/>
    </contour>
  </outline>
</glyph>
<glyph name="currency" format="1">
  <advance width="711"/>
  <unicode hex="00A4"/>
  <outline>
    <contour>
      <point x="207" y="583"/>
      <point x="87" y="465"/>
      <point x="87" y="319" type="curve" smooth="yes"/>
      <point x="87" y="175"/>
      <point x="207" y="57"/>
      <point x="355" y="57" type="curve" smooth="yes"/>
      <point x="504" y="57"/>
      <point x="625" y="175"/>
      <point x="625" y="319" type="curve" smooth="yes"/>
      <point x="625" y="465"/>
      <point x="504" y="583"/>
      <point x="355" y="583" type="curve" smooth="yes"/>
    </contour>
    <contour>
      <point x="35" y="65" type="line"/>
      <point x="100" y="-4" type="line"/>
      <point x="215" y="110" type="line"/>
      <point x="149" y="179" type="line"/>
    </contour>
    <contour>
      <point x="496" y="110" type="line"/>
      <point x="611" y="-4" type="line"/>
      <point x="676" y="65" type="line"/>
      <point x="562" y="179" type="line"/>
    </contour>
    <contour>
      <point x="35" y="570" type="line"/>
      <point x="149" y="456" type="line"/>
      <point x="215" y="525" type="line"/>
      <point x="100" y="639" type="line"/>
    </contour>
    <contour>
      <point x="454" y="486"/>
      <point x="534" y="411"/>
      <point x="534" y="319" type="curve" smooth="yes"/>
      <point x="534" y="229"/>
      <point x="454" y="155"/>
      <point x="355" y="155" type="curve" smooth="yes"/>
      <point x="258" y="155"/>
      <point x="179" y="229"/>
      <point x="179" y="319" type="curve" smooth="yes"/>
      <point x="179" y="411"/>
      <point x="258" y="486"/>
      <point x="355" y="486" type="curve" smooth="yes"/>
    </contour>
    <contour>
      <point x="496" y="525" type="line"/>
      <point x="562" y="456" type="line"/>
      <point x="676" y="570" type="line"/>
      <point x="611" y="639" type="line"/>
    </contour>
  </outline>
</glyph>
<glyph name="yen" format="1">
  <advance width="628"/>
  <unicode hex="00A5"/>
  <outline>
    <contour>
      <point x="75" y="322" type="line"/>
      <point x="75" y="272" type="line"/>
      <point x="575" y="272" type="line"/>
      <point x="575" y="322" type="line"/>
    </contour>
    <contour>
      <point x="75" y="189" type="line"/>
      <point x="75" y="139" type="line"/>
      <point x="575" y="139" type="line"/>
      <point x="575" y="189" type="line"/>
    </contour>
    <contour>
      <point x="516" y="700" type="line"/>
      <point x="320" y="359" type="line"/>
      <point x="120" y="700" type="line"/>
      <point x="1" y="700" type="line"/>
      <point x="312" y="139" type="line"/>
      <point x="328" y="139" type="line"/>
      <point x="636" y="700" type="line"/>
    </contour>
    <contour>
      <point x="262" y="296" type="line"/>
      <point x="262" y="0" type="line"/>
      <point x="380" y="0" type="line"/>
      <point x="380" y="296" type="line"/>
    </contour>
  </outline>
</glyph>
<glyph name="section" format="1">
  <advance width="499"/>
  <unicode hex="00A7"/>
  <outline>
    <contour>
      <point x="140" y="694"/>
      <point x="63" y="634"/>
      <point x="63" y="550" type="curve" smooth="yes"/>
      <point x="63" y="497"/>
      <point x="88" y="465"/>
      <point x="164" y="434" type="curve"/>
      <point x="89" y="416"/>
      <point x="42" y="370"/>
      <point x="42" y="307" type="curve" smooth="yes"/>
      <point x="42" y="125"/>
      <point x="344" y="172"/>
      <point x="344" y="60" type="curve" smooth="yes"/>
      <point x="344" y="25"/>
      <point x="301" y="-3"/>
      <point x="239" y="-3" type="curve" smooth="yes"/>
      <point x="178" y="-3"/>
      <point x="113" y="20"/>
      <point x="56" y="65" type="curve"/>
      <point x="21" y="-9" type="line"/>
      <point x="81" y="-58"/>
      <point x="161" y="-85"/>
      <point x="242" y="-85" type="curve" smooth="yes"/>
      <point x="365" y="-85"/>
      <point x="447" y="-23"/>
      <point x="447" y="63" type="curve" smooth="yes"/>
      <point x="447" y="121"/>
      <point x="420" y="151"/>
      <point x="360" y="177" type="curve"/>
      <point x="420" y="195"/>
      <point x="468" y="248"/>
      <point x="468" y="306" type="curve" smooth="yes"/>
      <point x="468" y="492"/>
      <point x="163" y="441"/>
      <point x="163" y="554" type="curve" smooth="yes"/>
      <point x="163" y="589"/>
      <point x="201" y="613"/>
      <point x="260" y="613" type="curve" smooth="yes"/>
      <point x="305" y="613"/>
      <point x="358" y="598"/>
      <point x="412" y="567" type="curve"/>
      <point x="448" y="641" type="line"/>
      <point x="388" y="677"/>
      <point x="324" y="694"/>
      <point x="259" y="694" type="curve" smooth="yes"/>
    </contour>
    <contour>
      <point x="314" y="376"/>
      <point x="366" y="345"/>
      <point x="366" y="299" type="curve" smooth="yes"/>
      <point x="366" y="262"/>
      <point x="333" y="235"/>
      <point x="269" y="235" type="curve" smooth="yes"/>
      <point x="198" y="235"/>
      <point x="142" y="268"/>
      <point x="142" y="315" type="curve" smooth="yes"/>
      <point x="142" y="352"/>
      <point x="178" y="376"/>
      <point x="242" y="376" type="curve" smooth="yes"/>
    </contour>
  </outline>
</glyph>
<glyph name="dieresis" format="1">
  <advance width="388"/>
  <unicode hex="00A8"/>
  <outline>
    <component base="dotaccent" xOffset="105" yOffset="68" xScale="0.91" yScale="0.91"/>
    <component base="dotaccent" xOffset="-72" yOffset="68" xScale="0.91" yScale="0.91"/>
    <contour>
      <point x="175" y="532" type="move" name="_top"/>
    </contour>
  </outline>
</glyph>
<glyph name="copyright" format="1">
  <advance width="745"/>
  <unicode hex="00A9"/>
  <outline>
    <contour>
      <point x="182" y="689"/>
      <point x="34" y="533"/>
      <point x="34" y="348" type="curve" smooth="yes"/>
      <point x="34" y="163"/>
      <point x="181" y="9"/>
      <point x="371" y="9" type="curve" smooth="yes"/>
      <point x="562" y="9"/>
      <point x="711" y="165"/>
      <point x="711" y="350" type="curve" smooth="yes"/>
      <point x="711" y="536"/>
      <point x="563" y="689"/>
      <point x="373" y="689" type="curve" smooth="yes"/>
    </contour>
    <contour>
      <point x="532" y="629"/>
      <point x="654" y="503"/>
      <point x="654" y="350" type="curve" smooth="yes"/>
      <point x="654" y="197"/>
      <point x="531" y="69"/>
      <point x="371" y="69" type="curve" smooth="yes"/>
      <point x="212" y="69"/>
      <point x="91" y="195"/>
      <point x="91" y="348" type="curve" smooth="yes"/>
      <point x="91" y="501"/>
      <point x="213" y="629"/>
      <point x="373" y="629" type="curve" smooth="yes"/>
    </contour>
    <contour>
      <point x="277" y="520"/>
      <point x="198" y="446"/>
      <point x="198" y="349" type="curve" smooth="yes"/>
      <point x="198" y="251"/>
      <point x="276" y="176"/>
      <point x="376" y="176" type="curve" smooth="yes"/>
      <point x="425" y="176"/>
      <point x="474" y="198"/>
      <point x="509" y="232" type="curve"/>
      <point x="474" y="271" type="line"/>
      <point x="448" y="246"/>
      <point x="412" y="231"/>
      <point x="379" y="231" type="curve" smooth="yes"/>
      <point x="311" y="231"/>
      <point x="258" y="284"/>
      <point x="258" y="350" type="curve" smooth="yes"/>
      <point x="258" y="415"/>
      <point x="311" y="467"/>
      <point x="379" y="467" type="curve" smooth="yes"/>
      <point x="414" y="467"/>
      <point x="448" y="451"/>
      <point x="474" y="425" type="curve"/>
      <point x="509" y="467" type="line"/>
      <point x="475" y="500"/>
      <point x="426" y="520"/>
      <point x="378" y="520" type="curve" smooth="yes"/>
    </contour>
  </outline>
</glyph>
<glyph name="ordfeminine" format="1">
  <advance width="385"/>
  <unicode hex="00AA"/>
  <outline>
    <contour>
      <point x="150" y="777"/>
      <point x="100" y="763"/>
      <point x="52" y="740" type="curve"/>
      <point x="73" y="684" type="line"/>
      <point x="110" y="703"/>
      <point x="147" y="714"/>
      <point x="180" y="714" type="curve"/>
      <point x="230" y="714"/>
      <point x="255" y="692"/>
      <point x="255" y="655" type="curve"/>
      <point x="256" y="458" type="line"/>
      <point x="336" y="458" type="line"/>
      <point x="335" y="664" type="line"/>
      <point x="335" y="735"/>
      <point x="285" y="777"/>
      <point x="198" y="777" type="curve"/>
    </contour>
    <contour>
      <point x="265" y="641" type="line"/>
      <point x="159" y="641" type="line"/>
      <point x="79" y="640"/>
      <point x="33" y="608"/>
      <point x="33" y="550" type="curve"/>
      <point x="33" y="494"/>
      <point x="75" y="455"/>
      <point x="142" y="455" type="curve"/>
      <point x="204" y="455"/>
      <point x="249" y="482"/>
      <point x="270" y="534" type="curve"/>
      <point x="256" y="559" type="line"/>
      <point x="238" y="524"/>
      <point x="207" y="509"/>
      <point x="169" y="509" type="curve"/>
      <point x="132" y="509"/>
      <point x="110" y="528"/>
      <point x="110" y="557" type="curve"/>
      <point x="110" y="585"/>
      <point x="133" y="600"/>
      <point x="175" y="600" type="curve"/>
      <point x="265" y="600" type="line"/>
    </contour>
  </outline>
</glyph>
<glyph name="logicalnot" format="1">
  <advance width="562"/>
  <unicode hex="00AC"/>
  <outline>
    <contour>
      <point x="35" y="404" type="line"/>
      <point x="35" y="325" type="line"/>
      <point x="486" y="325" type="line"/>
      <point x="486" y="404" type="line"/>
    </contour>
    <contour>
      <point x="487" y="404" type="line"/>
      <point x="402" y="404" type="line"/>
      <point x="402" y="145" type="line"/>
      <point x="487" y="145" type="line"/>
    </contour>
  </outline>
</glyph>
<glyph name="registered" format="1">
  <advance width="745"/>
  <unicode hex="00AE"/>
  <outline>
    <contour>
      <point x="182" y="689"/>
      <point x="34" y="533"/>
      <point x="34" y="348" type="curve" smooth="yes"/>
      <point x="34" y="163"/>
      <point x="181" y="9"/>
      <point x="371" y="9" type="curve" smooth="yes"/>
      <point x="562" y="9"/>
      <point x="711" y="165"/>
      <point x="711" y="350" type="curve" smooth="yes"/>
      <point x="711" y="536"/>
      <point x="563" y="689"/>
      <point x="373" y="689" type="curve" smooth="yes"/>
    </contour>
    <contour>
      <point x="381" y="315" type="line"/>
      <point x="458" y="190" type="line"/>
      <point x="524" y="190" type="line"/>
      <point x="438" y="315" type="line"/>
    </contour>
    <contour>
      <point x="532" y="629"/>
      <point x="654" y="503"/>
      <point x="654" y="350" type="curve" smooth="yes"/>
      <point x="654" y="197"/>
      <point x="531" y="69"/>
      <point x="371" y="69" type="curve" smooth="yes"/>
      <point x="212" y="69"/>
      <point x="91" y="195"/>
      <point x="91" y="348" type="curve" smooth="yes"/>
      <point x="91" y="501"/>
      <point x="213" y="629"/>
      <point x="373" y="629" type="curve" smooth="yes"/>
    </contour>
    <contour>
      <point x="244" y="528" type="line"/>
      <point x="244" y="190" type="line"/>
      <point x="301" y="190" type="line"/>
      <point x="301" y="292" type="line"/>
      <point x="380" y="292" type="line" smooth="yes"/>
      <point x="468" y="292"/>
      <point x="517" y="337"/>
      <point x="517" y="412" type="curve" smooth="yes"/>
      <point x="517" y="486"/>
      <point x="468" y="528"/>
      <point x="380" y="528" type="curve" smooth="yes"/>
    </contour>
    <contour>
      <point x="432" y="480"/>
      <point x="463" y="456"/>
      <point x="463" y="411" type="curve" smooth="yes"/>
      <point x="463" y="366"/>
      <point x="432" y="340"/>
      <point x="380" y="340" type="curve" smooth="yes"/>
      <point x="301" y="340" type="line"/>
      <point x="301" y="480" type="line"/>
      <point x="380" y="480" type="line" smooth="yes"/>
    </contour>
  </outline>
</glyph>
<glyph name="macron" format="1">
  <advance width="350"/>
  <unicode hex="00AF"/>
  <outline>
    <contour>
      <point x="48" y="724" type="line"/>
      <point x="48" y="641" type="line"/>
      <point x="303" y="641" type="line"/>
      <point x="303" y="724" type="line"/>
    </contour>
    <contour>
      <point x="175" y="532" type="move" name="_top"/>
    </contour>
  </outline>
</glyph>
<glyph name="degree" format="1">
  <advance width="346"/>
  <unicode hex="00B0"/>
  <outline>
    <contour>
      <point x="134" y="810"/>
      <point x="81" y="758"/>
      <point x="81" y="695" type="curve" smooth="yes"/>
      <point x="81" y="632"/>
      <point x="134" y="580"/>
      <point x="197" y="580" type="curve" smooth="yes"/>
      <point x="261" y="580"/>
      <point x="314" y="632"/>
      <point x="314" y="695" type="curve" smooth="yes"/>
      <point x="314" y="758"/>
      <point x="261" y="810"/>
      <point x="197" y="810" type="curve" smooth="yes"/>
    </contour>
    <contour>
      <point x="234" y="759"/>
      <point x="265" y="729"/>
      <point x="265" y="695" type="curve" smooth="yes"/>
      <point x="265" y="661"/>
      <point x="234" y="632"/>
      <point x="197" y="632" type="curve" smooth="yes"/>
      <point x="161" y="632"/>
      <point x="130" y="661"/>
      <point x="130" y="695" type="curve" smooth="yes"/>
      <point x="130" y="729"/>
      <point x="161" y="759"/>
      <point x="197" y="759" type="curve" smooth="yes"/>
    </contour>
  </outline>
</glyph>
<glyph name="acute" format="1">
  <advance width="350"/>
  <unicode hex="00B4"/>
  <outline>
    <contour>
      <point x="62" y="608" type="line"/>
      <point x="164" y="608" type="line"/>
      <point x="286" y="706" type="line"/>
      <point x="168" y="756" type="line"/>
    </contour>
    <contour>
      <point x="129" y="532" type="move" name="_top"/>
    </contour>
  </outline>
</glyph>
<glyph name="mu" format="1">
  <advance width="675"/>
  <unicode hex="00B5"/>
  <outline>
    <contour>
      <point x="90" y="532" type="line"/>
      <point x="90" y="-194" type="line"/>
      <point x="205" y="-194" type="line"/>
      <point x="205" y="532" type="line"/>
    </contour>
    <contour>
      <point x="247" y="28" type="move"/>
    </contour>
    <component base="u" xOffset="22"/>
  </outline>
</glyph>
<glyph name="paragraph" format="1">
  <advance width="615"/>
  <unicode hex="00B6"/>
  <outline>
    <contour>
      <point x="224" y="742" type="line" smooth="yes"/>
      <point x="62" y="742"/>
      <point x="-1" y="645"/>
      <point x="-1" y="545" type="curve" smooth="yes"/>
      <point x="-1" y="471"/>
      <point x="37" y="356"/>
      <point x="186" y="356" type="curve" smooth="yes"/>
      <point x="196" y="356"/>
      <point x="206" y="356"/>
      <point x="217" y="356" type="curve"/>
      <point x="217" y="-109" type="line"/>
      <point x="304" y="-109" type="line"/>
      <point x="304" y="670" type="line"/>
      <point x="435" y="670" type="line"/>
      <point x="435" y="-109" type="line"/>
      <point x="523" y="-109" type="line"/>
      <point x="523" y="742" type="line"/>
    </contour>
  </outline>
</glyph>
<glyph name="cedilla" format="1">
  <advance width="350"/>
  <unicode hex="00B8"/>
  <outline>
    <contour>
      <point x="231" y="11" type="line"/>
      <point x="164" y="11" type="line"/>
      <point x="121" y="-88" type="line"/>
      <point x="132" y="-85"/>
      <point x="145" y="-83"/>
      <point x="156" y="-83" type="curve" smooth="yes"/>
      <point x="189" y="-83"/>
      <point x="204" y="-102"/>
      <point x="204" y="-121" type="curve" smooth="yes"/>
      <point x="204" y="-141"/>
      <point x="187" y="-162"/>
      <point x="158" y="-162" type="curve" smooth="yes"/>
      <point x="138" y="-162"/>
      <point x="117" y="-155"/>
      <point x="101" y="-142" type="curve"/>
      <point x="78" y="-196" type="line"/>
      <point x="101" y="-213"/>
      <point x="133" y="-224"/>
      <point x="166" y="-224" type="curve" smooth="yes"/>
      <point x="225" y="-224"/>
      <point x="272" y="-187"/>
      <point x="272" y="-129" type="curve" smooth="yes"/>
      <point x="272" y="-85"/>
      <point x="244" y="-58"/>
      <point x="202" y="-50" type="curve"/>
    </contour>
    <contour>
      <point x="175" y="0" type="move" name="_bottom"/>
    </contour>
  </outline>
</glyph>
<glyph name="ordmasculine" format="1">
  <advance width="407"/>
  <unicode hex="00BA"/>
  <outline>
    <contour>
      <point x="100" y="776"/>
      <point x="30" y="712"/>
      <point x="30" y="616" type="curve" smooth="yes"/>
      <point x="30" y="520"/>
      <point x="100" y="456"/>
      <point x="203" y="456" type="curve" smooth="yes"/>
      <point x="307" y="456"/>
      <point x="377" y="520"/>
      <point x="377" y="616" type="curve" smooth="yes"/>
      <point x="377" y="712"/>
      <point x="307" y="776"/>
      <point x="203" y="776" type="curve" smooth="yes"/>
    </contour>
    <contour>
      <point x="257" y="710"/>
      <point x="294" y="672"/>
      <point x="294" y="615" type="curve" smooth="yes"/>
      <point x="294" y="558"/>
      <point x="257" y="520"/>
      <point x="203" y="520" type="curve" smooth="yes"/>
      <point x="149" y="520"/>
      <point x="111" y="558"/>
      <point x="111" y="615" type="curve" smooth="yes"/>
      <point x="111" y="672"/>
      <point x="149" y="710"/>
      <point x="203" y="710" type="curve" smooth="yes"/>
    </contour>
  </outline>
</glyph>
<glyph name="Aring" format="1">
  <advance width="738"/>
  <unicode hex="00C5"/>
  <outline>
    <contour>
      <point x="304" y="896"/>
      <point x="249" y="841"/>
      <point x="249" y="774" type="curve" smooth="yes"/>
      <point x="249" y="708"/>
      <point x="304" y="653"/>
      <point x="371" y="653" type="curve" smooth="yes"/>
      <point x="439" y="653"/>
      <point x="494" y="708"/>
      <point x="494" y="774" type="curve" smooth="yes"/>
      <point x="494" y="841"/>
      <point x="439" y="896"/>
      <point x="371" y="896" type="curve" smooth="yes"/>
    </contour>
    <contour>
      <point x="409" y="840"/>
      <point x="440" y="810"/>
      <point x="440" y="774" type="curve" smooth="yes"/>
      <point x="440" y="738"/>
      <point x="409" y="709"/>
      <point x="371" y="709" type="curve" smooth="yes"/>
      <point x="333" y="709"/>
      <point x="302" y="738"/>
      <point x="302" y="774" type="curve" smooth="yes"/>
      <point x="302" y="810"/>
      <point x="333" y="840"/>
      <point x="371" y="840" type="curve" smooth="yes"/>
    </contour>
    <component base="A"/>
  </outline>
</glyph>
<glyph name="AE" format="1">
  <advance width="1052"/>
  <unicode hex="00C6"/>
  <outline>
    <contour>
      <point x="408" y="700" type="line"/>
      <point x="1" y="0" type="line"/>
      <point x="125" y="0" type="line"/>
      <point x="464" y="602" type="line"/>
      <point x="755" y="602" type="line"/>
      <point x="755" y="700" type="line"/>
    </contour>
    <contour>
      <point x="189" y="265" type="line"/>
      <point x="186" y="173" type="line"/>
      <point x="550" y="173" type="line"/>
      <point x="553" y="265" type="line"/>
    </contour>
    <component base="E" xOffset="396"/>
    <contour>
      <point x="626" y="700" type="move" name="top"/>
    </contour>
  </outline>
</glyph>
<glyph name="AE" format="1">
  <advance width="1052"/>
  <unicode hex="00C6"/>
  <outline>
    <contour>
      <point x="408" y="700" type="line"/>
      <point x="1" y="0" type="line"/>
      <point x="125" y="0" type="line"/>
      <point x="464" y="602" type="line"/>
      <point x="755" y="602" type="line"/>
      <point x="755" y="700" type="line"/>
    </contour>
    <contour>
      <point x="189" y="265" type="line"/>
      <point x="186" y="173" type="line"/>
      <point x="550" y="173" type="line"/>
      <point x="553" y="265" type="line"/>
    </contour>
    <contour>
      <point x="488" y="700" type="line"/>
      <point x="488" y="0" type="line"/>
      <point x="999" y="0" type="line"/>
      <point x="999" y="106" type="line"/>
      <point x="605" y="106" type="line"/>
      <point x="605" y="299" type="line"/>
      <point x="948" y="299" type="line"/>
      <point x="948" y="404" type="line"/>
      <point x="605" y="404" type="line"/>
      <point x="605" y="594" type="line"/>
      <point x="987" y="594" type="line"/>
      <point x="987" y="700" type="line"/>
    </contour>
    <contour>
      <point x="996" y="10" type="move" name="ogonek"/>
    </contour>
    <contour>
      <point x="727" y="0" type="move" name="bottom"/>
    </contour>
    <contour>
      <point x="626" y="700" type="move" name="top"/>
    </contour>
  </outline>
</glyph>
<glyph name="Eth" format="1">
  <advance width="795"/>
  <unicode hex="00D0"/>
  <outline>
    <contour>
      <point x="0" y="386" type="line"/>
      <point x="0" y="317" type="line"/>
      <point x="428" y="317" type="line"/>
      <point x="428" y="386" type="line"/>
    </contour>
    <component base="D" xOffset="20"/>
  </outline>
</glyph>
<glyph name="multiply" format="1">
  <advance width="498"/>
  <unicode hex="00D7"/>
  <outline>
    <contour>
      <point x="125" y="504" type="line"/>
      <point x="72" y="448" type="line"/>
      <point x="374" y="145" type="line"/>
      <point x="427" y="201" type="line"/>
    </contour>
    <contour>
      <point x="374" y="504" type="line"/>
      <point x="72" y="201" type="line"/>
      <point x="125" y="145" type="line"/>
      <point x="427" y="448" type="line"/>
    </contour>
  </outline>
</glyph>
<glyph name="Oslash" format="1">
  <advance width="810"/>
  <unicode hex="00D8"/>
  <outline>
    <contour>
      <point x="513" y="811" type="line"/>
      <point x="196" y="-122" type="line"/>
      <point x="266" y="-122" type="line"/>
      <point x="583" y="811" type="line"/>
    </contour>
    <component base="O"/>
    <contour>
      <point x="397" y="700" type="move" name="top"/>
    </contour>
  </outline>
</glyph>
<glyph name="Thorn" format="1">
  <advance width="679"/>
  <unicode hex="00DE"/>
  <outline>
    <contour>
      <point x="185" y="601" type="line"/>
      <point x="201" y="503" type="line"/>
      <point x="352" y="503" type="line" smooth="yes"/>
      <point x="471" y="503"/>
      <point x="533" y="455"/>
      <point x="533" y="364" type="curve" smooth="yes"/>
      <point x="533" y="269"/>
      <point x="471" y="220"/>
      <point x="352" y="220" type="curve" smooth="yes"/>
      <point x="202" y="220" type="line"/>
      <point x="202" y="122" type="line"/>
      <point x="357" y="122" type="line" smooth="yes"/>
      <point x="547" y="122"/>
      <point x="654" y="211"/>
      <point x="654" y="367" type="curve" smooth="yes"/>
      <point x="654" y="516"/>
      <point x="547" y="601"/>
      <point x="357" y="601" type="curve" smooth="yes"/>
    </contour>
    <contour>
      <point x="92" y="699.995" type="line"/>
      <point x="92" y="0" type="line"/>
      <point x="210" y="0" type="line"/>
      <point x="210" y="700" type="line"/>
    </contour>
  </outline>
</glyph>
<glyph name="germandbls" format="1">
  <advance width="654"/>
  <unicode hex="00DF"/>
  <outline>
    <contour>
      <point x="174" y="747"/>
      <point x="78" y="645"/>
      <point x="78" y="488" type="curve" smooth="yes"/>
      <point x="78" y="0" type="line"/>
      <point x="192" y="0" type="line"/>
      <point x="192" y="496" type="line" smooth="yes"/>
      <point x="192" y="593"/>
      <point x="245" y="654"/>
      <point x="331" y="654" type="curve" smooth="yes"/>
      <point x="405" y="654"/>
      <point x="455" y="609"/>
      <point x="455" y="536" type="curve" smooth="yes"/>
      <point x="455" y="461"/>
      <point x="400" y="413"/>
      <point x="314" y="413" type="curve"/>
      <point x="314" y="325" type="line"/>
      <point x="327" y="325" type="line" smooth="yes"/>
      <point x="428" y="325"/>
      <point x="494" y="282"/>
      <point x="494" y="207" type="curve" smooth="yes"/>
      <point x="494" y="138"/>
      <point x="438" y="89"/>
      <point x="352" y="89" type="curve" smooth="yes"/>
      <point x="292" y="89" type="line"/>
      <point x="292" y="0" type="line"/>
      <point x="343" y="0" type="line" smooth="yes"/>
      <point x="503" y="0"/>
      <point x="606" y="88"/>
      <point x="606" y="210" type="curve" smooth="yes"/>
      <point x="606" y="306"/>
      <point x="540" y="363"/>
      <point x="450" y="381" type="curve"/>
      <point x="521" y="408"/>
      <point x="566" y="476"/>
      <point x="566" y="554" type="curve" smooth="yes"/>
      <point x="566" y="671"/>
      <point x="470" y="747"/>
      <point x="333" y="747" type="curve" smooth="yes"/>
    </contour>
  </outline>
</glyph>
<glyph name="ae" format="1">
  <advance width="974"/>
  <unicode hex="00E6"/>
  <outline>
    <contour>
      <point x="556" y="124" type="move"/>
    </contour>
    <contour>
      <point x="224" y="536"/>
      <point x="147" y="513"/>
      <point x="72" y="472" type="curve"/>
      <point x="101" y="389" type="line"/>
      <point x="160" y="424"/>
      <point x="220" y="443"/>
      <point x="277" y="443" type="curve" smooth="yes"/>
      <point x="361" y="443"/>
      <point x="405" y="403"/>
      <point x="405" y="336" type="curve"/>
      <point x="406" y="200" type="line"/>
      <point x="519" y="174" type="line"/>
      <point x="518" y="349" type="line" smooth="yes"/>
      <point x="517" y="466"/>
      <point x="439" y="536"/>
      <point x="301" y="536" type="curve" smooth="yes"/>
    </contour>
    <contour>
      <point x="243" y="306" type="line" smooth="yes"/>
      <point x="116" y="305"/>
      <point x="41" y="251"/>
      <point x="41" y="155" type="curve" smooth="yes"/>
      <point x="41" y="61"/>
      <point x="113" y="-5"/>
      <point x="227" y="-5" type="curve" smooth="yes"/>
      <point x="340" y="-5"/>
      <point x="423" y="45"/>
      <point x="463" y="144" type="curve"/>
      <point x="414" y="187" type="line"/>
      <point x="381" y="106"/>
      <point x="324" y="76"/>
      <point x="253" y="76" type="curve" smooth="yes"/>
      <point x="190" y="76"/>
      <point x="149" y="112"/>
      <point x="149" y="165" type="curve" smooth="yes"/>
      <point x="149" y="216"/>
      <point x="191" y="244"/>
      <point x="265" y="244" type="curve" smooth="yes"/>
      <point x="420" y="244" type="line"/>
      <point x="420" y="306" type="line"/>
    </contour>
    <contour>
      <point x="501" y="241" type="line"/>
      <point x="941" y="241" type="line"/>
      <point x="947" y="417"/>
      <point x="843" y="536"/>
      <point x="677" y="536" type="curve" smooth="yes"/>
      <point x="524" y="536"/>
      <point x="422" y="426"/>
      <point x="422" y="265" type="curve" smooth="yes"/>
      <point x="422" y="105"/>
      <point x="522" y="-4"/>
      <point x="680" y="-4" type="curve" smooth="yes"/>
      <point x="772" y="-4"/>
      <point x="848" y="29"/>
      <point x="901" y="86" type="curve"/>
      <point x="839" y="151" type="line"/>
      <point x="800" y="111"/>
      <point x="747" y="89"/>
      <point x="689" y="89" type="curve" smooth="yes"/>
      <point x="589" y="89"/>
      <point x="519" y="160"/>
      <point x="519" y="272" type="curve" smooth="yes"/>
      <point x="519" y="375"/>
      <point x="583" y="452"/>
      <point x="678" y="452" type="curve" smooth="yes"/>
      <point x="765" y="452"/>
      <point x="823" y="390"/>
      <point x="826" y="303" type="curve"/>
      <point x="501" y="303" type="line"/>
    </contour>
    <contour>
      <point x="488" y="532" type="move" name="top"/>
    </contour>
  </outline>
</glyph>
<glyph name="eth" format="1">
  <advance width="590"/>
  <unicode hex="00F0"/>
  <outline>
    <contour>
      <point x="122" y="694" type="line"/>
      <point x="276" y="619"/>
      <point x="402" y="488"/>
      <point x="441" y="362" type="curve"/>
      <point x="409" y="411"/>
      <point x="339" y="443"/>
      <point x="263" y="443" type="curve" smooth="yes"/>
      <point x="125" y="443"/>
      <point x="36" y="357"/>
      <point x="36" y="224" type="curve" smooth="yes"/>
      <point x="36" y="85"/>
      <point x="133" y="-5"/>
      <point x="282" y="-5" type="curve" smooth="yes"/>
      <point x="448" y="-5"/>
      <point x="555" y="101"/>
      <point x="555" y="265" type="curve" smooth="yes"/>
      <point x="555" y="459"/>
      <point x="415" y="648"/>
      <point x="198" y="747" type="curve"/>
    </contour>
    <contour>
      <point x="377" y="359"/>
      <point x="433" y="307"/>
      <point x="433" y="226" type="curve" smooth="yes"/>
      <point x="433" y="148"/>
      <point x="377" y="97"/>
      <point x="288" y="97" type="curve" smooth="yes"/>
      <point x="202" y="97"/>
      <point x="146" y="149"/>
      <point x="146" y="231" type="curve" smooth="yes"/>
      <point x="146" y="309"/>
      <point x="202" y="359"/>
      <point x="288" y="359" type="curve" smooth="yes"/>
    </contour>
    <contour>
      <point x="131" y="579" type="line"/>
      <point x="149" y="519" type="line"/>
      <point x="503" y="636" type="line"/>
      <point x="484" y="696" type="line"/>
    </contour>
  </outline>
</glyph>
<glyph name="divide" format="1">
  <advance width="498"/>
  <unicode hex="00F7"/>
  <outline>
    <contour>
      <point x="35" y="364" type="line"/>
      <point x="35" y="285" type="line"/>
      <point x="463" y="285" type="line"/>
      <point x="463" y="364" type="line"/>
    </contour>
    <component base="dotaccent" xOffset="84" yOffset="-113" xScale="0.91" yScale="0.91"/>
    <component base="dotaccent" xOffset="84" yOffset="-468" xScale="0.91" yScale="0.91"/>
  </outline>
</glyph>
<glyph name="oslash" format="1">
  <advance width="625"/>
  <unicode hex="00F8"/>
  <outline>
    <contour>
      <point x="416" y="665" type="line"/>
      <point x="154" y="-146" type="line"/>
      <point x="206" y="-146" type="line"/>
      <point x="468" y="665" type="line"/>
    </contour>
    <contour>
      <point x="148" y="536"/>
      <point x="35" y="427"/>
      <point x="35" y="266" type="curve" smooth="yes"/>
      <point x="35" y="106"/>
      <point x="148" y="-4"/>
      <point x="313" y="-4" type="curve" smooth="yes"/>
      <point x="477" y="-4"/>
      <point x="591" y="106"/>
      <point x="591" y="266" type="curve" smooth="yes"/>
      <point x="591" y="427"/>
      <point x="477" y="536"/>
      <point x="313" y="536" type="curve" smooth="yes"/>
    </contour>
    <contour>
      <point x="413" y="447"/>
      <point x="482" y="373"/>
      <point x="482" y="265" type="curve" smooth="yes"/>
      <point x="482" y="156"/>
      <point x="413" y="83"/>
      <point x="313" y="83" type="curve" smooth="yes"/>
      <point x="214" y="83"/>
      <point x="144" y="156"/>
      <point x="144" y="265" type="curve" smooth="yes"/>
      <point x="144" y="373"/>
      <point x="214" y="447"/>
      <point x="313" y="447" type="curve" smooth="yes"/>
    </contour>
    <contour>
      <point x="313" y="532" type="move" name="top"/>
    </contour>
  </outline>
</glyph>
<glyph name="thorn" format="1">
  <advance width="680"/>
  <unicode hex="00FE"/>
  <outline>
    <contour>
      <point x="327" y="305" type="move"/>
    </contour>
    <contour>
      <point x="90" y="532" type="line"/>
      <point x="90" y="-194" type="line"/>
      <point x="205" y="-194" type="line"/>
      <point x="205" y="532" type="line"/>
    </contour>
    <contour>
      <point x="248" y="28" type="move"/>
    </contour>
    <contour>
      <point x="248" y="536"/>
      <point x="162" y="436"/>
      <point x="163" y="264" type="curve"/>
      <point x="162" y="97"/>
      <point x="247" y="-4"/>
      <point x="393" y="-4" type="curve" smooth="yes"/>
      <point x="545" y="-4"/>
      <point x="645" y="105"/>
      <point x="645" y="264" type="curve" smooth="yes"/>
      <point x="645" y="426"/>
      <point x="542" y="536"/>
      <point x="391" y="536" type="curve" smooth="yes"/>
    </contour>
    <contour>
      <point x="462" y="440"/>
      <point x="529" y="367"/>
      <point x="529" y="268" type="curve" smooth="yes"/>
      <point x="529" y="166"/>
      <point x="462" y="94"/>
      <point x="367" y="94" type="curve" smooth="yes"/>
      <point x="272" y="94"/>
      <point x="205" y="165"/>
      <point x="205" y="268" type="curve" smooth="yes"/>
      <point x="205" y="368"/>
      <point x="272" y="440"/>
      <point x="367" y="440" type="curve" smooth="yes"/>
    </contour>
    <contour>
      <point x="90" y="742" type="line"/>
      <point x="90" y="0" type="line"/>
      <point x="205" y="0" type="line"/>
      <point x="205" y="742" type="line"/>
    </contour>
    <contour>
      <point x="148" y="742" type="move" name="top"/>
    </contour>
    <contour>
      <point x="148" y="0" type="move" name="bottom"/>
    </contour>
    <contour>
      <point x="266" y="532" type="move" name="topright"/>
    </contour>
  </outline>
</glyph>
<glyph name="Aogonek" format="1">
  <advance width="738"/>
  <unicode hex="0104"/>
  <outline>
    <contour>
      <point x="310" y="700" type="line"/>
      <point x="1" y="0" type="line"/>
      <point x="124" y="0" type="line"/>
      <point x="192" y="158" type="line"/>
      <point x="544" y="158" type="line"/>
      <point x="612" y="0" type="line"/>
      <point x="646" y="0" type="line"/>
      <point x="613" y="-47"/>
      <point x="594" y="-86"/>
      <point x="594" y="-123" type="curve" smooth="yes"/>
      <point x="594" y="-178"/>
      <point x="635" y="-201"/>
      <point x="673" y="-201" type="curve" smooth="yes"/>
      <point x="710" y="-201"/>
      <point x="746" y="-180"/>
      <point x="768" y="-144" type="curve"/>
      <point x="735" y="-105" type="line"/>
      <point x="720" y="-124"/>
      <point x="704" y="-137"/>
      <point x="686" y="-137" type="curve" smooth="yes"/>
      <point x="668" y="-137"/>
      <point x="656" y="-125"/>
      <point x="656" y="-105" type="curve" smooth="yes"/>
      <point x="656" y="-82"/>
      <point x="671" y="-48"/>
      <point x="705" y="0" type="curve"/>
      <point x="738" y="0" type="line"/>
      <point x="432" y="700" type="line"/>
    </contour>
    <contour>
      <point x="502" y="262" type="line"/>
      <point x="234" y="262" type="line"/>
      <point x="368" y="574" type="line"/>
    </contour>
  </outline>
</glyph>
<glyph name="aogonek" format="1">
  <advance width="590"/>
  <unicode hex="0105"/>
  <outline>
    <contour>
      <point x="199" y="536"/>
      <point x="146" y="513"/>
      <point x="72" y="469" type="curve"/>
      <point x="119" y="389" type="line"/>
      <point x="172" y="425"/>
      <point x="225" y="443"/>
      <point x="275" y="443" type="curve" smooth="yes"/>
      <point x="360" y="443"/>
      <point x="402" y="403"/>
      <point x="403" y="336" type="curve"/>
      <point x="403" y="320" type="line"/>
      <point x="241" y="320" type="line" smooth="yes"/>
      <point x="114" y="319"/>
      <point x="41" y="257"/>
      <point x="41" y="160" type="curve" smooth="yes"/>
      <point x="41" y="66"/>
      <point x="112" y="-5"/>
      <point x="228" y="-5" type="curve" smooth="yes"/>
      <point x="305" y="-5"/>
      <point x="366" y="18"/>
      <point x="404" y="65" type="curve"/>
      <point x="404" y="0" type="line"/>
      <point x="425" y="0" type="line"/>
      <point x="390" y="-46"/>
      <point x="371" y="-86"/>
      <point x="371" y="-123" type="curve" smooth="yes"/>
      <point x="371" y="-178"/>
      <point x="411" y="-201"/>
      <point x="450" y="-201" type="curve" smooth="yes"/>
      <point x="487" y="-201"/>
      <point x="522" y="-180"/>
      <point x="545" y="-144" type="curve"/>
      <point x="512" y="-105" type="line"/>
      <point x="497" y="-124"/>
      <point x="481" y="-137"/>
      <point x="463" y="-137" type="curve" smooth="yes"/>
      <point x="445" y="-137"/>
      <point x="433" y="-125"/>
      <point x="433" y="-105" type="curve" smooth="yes"/>
      <point x="433" y="-82"/>
      <point x="448" y="-48"/>
      <point x="483" y="0" type="curve"/>
      <point x="517" y="0" type="line"/>
      <point x="517" y="349" type="line" smooth="yes"/>
      <point x="515" y="466"/>
      <point x="438" y="536"/>
      <point x="301" y="536" type="curve" smooth="yes"/>
    </contour>
    <contour>
      <point x="404" y="186" type="line"/>
      <point x="401" y="134"/>
      <point x="332" y="86"/>
      <point x="252" y="86" type="curve" smooth="yes"/>
      <point x="188" y="86"/>
      <point x="149" y="117"/>
      <point x="149" y="165" type="curve" smooth="yes"/>
      <point x="149" y="216"/>
      <point x="183" y="236"/>
      <point x="259" y="236" type="curve" smooth="yes"/>
      <point x="404" y="236" type="line"/>
    </contour>
  </outline>
</glyph>
<glyph name="dcaron" format="1">
  <advance width="719"/>
  <unicode hex="010F"/>
  <outline>
    <contour>
      <point x="326" y="-94" type="move"/>
    </contour>
    <component base="d"/>
    <component base="quoteright" xOffset="605" yOffset="-16"/>
  </outline>
</glyph>
<glyph name="dcroat" format="1">
  <advance width="679"/>
  <unicode hex="0111"/>
  <outline>
    <contour>
      <point x="378" y="682" type="line"/>
      <point x="378" y="616" type="line"/>
      <point x="661" y="616" type="line"/>
      <point x="661" y="682" type="line"/>
    </contour>
    <component base="d"/>
  </outline>
</glyph>
<glyph name="Eogonek" format="1">
  <advance width="665"/>
  <unicode hex="0118"/>
  <outline>
    <contour>
      <point x="92" y="699.995" type="line"/>
      <point x="92" y="0" type="line"/>
      <point x="488" y="0" type="line"/>
      <point x="453" y="-49"/>
      <point x="436" y="-87"/>
      <point x="436" y="-123" type="curve" smooth="yes"/>
      <point x="436" y="-178"/>
      <point x="476" y="-201"/>
      <point x="514" y="-201" type="curve" smooth="yes"/>
      <point x="551" y="-201"/>
      <point x="586" y="-180"/>
      <point x="610" y="-144" type="curve"/>
      <point x="577" y="-105" type="line"/>
      <point x="562" y="-124"/>
      <point x="545" y="-137"/>
      <point x="527" y="-137" type="curve" smooth="yes"/>
      <point x="510" y="-137"/>
      <point x="497" y="-125"/>
      <point x="497" y="-105" type="curve" smooth="yes"/>
      <point x="497" y="-82"/>
      <point x="511" y="-50"/>
      <point x="547" y="0" type="curve"/>
      <point x="613" y="0" type="line"/>
      <point x="613" y="98" type="line"/>
      <point x="210" y="98" type="line"/>
      <point x="210" y="307" type="line"/>
      <point x="561" y="307" type="line"/>
      <point x="561" y="404" type="line"/>
      <point x="210" y="404" type="line"/>
      <point x="210" y="602" type="line"/>
      <point x="601" y="602" type="line"/>
      <point x="601" y="699.995" type="line"/>
    </contour>
  </outline>
</glyph>
<glyph name="eogonek" format="1">
  <advance width="588"/>
  <unicode hex="0119"/>
  <outline>
    <contour>
      <point x="130" y="531"/>
      <point x="35" y="418"/>
      <point x="35" y="267" type="curve" smooth="yes"/>
      <point x="35" y="105"/>
      <point x="145" y="-4"/>
      <point x="302" y="-4" type="curve" smooth="yes"/>
      <point x="348" y="-4"/>
      <point x="385" y="5"/>
      <point x="424" y="28" type="curve"/>
      <point x="383" y="-27"/>
      <point x="361" y="-79"/>
      <point x="361" y="-122" type="curve" smooth="yes"/>
      <point x="361" y="-179"/>
      <point x="401" y="-201"/>
      <point x="440" y="-201" type="curve" smooth="yes"/>
      <point x="479" y="-201"/>
      <point x="512" y="-178"/>
      <point x="534" y="-144" type="curve"/>
      <point x="501" y="-105" type="line"/>
      <point x="488" y="-122"/>
      <point x="472" y="-137"/>
      <point x="453" y="-137" type="curve" smooth="yes"/>
      <point x="435" y="-137"/>
      <point x="423" y="-126"/>
      <point x="423" y="-103" type="curve" smooth="yes"/>
      <point x="423" y="-58"/>
      <point x="467" y="15"/>
      <point x="527" y="86" type="curve"/>
      <point x="466" y="151" type="line"/>
      <point x="427" y="111"/>
      <point x="372" y="88"/>
      <point x="316" y="88" type="curve" smooth="yes"/>
      <point x="226" y="88"/>
      <point x="169" y="142"/>
      <point x="151" y="222" type="curve"/>
      <point x="554" y="222" type="line"/>
      <point x="567" y="418"/>
      <point x="481" y="540"/>
      <point x="304" y="535" type="curve" smooth="yes"/>
    </contour>
    <contour>
      <point x="392" y="444"/>
      <point x="449" y="388"/>
      <point x="453" y="306" type="curve"/>
      <point x="149" y="306" type="line"/>
      <point x="157" y="388"/>
      <point x="220" y="444"/>
      <point x="306" y="444" type="curve" smooth="yes"/>
    </contour>
  </outline>
</glyph>
<glyph name="hbar" format="1">
  <advance width="815"/>
  <unicode hex="0127"/>
  <outline>
    <contour>
      <point x="6" y="658" type="line"/>
      <point x="6" y="589" type="line"/>
      <point x="346" y="589" type="line"/>
      <point x="346" y="658" type="line"/>
    </contour>
    <component base="h"/>
  </outline>
</glyph>
<glyph name="Iogonek" format="1">
  <advance width="302"/>
  <unicode hex="012E"/>
  <outline>
    <contour>
      <point x="216" y="-105" type="line"/>
      <point x="201" y="-124"/>
      <point x="185" y="-137"/>
      <point x="166" y="-137" type="curve" smooth="yes"/>
      <point x="149" y="-137"/>
      <point x="137" y="-125"/>
      <point x="137" y="-105" type="curve" smooth="yes"/>
      <point x="137" y="-82"/>
      <point x="152" y="-48"/>
      <point x="186" y="0" type="curve"/>
      <point x="210" y="0" type="line"/>
      <point x="210" y="700" type="line"/>
      <point x="92" y="700" type="line"/>
      <point x="92" y="0" type="line"/>
      <point x="127" y="0" type="line"/>
      <point x="94" y="-47"/>
      <point x="75" y="-86"/>
      <point x="75" y="-123" type="curve" smooth="yes"/>
      <point x="75" y="-178"/>
      <point x="115" y="-201"/>
      <point x="154" y="-201" type="curve" smooth="yes"/>
      <point x="191" y="-201"/>
      <point x="226" y="-180"/>
      <point x="249" y="-144" type="curve"/>
    </contour>
  </outline>
</glyph>
<glyph name="iogonek" format="1">
  <advance width="267"/>
  <unicode hex="012F"/>
  <outline>
    <contour>
      <point x="78" y="532" type="line"/>
      <point x="78" y="0" type="line"/>
      <point x="110" y="0" type="line"/>
      <point x="77" y="-47"/>
      <point x="58" y="-86"/>
      <point x="58" y="-123" type="curve" smooth="yes"/>
      <point x="58" y="-178"/>
      <point x="98" y="-201"/>
      <point x="137" y="-201" type="curve" smooth="yes"/>
      <point x="174" y="-201"/>
      <point x="209" y="-180"/>
      <point x="232" y="-144" type="curve"/>
      <point x="199" y="-105" type="line"/>
      <point x="184" y="-124"/>
      <point x="168" y="-137"/>
      <point x="150" y="-137" type="curve" smooth="yes"/>
      <point x="132" y="-137"/>
      <point x="120" y="-125"/>
      <point x="120" y="-105" type="curve" smooth="yes"/>
      <point x="120" y="-82"/>
      <point x="135" y="-48"/>
      <point x="169" y="0" type="curve"/>
      <point x="193" y="0" type="line"/>
      <point x="193" y="532" type="line"/>
    </contour>
    <contour>
      <point x="97" y="754"/>
      <point x="68" y="725"/>
      <point x="68" y="684" type="curve" smooth="yes"/>
      <point x="68" y="643"/>
      <point x="97" y="614"/>
      <point x="135" y="614" type="curve" smooth="yes"/>
      <point x="174" y="614"/>
      <point x="202" y="643"/>
      <point x="202" y="684" type="curve" smooth="yes"/>
      <point x="202" y="725"/>
      <point x="174" y="754"/>
      <point x="135" y="754" type="curve" smooth="yes"/>
    </contour>
  </outline>
</glyph>
<glyph name="dotlessi" format="1">
  <advance width="284"/>
  <unicode hex="0131"/>
  <outline>
    <contour>
      <point x="85" y="532" type="line"/>
      <point x="85" y="0" type="line"/>
      <point x="199" y="0" type="line"/>
      <point x="199" y="532" type="line"/>
    </contour>
    <contour>
      <point x="249" y="10" type="move" name="ogonek"/>
    </contour>
    <contour>
      <point x="142" y="532" type="move" name="top"/>
    </contour>
  </outline>
</glyph>
<glyph name="kcedilla" format="1">
  <advance width="595"/>
  <unicode hex="0137"/>
  <outline>
    <contour>
      <point x="177" y="9" type="line"/>
      <point x="110" y="9" type="line"/>
      <point x="72" y="-72" type="line"/>
      <point x="80" y="-71"/>
      <point x="95" y="-69"/>
      <point x="104" y="-69" type="curve" smooth="yes"/>
      <point x="132" y="-69"/>
      <point x="152" y="-86"/>
      <point x="152" y="-112" type="curve" smooth="yes"/>
      <point x="153" y="-139"/>
      <point x="132" y="-159"/>
      <point x="100" y="-159" type="curve" smooth="yes"/>
      <point x="82" y="-159"/>
      <point x="60" y="-151"/>
      <point x="48" y="-140" type="curve"/>
      <point x="25" y="-194" type="line"/>
      <point x="48" y="-211"/>
      <point x="83" y="-221"/>
      <point x="109" y="-221" type="curve" smooth="yes"/>
      <point x="176" y="-221"/>
      <point x="221" y="-182"/>
      <point x="220" y="-123" type="curve" smooth="yes"/>
      <point x="219" y="-85"/>
      <point x="190" y="-54"/>
      <point x="150" y="-47" type="curve"/>
    </contour>
    <component base="k"/>
  </outline>
</glyph>
<glyph name="kgreenlandic" format="1">
  <advance width="590"/>
  <unicode hex="0138"/>
  <outline>
    <contour>
      <point x="230" y="111" type="move"/>
    </contour>
    <contour>
      <point x="85" y="532" type="line"/>
      <point x="85" y="0" type="line"/>
      <point x="199" y="0" type="line"/>
      <point x="199" y="532" type="line"/>
    </contour>
    <contour>
      <point x="435" y="532" type="line"/>
      <point x="191" y="286" type="line"/>
      <point x="191" y="140" type="line"/>
      <point x="567" y="532" type="line"/>
    </contour>
    <contour>
      <point x="274" y="270" type="line"/>
      <point x="446" y="0" type="line"/>
      <point x="582" y="0" type="line"/>
      <point x="359" y="343" type="line"/>
    </contour>
    <contour>
      <point x="249" y="10" type="move" name="ogonek"/>
    </contour>
    <contour>
      <point x="293" y="0" type="move" name="bottom"/>
    </contour>
    <contour>
      <point x="142" y="532" type="move" name="top"/>
    </contour>
  </outline>
</glyph>
<glyph name="ldot" format="1">
  <advance width="333"/>
  <unicode hex="0140"/>
  <outline>
    <contour>
      <point x="268" y="374"/>
      <point x="242" y="347"/>
      <point x="242" y="309" type="curve" smooth="yes"/>
      <point x="242" y="273"/>
      <point x="268" y="246"/>
      <point x="304" y="246" type="curve" smooth="yes"/>
      <point x="339" y="246"/>
      <point x="365" y="273"/>
      <point x="365" y="309" type="curve" smooth="yes"/>
      <point x="365" y="347"/>
      <point x="339" y="374"/>
      <point x="304" y="374" type="curve" smooth="yes"/>
    </contour>
    <component base="l"/>
  </outline>
</glyph>
<glyph name="Lslash" format="1">
  <advance width="551"/>
  <unicode hex="0141"/>
  <outline>
    <contour>
      <point x="6" y="420" type="line"/>
      <point x="26" y="344" type="line"/>
      <point x="406" y="455" type="line"/>
      <point x="386" y="532" type="line"/>
    </contour>
    <component base="L" xOffset="17"/>
  </outline>
</glyph>
<glyph name="lslash" format="1">
  <advance width="310"/>
  <unicode hex="0142"/>
  <outline>
    <contour>
      <point x="-21" y="432" type="line"/>
      <point x="-1" y="356" type="line"/>
      <point x="337" y="455" type="line"/>
      <point x="317" y="532" type="line"/>
    </contour>
    <component base="l" xOffset="17"/>
  </outline>
</glyph>
<glyph name="OE" format="1">
  <advance width="1097"/>
  <unicode hex="0152"/>
  <outline>
    <contour>
      <point x="404" y="700" type="line"/>
      <point x="195" y="700"/>
      <point x="34" y="546"/>
      <point x="34" y="350" type="curve" smooth="yes"/>
      <point x="34" y="152"/>
      <point x="196" y="0"/>
      <point x="404" y="0" type="curve"/>
      <point x="568" y="0" type="line"/>
      <point x="569" y="106" type="line"/>
      <point x="405" y="106" type="line"/>
      <point x="264" y="106"/>
      <point x="154" y="210"/>
      <point x="154" y="349" type="curve" smooth="yes"/>
      <point x="154" y="488"/>
      <point x="264" y="593"/>
      <point x="405" y="593" type="curve"/>
      <point x="560" y="593" type="line"/>
      <point x="561" y="700" type="line"/>
    </contour>
    <component base="E" xOffset="441"/>
    <contour>
      <point x="551" y="700" type="move" name="top"/>
    </contour>
  </outline>
</glyph>
<glyph name="OE" format="1">
  <advance width="1097"/>
  <unicode hex="0152"/>
  <outline>
    <contour>
      <point x="404" y="700" type="line"/>
      <point x="195" y="700"/>
      <point x="34" y="546"/>
      <point x="34" y="350" type="curve" smooth="yes"/>
      <point x="34" y="152"/>
      <point x="196" y="0"/>
      <point x="404" y="0" type="curve"/>
      <point x="568" y="0" type="line"/>
      <point x="569" y="106" type="line"/>
      <point x="405" y="106" type="line"/>
      <point x="264" y="106"/>
      <point x="154" y="210"/>
      <point x="154" y="349" type="curve" smooth="yes"/>
      <point x="154" y="488"/>
      <point x="264" y="593"/>
      <point x="405" y="593" type="curve"/>
      <point x="560" y="593" type="line"/>
      <point x="561" y="700" type="line"/>
    </contour>
    <contour>
      <point x="533" y="700" type="line"/>
      <point x="533" y="0" type="line"/>
      <point x="1045" y="0" type="line"/>
      <point x="1045" y="106" type="line"/>
      <point x="651" y="106" type="line"/>
      <point x="651" y="299" type="line"/>
      <point x="993" y="299" type="line"/>
      <point x="993" y="404" type="line"/>
      <point x="651" y="404" type="line"/>
      <point x="651" y="594" type="line"/>
      <point x="1033" y="594" type="line"/>
      <point x="1033" y="700" type="line"/>
    </contour>
    <contour>
      <point x="1041" y="10" type="move" name="ogonek"/>
    </contour>
    <contour>
      <point x="772" y="0" type="move" name="bottom"/>
    </contour>
    <contour>
      <point x="551" y="700" type="move" name="top"/>
    </contour>
  </outline>
</glyph>
<glyph name="oe" format="1">
  <advance width="1040"/>
  <unicode hex="0153"/>
  <outline>
    <contour>
      <point x="359" y="221" type="move"/>
    </contour>
    <contour>
      <point x="148" y="536"/>
      <point x="35" y="427"/>
      <point x="35" y="266" type="curve" smooth="yes"/>
      <point x="35" y="106"/>
      <point x="148" y="-4"/>
      <point x="313" y="-4" type="curve" smooth="yes"/>
      <point x="469" y="-4"/>
      <point x="567" y="106"/>
      <point x="567" y="266" type="curve" smooth="yes"/>
      <point x="567" y="427"/>
      <point x="469" y="536"/>
      <point x="313" y="536" type="curve" smooth="yes"/>
    </contour>
    <contour>
      <point x="407" y="437"/>
      <point x="474" y="367"/>
      <point x="474" y="265" type="curve" smooth="yes"/>
      <point x="474" y="162"/>
      <point x="407" y="92"/>
      <point x="312" y="92" type="curve" smooth="yes"/>
      <point x="217" y="92"/>
      <point x="150" y="162"/>
      <point x="150" y="265" type="curve" smooth="yes"/>
      <point x="150" y="367"/>
      <point x="217" y="437"/>
      <point x="312" y="437" type="curve" smooth="yes"/>
    </contour>
    <contour>
      <point x="565" y="241" type="line"/>
      <point x="1007" y="241" type="line"/>
      <point x="1012" y="417"/>
      <point x="908" y="536"/>
      <point x="742" y="536" type="curve" smooth="yes"/>
      <point x="591" y="536"/>
      <point x="494" y="426"/>
      <point x="494" y="265" type="curve" smooth="yes"/>
      <point x="494" y="105"/>
      <point x="589" y="-4"/>
      <point x="745" y="-4" type="curve" smooth="yes"/>
      <point x="837" y="-4"/>
      <point x="913" y="29"/>
      <point x="967" y="86" type="curve"/>
      <point x="905" y="151" type="line"/>
      <point x="865" y="111"/>
      <point x="812" y="89"/>
      <point x="754" y="89" type="curve" smooth="yes"/>
      <point x="653" y="89"/>
      <point x="582" y="160"/>
      <point x="582" y="271" type="curve" smooth="yes"/>
      <point x="582" y="376"/>
      <point x="647" y="451"/>
      <point x="743" y="451" type="curve" smooth="yes"/>
      <point x="830" y="451"/>
      <point x="889" y="390"/>
      <point x="892" y="303" type="curve"/>
      <point x="565" y="303" type="line"/>
    </contour>
    <contour>
      <point x="523" y="532" type="move" name="top"/>
    </contour>
  </outline>
</glyph>
<glyph name="tcaron" format="1">
  <advance width="382"/>
  <unicode hex="0165"/>
  <outline>
    <contour>
      <point x="175" y="-103" type="move"/>
    </contour>
    <component base="t"/>
    <component base="quoteright" xOffset="241" yOffset="89"/>
  </outline>
</glyph>
<glyph name="Uogonek" format="1">
  <advance width="765"/>
  <unicode hex="0172"/>
  <outline>
    <contour>
      <point x="569" y="700" type="line"/>
      <point x="569" y="290" type="line" smooth="yes"/>
      <point x="569" y="171"/>
      <point x="498" y="101"/>
      <point x="384" y="101" type="curve" smooth="yes"/>
      <point x="269" y="101"/>
      <point x="195" y="172"/>
      <point x="195" y="290" type="curve" smooth="yes"/>
      <point x="195" y="700" type="line"/>
      <point x="78" y="700" type="line"/>
      <point x="78" y="290" type="line" smooth="yes"/>
      <point x="78" y="107"/>
      <point x="194" y="-5"/>
      <point x="383" y="-5" type="curve" smooth="yes"/>
      <point x="571" y="-5"/>
      <point x="687" y="107"/>
      <point x="687" y="290" type="curve" smooth="yes"/>
      <point x="687" y="700" type="line"/>
    </contour>
    <contour>
      <point x="430" y="14" type="line"/>
      <point x="391" y="-39"/>
      <point x="369" y="-83"/>
      <point x="369" y="-123" type="curve" smooth="yes"/>
      <point x="369" y="-178"/>
      <point x="409" y="-201"/>
      <point x="448" y="-201" type="curve" smooth="yes"/>
      <point x="485" y="-201"/>
      <point x="520" y="-180"/>
      <point x="543" y="-144" type="curve"/>
      <point x="510" y="-105" type="line"/>
      <point x="495" y="-124"/>
      <point x="479" y="-137"/>
      <point x="460" y="-137" type="curve" smooth="yes"/>
      <point x="443" y="-137"/>
      <point x="431" y="-125"/>
      <point x="431" y="-105" type="curve" smooth="yes"/>
      <point x="431" y="-80"/>
      <point x="449" y="-42"/>
      <point x="489" y="14" type="curve"/>
    </contour>
  </outline>
</glyph>
<glyph name="uogonek" format="1">
  <advance width="648"/>
  <unicode hex="0173"/>
  <outline>
    <contour>
      <point x="453" y="532" type="line"/>
      <point x="453" y="249" type="line" smooth="yes"/>
      <point x="445" y="167"/>
      <point x="392" y="106"/>
      <point x="308" y="104" type="curve" smooth="yes"/>
      <point x="231" y="104"/>
      <point x="183" y="153"/>
      <point x="183" y="233" type="curve" smooth="yes"/>
      <point x="183" y="532" type="line"/>
      <point x="69" y="532" type="line"/>
      <point x="69" y="201" type="line" smooth="yes"/>
      <point x="69" y="74"/>
      <point x="141" y="-4"/>
      <point x="263" y="-4" type="curve" smooth="yes"/>
      <point x="350" y="-3"/>
      <point x="416" y="29"/>
      <point x="453" y="99" type="curve"/>
      <point x="453" y="0" type="line"/>
      <point x="482" y="0" type="line"/>
      <point x="449" y="-47"/>
      <point x="430" y="-86"/>
      <point x="430" y="-123" type="curve" smooth="yes"/>
      <point x="430" y="-178"/>
      <point x="471" y="-201"/>
      <point x="509" y="-201" type="curve" smooth="yes"/>
      <point x="546" y="-201"/>
      <point x="581" y="-180"/>
      <point x="604" y="-144" type="curve"/>
      <point x="571" y="-105" type="line"/>
      <point x="556" y="-124"/>
      <point x="540" y="-137"/>
      <point x="522" y="-137" type="curve" smooth="yes"/>
      <point x="504" y="-137"/>
      <point x="492" y="-125"/>
      <point x="492" y="-105" type="curve" smooth="yes"/>
      <point x="492" y="-82"/>
      <point x="506" y="-48"/>
      <point x="542" y="0" type="curve"/>
      <point x="567" y="0" type="line"/>
      <point x="567" y="532" type="line"/>
    </contour>
  </outline>
</glyph>
<glyph name="florin" format="1">
  <advance width="372"/>
  <unicode hex="0192"/>
  <outline>
    <contour>
      <point x="216" y="753"/>
      <point x="142" y="687"/>
      <point x="129" y="583" type="curve" smooth="yes"/>
      <point x="56" y="-13" type="line" smooth="yes"/>
      <point x="49" y="-68"/>
      <point x="25" y="-104"/>
      <point x="-22" y="-103" type="curve" smooth="yes"/>
      <point x="-43" y="-102"/>
      <point x="-69" y="-92"/>
      <point x="-87" y="-76" type="curve"/>
      <point x="-119" y="-161" type="line"/>
      <point x="-92" y="-183"/>
      <point x="-48" y="-198"/>
      <point x="-10" y="-199" type="curve" smooth="yes"/>
      <point x="92" y="-200"/>
      <point x="155" y="-134"/>
      <point x="168" y="-30" type="curve" smooth="yes"/>
      <point x="241" y="567" type="line" smooth="yes"/>
      <point x="248" y="622"/>
      <point x="285" y="656"/>
      <point x="334" y="655" type="curve" smooth="yes"/>
      <point x="357" y="655"/>
      <point x="385" y="645"/>
      <point x="405" y="629" type="curve"/>
      <point x="446" y="714" type="line"/>
      <point x="414" y="736"/>
      <point x="364" y="751"/>
      <point x="318" y="752" type="curve" smooth="yes"/>
    </contour>
    <contour>
      <point x="45" y="464" type="line"/>
      <point x="36" y="384" type="line"/>
      <point x="359" y="384" type="line"/>
      <point x="368" y="464" type="line"/>
    </contour>
  </outline>
</glyph>
<glyph name="dotlessj" format="1">
  <advance width="274"/>
  <unicode hex="0237"/>
  <outline>
    <contour>
      <point x="84" y="532" type="line"/>
      <point x="84" y="-7" type="line"/>
      <point x="84" y="-70"/>
      <point x="59" y="-103"/>
      <point x="12" y="-102" type="curve"/>
      <point x="-14" y="-101"/>
      <point x="-39" y="-93"/>
      <point x="-62" y="-78" type="curve"/>
      <point x="-91" y="-162" type="line"/>
      <point x="-55" y="-185"/>
      <point x="-11" y="-197"/>
      <point x="36" y="-198" type="curve"/>
      <point x="138" y="-199"/>
      <point x="199" y="-136"/>
      <point x="199" y="-24" type="curve"/>
      <point x="199" y="532" type="line"/>
    </contour>
    <contour>
      <point x="137" y="532" type="move" name="top"/>
    </contour>
  </outline>
</glyph>
<glyph name="circumflex" format="1">
  <advance width="350"/>
  <unicode hex="02C6"/>
  <outline>
    <contour>
      <point x="122" y="755" type="line"/>
      <point x="19" y="614" type="line"/>
      <point x="113" y="614" type="line"/>
      <point x="175" y="702" type="line"/>
      <point x="237" y="614" type="line"/>
      <point x="331" y="614" type="line"/>
      <point x="228" y="755" type="line"/>
    </contour>
    <contour>
      <point x="175" y="535" type="move" name="_top"/>
    </contour>
  </outline>
</glyph>
<glyph name="caron" format="1">
  <advance width="350"/>
  <unicode hex="02C7"/>
  <outline>
    <contour>
      <point x="232" y="605" type="line"/>
      <point x="340" y="755" type="line"/>
      <point x="238" y="755" type="line"/>
      <point x="175" y="662" type="line"/>
      <point x="112" y="755" type="line"/>
      <point x="10" y="755" type="line"/>
      <point x="118" y="605" type="line"/>
    </contour>
    <contour>
      <point x="178" y="535" type="move" name="_top"/>
    </contour>
  </outline>
</glyph>
<glyph name="breve" format="1">
  <advance width="350"/>
  <unicode hex="02D8"/>
  <outline>
    <contour>
      <point x="238" y="749" type="line"/>
      <point x="236" y="711"/>
      <point x="210" y="684"/>
      <point x="175" y="684" type="curve" smooth="yes"/>
      <point x="140" y="684"/>
      <point x="114" y="711"/>
      <point x="112" y="749" type="curve"/>
      <point x="34" y="749" type="line"/>
      <point x="37" y="664"/>
      <point x="95" y="607"/>
      <point x="175" y="607" type="curve" smooth="yes"/>
      <point x="255" y="607"/>
      <point x="313" y="664"/>
      <point x="316" y="749" type="curve"/>
    </contour>
    <contour>
      <point x="175" y="533" type="move" name="_top"/>
    </contour>
  </outline>
</glyph>
<glyph name="dotaccent" format="1">
  <advance width="350"/>
  <unicode hex="02D9"/>
  <outline>
    <contour>
      <point x="136" y="754"/>
      <point x="108" y="725"/>
      <point x="108" y="684" type="curve" smooth="yes"/>
      <point x="108" y="644"/>
      <point x="136" y="615"/>
      <point x="175" y="615" type="curve" smooth="yes"/>
      <point x="213" y="615"/>
      <point x="241" y="644"/>
      <point x="241" y="684" type="curve" smooth="yes"/>
      <point x="241" y="725"/>
      <point x="213" y="754"/>
      <point x="175" y="754" type="curve" smooth="yes"/>
    </contour>
    <contour>
      <point x="175" y="532" type="move" name="_top"/>
    </contour>
  </outline>
</glyph>
<glyph name="ring" format="1">
  <advance width="350"/>
  <unicode hex="02DA"/>
  <outline>
    <contour>
      <point x="110" y="801"/>
      <point x="57" y="748"/>
      <point x="57" y="685" type="curve" smooth="yes"/>
      <point x="57" y="621"/>
      <point x="110" y="569"/>
      <point x="175" y="569" type="curve" smooth="yes"/>
      <point x="239" y="569"/>
      <point x="293" y="621"/>
      <point x="293" y="685" type="curve" smooth="yes"/>
      <point x="293" y="748"/>
      <point x="239" y="801"/>
      <point x="175" y="801" type="curve" smooth="yes"/>
    </contour>
    <contour>
      <point x="212" y="749"/>
      <point x="243" y="720"/>
      <point x="243" y="685" type="curve" smooth="yes"/>
      <point x="243" y="650"/>
      <point x="212" y="621"/>
      <point x="175" y="621" type="curve" smooth="yes"/>
      <point x="137" y="621"/>
      <point x="107" y="650"/>
      <point x="107" y="685" type="curve" smooth="yes"/>
      <point x="107" y="720"/>
      <point x="137" y="749"/>
      <point x="175" y="749" type="curve" smooth="yes"/>
    </contour>
    <contour>
      <point x="175" y="532" type="move" name="_top"/>
    </contour>
  </outline>
</glyph>
<glyph name="ogonek" format="1">
  <advance width="350"/>
  <unicode hex="02DB"/>
  <outline>
    <contour>
      <point x="149" y="12" type="line"/>
      <point x="111" y="-39"/>
      <point x="89" y="-83"/>
      <point x="89" y="-123" type="curve" smooth="yes"/>
      <point x="89" y="-178"/>
      <point x="129" y="-201"/>
      <point x="168" y="-201" type="curve" smooth="yes"/>
      <point x="205" y="-201"/>
      <point x="240" y="-180"/>
      <point x="263" y="-144" type="curve"/>
      <point x="230" y="-105" type="line"/>
      <point x="215" y="-124"/>
      <point x="199" y="-137"/>
      <point x="181" y="-137" type="curve" smooth="yes"/>
      <point x="164" y="-137"/>
      <point x="151" y="-125"/>
      <point x="151" y="-105" type="curve" smooth="yes"/>
      <point x="151" y="-80"/>
      <point x="168" y="-42"/>
      <point x="208" y="12" type="curve"/>
    </contour>
    <contour>
      <point x="263" y="10" type="move" name="_ogonek"/>
    </contour>
  </outline>
</glyph>
<glyph name="tilde" format="1">
  <advance width="350"/>
  <unicode hex="02DC"/>
  <outline>
    <contour>
      <point x="46" y="758"/>
      <point x="14" y="714"/>
      <point x="14" y="627" type="curve"/>
      <point x="88" y="627" type="line"/>
      <point x="88" y="659"/>
      <point x="100" y="676"/>
      <point x="125" y="676" type="curve"/>
      <point x="160" y="676"/>
      <point x="185" y="621"/>
      <point x="245" y="621" type="curve"/>
      <point x="305" y="621"/>
      <point x="336" y="665"/>
      <point x="336" y="752" type="curve"/>
      <point x="263" y="752" type="line"/>
      <point x="263" y="720"/>
      <point x="250" y="703"/>
      <point x="225" y="703" type="curve"/>
      <point x="191" y="703"/>
      <point x="161" y="758"/>
      <point x="106" y="758" type="curve"/>
    </contour>
    <contour>
      <point x="175" y="532" type="move" name="_top"/>
    </contour>
  </outline>
</glyph>
<glyph name="hungarumlaut" format="1">
  <advance width="350"/>
  <unicode hex="02DD"/>
  <outline>
    <contour>
      <point x="167" y="609" type="line"/>
      <point x="256" y="609" type="line"/>
      <point x="348" y="719" type="line"/>
      <point x="250" y="763" type="line"/>
    </contour>
    <contour>
      <point x="2" y="609" type="line"/>
      <point x="91" y="609" type="line"/>
      <point x="183" y="719" type="line"/>
      <point x="85" y="763" type="line"/>
    </contour>
    <contour>
      <point x="148" y="535" type="move" name="_top"/>
    </contour>
  </outline>
</glyph>
<glyph name="uni0326" format="1">
  <advance width="213"/>
  <unicode hex="0326"/>
  <outline>
    <contour>
      <point x="36" y="-251" type="line"/>
      <point x="95" y="-251" type="line"/>
      <point x="152" y="-165" type="line" smooth="yes"/>
      <point x="162" y="-149"/>
      <point x="169" y="-132"/>
      <point x="169" y="-113" type="curve" smooth="yes"/>
      <point x="169" y="-73"/>
      <point x="141" y="-49"/>
      <point x="108" y="-49" type="curve" smooth="yes"/>
      <point x="73" y="-49"/>
      <point x="47" y="-76"/>
      <point x="47" y="-113" type="curve" smooth="yes"/>
      <point x="47" y="-147"/>
      <point x="70" y="-177"/>
      <point x="119" y="-176" type="curve"/>
      <point x="93" y="-120" type="line"/>
    </contour>
    <contour>
      <point x="103" y="0" type="move" name="_bottom"/>
    </contour>
  </outline>
</glyph>
<glyph name="pi" format="1">
  <advance width="725"/>
  <unicode hex="03C0"/>
  <outline>
    <contour>
      <point x="163" y="532" type="line"/>
      <point x="63" y="532"/>
      <point x="-11" y="466"/>
      <point x="-10" y="380" type="curve"/>
      <point x="-9" y="338"/>
      <point x="5" y="289"/>
      <point x="27" y="253" type="curve"/>
      <point x="107" y="284" type="line"/>
      <point x="91" y="308"/>
      <point x="81" y="337"/>
      <point x="81" y="360" type="curve"/>
      <point x="80" y="409"/>
      <point x="121" y="444"/>
      <point x="177" y="444" type="curve"/>
      <point x="715" y="444" type="line"/>
      <point x="715" y="532" type="line"/>
    </contour>
    <contour>
      <point x="472" y="462" type="line"/>
      <point x="472" y="0" type="line"/>
      <point x="568" y="0" type="line"/>
      <point x="568" y="462" type="line"/>
    </contour>
    <contour>
      <point x="230" y="462" type="line"/>
      <point x="179" y="0" type="line"/>
      <point x="275" y="0" type="line"/>
      <point x="327" y="462" type="line"/>
    </contour>
  </outline>
</glyph>
<glyph name="dagger" format="1">
  <advance width="536"/>
  <unicode hex="2020"/>
  <outline>
    <contour>
      <point x="212" y="699" type="line"/>
      <point x="212" y="486" type="line"/>
      <point x="15" y="486" type="line"/>
      <point x="15" y="380" type="line"/>
      <point x="212" y="380" type="line"/>
      <point x="212" y="-190" type="line"/>
      <point x="321" y="-190" type="line"/>
      <point x="321" y="380" type="line"/>
      <point x="521" y="380" type="line"/>
      <point x="521" y="486" type="line"/>
      <point x="321" y="486" type="line"/>
      <point x="321" y="699" type="line"/>
    </contour>
  </outline>
</glyph>
<glyph name="guilsinglleft" format="1">
  <advance width="276"/>
  <unicode hex="2039"/>
  <outline>
    <contour>
      <point x="139" y="434" type="line"/>
      <point x="23" y="260" type="line"/>
      <point x="139" y="86" type="line"/>
      <point x="235" y="86" type="line"/>
      <point x="128" y="260" type="line"/>
      <point x="235" y="434" type="line"/>
    </contour>
  </outline>
</glyph>
<glyph name="fraction" format="1">
  <advance width="80"/>
  <unicode hex="2044"/>
  <outline>
    <contour>
      <point x="348" y="700" type="line"/>
      <point x="238" y="700" type="line"/>
      <point x="-277" y="0" type="line"/>
      <point x="-166" y="0" type="line"/>
    </contour>
  </outline>
</glyph>
<glyph name="Euro" format="1">
  <advance width="790"/>
  <unicode hex="20AC"/>
  <outline>
    <contour>
      <point x="288" y="703"/>
      <point x="127" y="550"/>
      <point x="127" y="351" type="curve" smooth="yes"/>
      <point x="127" y="150"/>
      <point x="286" y="-5"/>
      <point x="491" y="-5" type="curve" smooth="yes"/>
      <point x="591" y="-5"/>
      <point x="692" y="40"/>
      <point x="762" y="110" type="curve"/>
      <point x="693" y="188" type="line"/>
      <point x="639" y="137"/>
      <point x="567" y="105"/>
      <point x="497" y="105" type="curve" smooth="yes"/>
      <point x="358" y="105"/>
      <point x="247" y="214"/>
      <point x="247" y="352" type="curve" smooth="yes"/>
      <point x="247" y="490"/>
      <point x="358" y="598"/>
      <point x="497" y="598" type="curve" smooth="yes"/>
      <point x="569" y="598"/>
      <point x="641" y="564"/>
      <point x="693" y="509" type="curve"/>
      <point x="761" y="595" type="line"/>
      <point x="694" y="662"/>
      <point x="595" y="703"/>
      <point x="496" y="703" type="curve" smooth="yes"/>
    </contour>
    <component base="equal" xOffset="-4" yOffset="90" xScale="1.15" yScale="0.81"/>
  </outline>
</glyph>
<glyph name="uni2113" format="1">
  <advance width="467"/>
  <unicode hex="2113"/>
  <outline>
    <contour>
      <point x="243" y="706"/>
      <point x="175" y="643"/>
      <point x="149" y="502" type="curve" smooth="yes"/>
      <point x="107" y="240" type="line"/>
      <point x="26" y="181" type="line"/>
      <point x="46" y="125" type="line"/>
      <point x="97" y="160" type="line"/>
      <point x="97" y="60"/>
      <point x="131" y="-4"/>
      <point x="226" y="-4" type="curve" smooth="yes"/>
      <point x="300" y="-4"/>
      <point x="368" y="34"/>
      <point x="426" y="121" type="curve"/>
      <point x="386" y="169" type="line"/>
      <point x="348" y="123"/>
      <point x="306" y="84"/>
      <point x="252" y="84" type="curve" smooth="yes"/>
      <point x="194" y="84"/>
      <point x="177" y="128"/>
      <point x="192" y="219" type="curve"/>
      <point x="311" y="317"/>
      <point x="432" y="444"/>
      <point x="432" y="580" type="curve" smooth="yes"/>
      <point x="432" y="662"/>
      <point x="388" y="706"/>
      <point x="322" y="706" type="curve" smooth="yes"/>
    </contour>
    <contour>
      <point x="344" y="636"/>
      <point x="361" y="616"/>
      <point x="361" y="578" type="curve" smooth="yes"/>
      <point x="361" y="496"/>
      <point x="295" y="394"/>
      <point x="207" y="317" type="curve"/>
      <point x="240" y="512" type="line" smooth="yes"/>
      <point x="256" y="601"/>
      <point x="287" y="636"/>
      <point x="320" y="636" type="curve" smooth="yes"/>
    </contour>
  </outline>
</glyph>
<glyph name="trademark" format="1">
  <advance width="886"/>
  <unicode hex="2122"/>
  <outline>
    <contour>
      <point x="85" y="-144" type="move"/>
    </contour>
    <contour>
      <point x="736" y="700" type="line"/>
      <point x="608" y="433" type="line"/>
      <point x="480" y="700" type="line"/>
      <point x="382" y="700" type="line"/>
      <point x="382" y="280" type="line"/>
      <point x="460" y="280" type="line"/>
      <point x="460" y="577" type="line"/>
      <point x="580" y="323" type="line"/>
      <point x="636" y="323" type="line"/>
      <point x="757" y="577" type="line"/>
      <point x="757" y="280" type="line"/>
      <point x="834" y="280" type="line"/>
      <point x="834" y="700" type="line"/>
    </contour>
    <contour>
      <point x="-5" y="700" type="line"/>
      <point x="-5" y="626" type="line"/>
      <point x="117" y="626" type="line"/>
      <point x="117" y="280" type="line"/>
      <point x="202" y="280" type="line"/>
      <point x="202" y="626" type="line"/>
      <point x="325" y="626" type="line"/>
      <point x="325" y="700" type="line"/>
    </contour>
  </outline>
</glyph>
<glyph name="Omega" format="1">
  <advance width="882"/>
  <unicode hex="2126"/>
  <outline>
    <contour>
      <point x="234" y="706"/>
      <point x="82" y="564"/>
      <point x="82" y="372" type="curve" smooth="yes"/>
      <point x="82" y="271"/>
      <point x="139" y="160"/>
      <point x="219" y="100" type="curve"/>
      <point x="9" y="100" type="line"/>
      <point x="9" y="0" type="line"/>
      <point x="342" y="0" type="line"/>
      <point x="342" y="92" type="line"/>
      <point x="252" y="146"/>
      <point x="187" y="259"/>
      <point x="187" y="362" type="curve" smooth="yes"/>
      <point x="187" y="501"/>
      <point x="294" y="601"/>
      <point x="441" y="601" type="curve" smooth="yes"/>
      <point x="588" y="601"/>
      <point x="696" y="501"/>
      <point x="696" y="362" type="curve" smooth="yes"/>
      <point x="696" y="259"/>
      <point x="631" y="146"/>
      <point x="541" y="93" type="curve"/>
      <point x="541" y="0" type="line"/>
      <point x="873" y="0" type="line"/>
      <point x="873" y="100" type="line"/>
      <point x="664" y="100" type="line"/>
      <point x="744" y="160"/>
      <point x="801" y="272"/>
      <point x="801" y="372" type="curve" smooth="yes"/>
      <point x="801" y="564"/>
      <point x="648" y="706"/>
      <point x="441" y="706" type="curve" smooth="yes"/>
    </contour>
    <contour>
      <point x="20" y="700" type="move" name="topleft"/>
    </contour>
  </outline>
</glyph>
<glyph name="partialdiff" format="1">
  <advance width="615"/>
  <unicode hex="2202"/>
  <outline>
    <contour>
      <point x="197" y="705"/>
      <point x="116" y="680"/>
      <point x="56" y="642" type="curve"/>
      <point x="102" y="552" type="line"/>
      <point x="148" y="587"/>
      <point x="205" y="606"/>
      <point x="262" y="606" type="curve" smooth="yes"/>
      <point x="394" y="606"/>
      <point x="464" y="505"/>
      <point x="452" y="332" type="curve"/>
      <point x="427" y="405"/>
      <point x="360" y="453"/>
      <point x="262" y="453" type="curve" smooth="yes"/>
      <point x="124" y="453"/>
      <point x="36" y="365"/>
      <point x="36" y="229" type="curve" smooth="yes"/>
      <point x="36" y="85"/>
      <point x="134" y="-5"/>
      <point x="282" y="-5" type="curve" smooth="yes"/>
      <point x="459" y="-5"/>
      <point x="567" y="123"/>
      <point x="567" y="342" type="curve" smooth="yes"/>
      <point x="567" y="561"/>
      <point x="452" y="705"/>
      <point x="270" y="705" type="curve" smooth="yes"/>
    </contour>
    <contour>
      <point x="378" y="359"/>
      <point x="433" y="300"/>
      <point x="433" y="226" type="curve" smooth="yes"/>
      <point x="433" y="166"/>
      <point x="389" y="97"/>
      <point x="288" y="97" type="curve" smooth="yes"/>
      <point x="202" y="97"/>
      <point x="146" y="146"/>
      <point x="146" y="231" type="curve" smooth="yes"/>
      <point x="146" y="312"/>
      <point x="198" y="359"/>
      <point x="283" y="359" type="curve" smooth="yes"/>
    </contour>
  </outline>
</glyph>
<glyph name="summation" format="1">
  <advance width="611"/>
  <unicode hex="2211"/>
  <outline>
    <contour>
      <point x="40" y="743" type="line"/>
      <point x="40" y="651" type="line"/>
      <point x="326" y="306" type="line"/>
      <point x="32" y="-47" type="line"/>
      <point x="32" y="-138" type="line"/>
      <point x="607" y="-138" type="line"/>
      <point x="607" y="-32" type="line"/>
      <point x="174" y="-32" type="line"/>
      <point x="453" y="307" type="line"/>
      <point x="176" y="637" type="line"/>
      <point x="597" y="637" type="line"/>
      <point x="597" y="743" type="line"/>
    </contour>
  </outline>
</glyph>
<glyph name="infinity" format="1">
  <advance width="875"/>
  <unicode hex="221E"/>
  <outline>
    <contour>
      <point x="228" y="503" type="line"/>
      <point x="117" y="503"/>
      <point x="35" y="417"/>
      <point x="35" y="301" type="curve"/>
      <point x="35" y="186"/>
      <point x="117" y="100"/>
      <point x="228" y="100" type="curve"/>
      <point x="478" y="100"/>
      <point x="440" y="419"/>
      <point x="647" y="419" type="curve"/>
      <point x="713" y="419"/>
      <point x="761" y="370"/>
      <point x="761" y="302" type="curve"/>
      <point x="761" y="234"/>
      <point x="713" y="185"/>
      <point x="647" y="185" type="curve"/>
      <point x="440" y="185"/>
      <point x="474" y="503"/>
      <point x="228" y="503" type="curve"/>
      <point x="228" y="418" type="line"/>
      <point x="435" y="418"/>
      <point x="401" y="100"/>
      <point x="647" y="100" type="curve"/>
      <point x="758" y="100"/>
      <point x="841" y="186"/>
      <point x="841" y="302" type="curve"/>
      <point x="841" y="417"/>
      <point x="758" y="503"/>
      <point x="647" y="503" type="curve"/>
      <point x="397" y="503"/>
      <point x="435" y="184"/>
      <point x="228" y="184" type="curve"/>
      <point x="163" y="184"/>
      <point x="115" y="233"/>
      <point x="115" y="301" type="curve"/>
      <point x="115" y="369"/>
      <point x="163" y="418"/>
      <point x="228" y="418" type="curve"/>
    </contour>
  </outline>
</glyph>
<glyph name="integral" format="1">
  <advance width="342"/>
  <unicode hex="222B"/>
  <outline>
    <contour>
      <point x="346" y="823" type="line"/>
      <point x="317" y="836"/>
      <point x="295" y="842"/>
      <point x="269" y="842" type="curve" smooth="yes"/>
      <point x="161" y="842"/>
      <point x="119" y="781"/>
      <point x="119" y="624" type="curve" smooth="yes"/>
      <point x="119" y="504"/>
      <point x="142" y="211"/>
      <point x="142" y="82" type="curve" smooth="yes"/>
      <point x="142" y="-8"/>
      <point x="120" y="-43"/>
      <point x="64" y="-43" type="curve" smooth="yes"/>
      <point x="44" y="-43"/>
      <point x="29" y="-38"/>
      <point x="7" y="-27" type="curve"/>
      <point x="-8" y="-107" type="line"/>
      <point x="18" y="-122"/>
      <point x="42" y="-128"/>
      <point x="77" y="-128" type="curve" smooth="yes"/>
      <point x="186" y="-128"/>
      <point x="228" y="-67"/>
      <point x="228" y="90" type="curve" smooth="yes"/>
      <point x="228" y="219"/>
      <point x="206" y="516"/>
      <point x="206" y="634" type="curve" smooth="yes"/>
      <point x="206" y="722"/>
      <point x="227" y="754"/>
      <point x="282" y="754" type="curve" smooth="yes"/>
      <point x="299" y="754"/>
      <point x="314" y="751"/>
      <point x="332" y="743" type="curve"/>
    </contour>
  </outline>
</glyph>
<glyph name="approxequal" format="1">
  <advance width="498"/>
  <unicode hex="2248"/>
  <outline>
    <contour>
      <point x="99" y="291"/>
      <point x="66" y="244"/>
      <point x="66" y="151" type="curve"/>
      <point x="146" y="151" type="line"/>
      <point x="146" y="184"/>
      <point x="159" y="201"/>
      <point x="184" y="201" type="curve"/>
      <point x="226" y="201"/>
      <point x="268" y="144"/>
      <point x="336" y="144" type="curve"/>
      <point x="400" y="144"/>
      <point x="432" y="191"/>
      <point x="432" y="284" type="curve"/>
      <point x="353" y="284" type="line"/>
      <point x="353" y="251"/>
      <point x="340" y="234"/>
      <point x="314" y="234" type="curve"/>
      <point x="274" y="234"/>
      <point x="226" y="291"/>
      <point x="163" y="291" type="curve"/>
    </contour>
    <contour>
      <point x="99" y="511"/>
      <point x="66" y="464"/>
      <point x="66" y="371" type="curve"/>
      <point x="146" y="371" type="line"/>
      <point x="146" y="404"/>
      <point x="159" y="422"/>
      <point x="184" y="422" type="curve"/>
      <point x="226" y="422"/>
      <point x="268" y="365"/>
      <point x="336" y="365" type="curve"/>
      <point x="400" y="365"/>
      <point x="432" y="412"/>
      <point x="432" y="505" type="curve"/>
      <point x="353" y="505" type="line"/>
      <point x="353" y="472"/>
      <point x="340" y="454"/>
      <point x="314" y="454" type="curve"/>
      <point x="274" y="454"/>
      <point x="226" y="511"/>
      <point x="163" y="511" type="curve"/>
    </contour>
  </outline>
</glyph>
<glyph name="notequal" format="1">
  <advance width="498"/>
  <unicode hex="2260"/>
  <outline>
    <contour>
      <point x="35" y="469" type="line"/>
      <point x="35" y="390" type="line"/>
      <point x="463" y="390" type="line"/>
      <point x="463" y="469" type="line"/>
    </contour>
    <contour>
      <point x="35" y="259" type="line"/>
      <point x="35" y="180" type="line"/>
      <point x="463" y="180" type="line"/>
      <point x="463" y="259" type="line"/>
    </contour>
    <contour>
      <point x="291" y="613" type="line"/>
      <point x="107" y="31" type="line"/>
      <point x="195" y="31" type="line"/>
      <point x="378" y="613" type="line"/>
    </contour>
  </outline>
</glyph>
<glyph name="lozenge" format="1">
  <advance width="536"/>
  <unicode hex="25CA"/>
  <outline>
    <contour>
      <point x="35" y="330" type="line"/>
      <point x="267" y="-18" type="line"/>
      <point x="501" y="330" type="line"/>
      <point x="268" y="676" type="line"/>
    </contour>
    <contour>
      <point x="395" y="330" type="line"/>
      <point x="267" y="145" type="line"/>
      <point x="141" y="330" type="line"/>
      <point x="268" y="515" type="line"/>
    </contour>
  </outline>
</glyph>
<glyph name="fi" format="1">
  <advance width="627"/>
  <unicode hex="FB01"/>
  <outline>
    <contour>
      <point x="201" y="747"/>
      <point x="107" y="691"/>
      <point x="107" y="564" type="curve"/>
      <point x="107" y="0" type="line"/>
      <point x="221" y="0" type="line"/>
      <point x="221" y="575" type="line"/>
      <point x="221" y="627"/>
      <point x="252" y="646"/>
      <point x="293" y="646" type="curve"/>
      <point x="321" y="646"/>
      <point x="354" y="637"/>
      <point x="385" y="623" type="curve"/>
      <point x="389" y="723" type="line"/>
      <point x="361" y="739"/>
      <point x="326" y="747"/>
      <point x="290" y="747" type="curve"/>
    </contour>
    <contour>
      <point x="37" y="513" type="line"/>
      <point x="37" y="427" type="line"/>
      <point x="360" y="427" type="line"/>
      <point x="360" y="513" type="line"/>
    </contour>
    <component base="i" xOffset="343"/>
  </outline>
</glyph>
<glyph name="fl" format="1">
  <advance width="651"/>
  <unicode hex="FB02"/>
  <outline>
    <contour>
      <point x="183" y="753"/>
      <point x="107" y="681"/>
      <point x="107" y="578" type="curve"/>
      <point x="107" y="0" type="line"/>
      <point x="221" y="0" type="line"/>
      <point x="221" y="561" type="line"/>
      <point x="221" y="617"/>
      <point x="260" y="656"/>
      <point x="313" y="655" type="curve"/>
      <point x="338" y="655"/>
      <point x="365" y="646"/>
      <point x="387" y="629" type="curve"/>
      <point x="390" y="729" type="line"/>
      <point x="364" y="743"/>
      <point x="326" y="751"/>
      <point x="291" y="752" type="curve"/>
    </contour>
    <contour>
      <point x="38" y="513" type="line"/>
      <point x="37" y="428" type="line"/>
      <point x="360" y="428" type="line"/>
      <point x="361" y="513" type="line"/>
    </contour>
    <component base="l" xOffset="356"/>
  </outline>
</glyph>
<glyph name="A.ss01" format="1">
  <advance width="767"/>
  <outline>
    <contour>
      <point x="194" y="704"/>
      <point x="78" y="591"/>
      <point x="78" y="409" type="curve" smooth="yes"/>
      <point x="78" y="0" type="line"/>
      <point x="196" y="0" type="line"/>
      <point x="196" y="187" type="line"/>
      <point x="572" y="187" type="line"/>
      <point x="572" y="0" type="line"/>
      <point x="690" y="0" type="line"/>
      <point x="690" y="409" type="line" smooth="yes"/>
      <point x="690" y="591"/>
      <point x="573" y="704"/>
      <point x="383" y="704" type="curve" smooth="yes"/>
    </contour>
    <contour>
      <point x="500" y="598"/>
      <point x="571" y="526"/>
      <point x="571" y="409" type="curve" smooth="yes"/>
      <point x="572" y="292" type="line"/>
      <point x="195" y="292" type="line"/>
      <point x="195" y="409" type="line" smooth="yes"/>
      <point x="195" y="526"/>
      <point x="266" y="598"/>
      <point x="383" y="598" type="curve" smooth="yes"/>
    </contour>
    <contour>
      <point x="727" y="10" type="move" name="ogonek"/>
    </contour>
    <contour>
      <point x="383" y="700" type="move" name="top"/>
    </contour>
  </outline>
</glyph>
<glyph name="Aogonek.ss01" format="1">
  <advance width="774"/>
  <outline>
    <contour>
      <point x="194" y="704"/>
      <point x="78" y="591"/>
      <point x="78" y="409" type="curve" smooth="yes"/>
      <point x="78" y="0" type="line"/>
      <point x="196" y="0" type="line"/>
      <point x="196" y="187" type="line"/>
      <point x="572" y="187" type="line"/>
      <point x="572" y="0" type="line"/>
      <point x="607" y="0" type="line"/>
      <point x="574" y="-47"/>
      <point x="555" y="-86"/>
      <point x="555" y="-123" type="curve" smooth="yes"/>
      <point x="555" y="-178"/>
      <point x="595" y="-201"/>
      <point x="634" y="-201" type="curve" smooth="yes"/>
      <point x="671" y="-201"/>
      <point x="706" y="-180"/>
      <point x="729" y="-144" type="curve"/>
      <point x="696" y="-105" type="line"/>
      <point x="681" y="-124"/>
      <point x="665" y="-137"/>
      <point x="646" y="-137" type="curve" smooth="yes"/>
      <point x="629" y="-137"/>
      <point x="617" y="-125"/>
      <point x="617" y="-105" type="curve" smooth="yes"/>
      <point x="617" y="-82"/>
      <point x="632" y="-48"/>
      <point x="666" y="0" type="curve"/>
      <point x="690" y="0" type="line"/>
      <point x="690" y="409" type="line" smooth="yes"/>
      <point x="690" y="591"/>
      <point x="573" y="704"/>
      <point x="383" y="704" type="curve" smooth="yes"/>
    </contour>
    <contour>
      <point x="500" y="598"/>
      <point x="571" y="526"/>
      <point x="571" y="409" type="curve" smooth="yes"/>
      <point x="571" y="292" type="line"/>
      <point x="195" y="292" type="line"/>
      <point x="195" y="409" type="line" smooth="yes"/>
      <point x="195" y="526"/>
      <point x="266" y="598"/>
      <point x="383" y="598" type="curve" smooth="yes"/>
    </contour>
  </outline>
</glyph>
<glyph name="E.ss01" format="1">
  <advance width="583"/>
  <outline>
    <contour>
      <point x="181" y="705"/>
      <point x="79" y="631"/>
      <point x="79" y="526" type="curve" smooth="yes"/>
      <point x="79" y="451"/>
      <point x="130" y="389"/>
      <point x="202" y="370" type="curve"/>
      <point x="106" y="348"/>
      <point x="44" y="274"/>
      <point x="44" y="190" type="curve" smooth="yes"/>
      <point x="44" y="75"/>
      <point x="159" y="-5"/>
      <point x="317" y="-5" type="curve" smooth="yes"/>
      <point x="407" y="-5"/>
      <point x="507" y="22"/>
      <point x="565" y="58" type="curve"/>
      <point x="519" y="150" type="line"/>
      <point x="476" y="125"/>
      <point x="391" y="99"/>
      <point x="322" y="99" type="curve" smooth="yes"/>
      <point x="234" y="99"/>
      <point x="165" y="138"/>
      <point x="165" y="203" type="curve" smooth="yes"/>
      <point x="165" y="265"/>
      <point x="230" y="311"/>
      <point x="321" y="311" type="curve" smooth="yes"/>
      <point x="463" y="311" type="line"/>
      <point x="463" y="416" type="line"/>
      <point x="321" y="416" type="line" smooth="yes"/>
      <point x="243" y="416"/>
      <point x="190" y="458"/>
      <point x="190" y="512" type="curve" smooth="yes"/>
      <point x="190" y="571"/>
      <point x="252" y="601"/>
      <point x="335" y="601" type="curve" smooth="yes"/>
      <point x="387" y="601"/>
      <point x="451" y="588"/>
      <point x="498" y="567" type="curve"/>
      <point x="537" y="660" type="line"/>
      <point x="487" y="687"/>
      <point x="399" y="705"/>
      <point x="329" y="705" type="curve" smooth="yes"/>
    </contour>
    <contour>
      <point x="525" y="10" type="move" name="ogonek"/>
    </contour>
    <contour>
      <point x="292" y="0" type="move" name="bottom"/>
    </contour>
    <contour>
      <point x="292" y="700" type="move" name="top"/>
    </contour>
  </outline>
</glyph>
<glyph name="Eogonek.ss01" format="1">
  <advance width="583"/>
  <outline>
    <contour>
      <point x="181" y="705"/>
      <point x="79" y="631"/>
      <point x="79" y="526" type="curve" smooth="yes"/>
      <point x="79" y="451"/>
      <point x="130" y="389"/>
      <point x="202" y="370" type="curve"/>
      <point x="106" y="348"/>
      <point x="44" y="274"/>
      <point x="44" y="190" type="curve" smooth="yes"/>
      <point x="44" y="75"/>
      <point x="159" y="-5"/>
      <point x="317" y="-5" type="curve" smooth="yes"/>
      <point x="407" y="-5"/>
      <point x="507" y="22"/>
      <point x="565" y="58" type="curve"/>
      <point x="519" y="150" type="line"/>
      <point x="476" y="125"/>
      <point x="391" y="99"/>
      <point x="322" y="99" type="curve" smooth="yes"/>
      <point x="234" y="99"/>
      <point x="165" y="138"/>
      <point x="165" y="203" type="curve" smooth="yes"/>
      <point x="165" y="265"/>
      <point x="230" y="311"/>
      <point x="321" y="311" type="curve" smooth="yes"/>
      <point x="463" y="311" type="line"/>
      <point x="463" y="416" type="line"/>
      <point x="321" y="416" type="line" smooth="yes"/>
      <point x="243" y="416"/>
      <point x="190" y="458"/>
      <point x="190" y="512" type="curve" smooth="yes"/>
      <point x="190" y="571"/>
      <point x="252" y="601"/>
      <point x="335" y="601" type="curve" smooth="yes"/>
      <point x="387" y="601"/>
      <point x="451" y="588"/>
      <point x="498" y="567" type="curve"/>
      <point x="537" y="660" type="line"/>
      <point x="487" y="687"/>
      <point x="399" y="705"/>
      <point x="329" y="705" type="curve" smooth="yes"/>
    </contour>
    <contour>
      <point x="412" y="14" type="line"/>
      <point x="373" y="-38"/>
      <point x="351" y="-82"/>
      <point x="351" y="-123" type="curve" smooth="yes"/>
      <point x="351" y="-178"/>
      <point x="391" y="-201"/>
      <point x="430" y="-201" type="curve" smooth="yes"/>
      <point x="466" y="-201"/>
      <point x="502" y="-180"/>
      <point x="525" y="-144" type="curve"/>
      <point x="492" y="-105" type="line"/>
      <point x="477" y="-124"/>
      <point x="460" y="-137"/>
      <point x="442" y="-137" type="curve" smooth="yes"/>
      <point x="425" y="-137"/>
      <point x="412" y="-125"/>
      <point x="412" y="-105" type="curve" smooth="yes"/>
      <point x="412" y="-74"/>
      <point x="437" y="-28"/>
      <point x="491" y="39" type="curve"/>
    </contour>
  </outline>
</glyph>
<glyph name="F.ss01" format="1">
  <advance width="532"/>
  <outline>
    <contour>
      <point x="196" y="0" type="line"/>
      <point x="196" y="476" type="line" smooth="yes"/>
      <point x="196" y="550"/>
      <point x="245" y="599"/>
      <point x="321" y="599" type="curve" smooth="yes"/>
      <point x="375" y="599"/>
      <point x="447" y="581"/>
      <point x="500" y="556" type="curve"/>
      <point x="528" y="661" type="line"/>
      <point x="472" y="687"/>
      <point x="389" y="705"/>
      <point x="311" y="705" type="curve" smooth="yes"/>
      <point x="169" y="705"/>
      <point x="78" y="616"/>
      <point x="78" y="478" type="curve" smooth="yes"/>
      <point x="78" y="0" type="line"/>
    </contour>
    <contour>
      <point x="107" y="377" type="line"/>
      <point x="107" y="272" type="line" smooth="yes"/>
      <point x="469" y="272" type="line"/>
      <point x="469" y="377" type="line"/>
    </contour>
  </outline>
</glyph>
<glyph name="G.ss01" format="1">
  <advance width="750"/>
  <outline>
    <contour>
      <point x="197" y="703"/>
      <point x="34" y="550"/>
      <point x="34" y="350" type="curve" smooth="yes"/>
      <point x="34" y="150"/>
      <point x="190" y="-5"/>
      <point x="391" y="-5" type="curve" smooth="yes"/>
      <point x="490" y="-5"/>
      <point x="589" y="51"/>
      <point x="647" y="130" type="curve"/>
      <point x="589" y="198" type="line"/>
      <point x="548" y="139"/>
      <point x="478" y="101"/>
      <point x="403" y="101" type="curve" smooth="yes"/>
      <point x="264" y="101"/>
      <point x="154" y="210"/>
      <point x="154" y="350" type="curve" smooth="yes"/>
      <point x="154" y="489"/>
      <point x="267" y="598"/>
      <point x="409" y="598" type="curve" smooth="yes"/>
      <point x="483" y="598"/>
      <point x="557" y="568"/>
      <point x="611" y="518" type="curve"/>
      <point x="679" y="605" type="line"/>
      <point x="609" y="665"/>
      <point x="508" y="703"/>
      <point x="408" y="703" type="curve" smooth="yes"/>
    </contour>
    <contour>
      <point x="571" y="356" type="line"/>
      <point x="571" y="105" type="line"/>
      <point x="585" y="91" type="line"/>
      <point x="585" y="0" type="line"/>
      <point x="674" y="0" type="line"/>
      <point x="674" y="356" type="line"/>
    </contour>
    <contour>
      <point x="376" y="700" type="move" name="top"/>
    </contour>
    <contour>
      <point x="376" y="0" type="move" name="bottom"/>
    </contour>
  </outline>
</glyph>
<glyph name="I.ss01" format="1">
  <advance width="484"/>
  <outline>
    <contour>
      <point x="51" y="594" type="line"/>
      <point x="433" y="594" type="line"/>
      <point x="433" y="700" type="line"/>
      <point x="51" y="700" type="line"/>
    </contour>
    <contour>
      <point x="51" y="0" type="line"/>
      <point x="433" y="0" type="line"/>
      <point x="433" y="106" type="line"/>
      <point x="51" y="106" type="line"/>
    </contour>
    <contour>
      <point x="183" y="700" type="line"/>
      <point x="183" y="0" type="line"/>
      <point x="301" y="0" type="line"/>
      <point x="301" y="700" type="line"/>
    </contour>
    <contour>
      <point x="435" y="10" type="move" name="ogonek"/>
    </contour>
    <contour>
      <point x="242" y="700" type="move" name="top"/>
    </contour>
  </outline>
</glyph>
<glyph name="J.ss01" format="1">
  <advance width="499"/>
  <outline>
    <contour>
      <point x="61" y="700" type="line"/>
      <point x="61" y="594" type="line"/>
      <point x="303" y="594" type="line"/>
      <point x="303" y="120" type="line" smooth="yes"/>
      <point x="303" y="48"/>
      <point x="266" y="9"/>
      <point x="203" y="9" type="curve" smooth="yes"/>
      <point x="155" y="9"/>
      <point x="100" y="36"/>
      <point x="54" y="86" type="curve"/>
      <point x="-2" y="-4" type="line"/>
      <point x="50" y="-68"/>
      <point x="120" y="-105"/>
      <point x="203" y="-105" type="curve" smooth="yes"/>
      <point x="339" y="-105"/>
      <point x="422" y="-25"/>
      <point x="422" y="116" type="curve" smooth="yes"/>
      <point x="422" y="700" type="line"/>
    </contour>
    <contour>
      <point x="255" y="700" type="move" name="top"/>
    </contour>
  </outline>
</glyph>
<glyph name="M.ss01" format="1">
  <advance width="1196"/>
  <outline>
    <contour>
      <point x="267" y="698"/>
      <point x="157" y="579"/>
      <point x="157" y="406" type="curve"/>
      <point x="209" y="376" type="line"/>
      <point x="209" y="492"/>
      <point x="285" y="584"/>
      <point x="391" y="586" type="curve" smooth="yes"/>
      <point x="482" y="586"/>
      <point x="544" y="516"/>
      <point x="544" y="416" type="curve" smooth="yes"/>
      <point x="544" y="0" type="line"/>
      <point x="663" y="0" type="line"/>
      <point x="663" y="444" type="line" smooth="yes"/>
      <point x="663" y="596"/>
      <point x="567" y="700"/>
      <point x="433" y="700" type="curve" smooth="yes"/>
    </contour>
    <contour>
      <point x="722" y="698"/>
      <point x="612" y="579"/>
      <point x="612" y="406" type="curve"/>
      <point x="664" y="376" type="line"/>
      <point x="664" y="492"/>
      <point x="740" y="584"/>
      <point x="846" y="586" type="curve" smooth="yes"/>
      <point x="937" y="586"/>
      <point x="999" y="516"/>
      <point x="999" y="416" type="curve" smooth="yes"/>
      <point x="999" y="0" type="line"/>
      <point x="1118" y="0" type="line"/>
      <point x="1118" y="444" type="line" smooth="yes"/>
      <point x="1118" y="596"/>
      <point x="1021" y="700"/>
      <point x="887" y="700" type="curve" smooth="yes"/>
    </contour>
    <contour>
      <point x="92" y="699.995" type="line"/>
      <point x="92" y="0" type="line"/>
      <point x="210" y="0" type="line"/>
      <point x="210" y="700" type="line"/>
    </contour>
    <contour>
      <point x="249" y="10" type="move" name="ogonek"/>
    </contour>
    <contour>
      <point x="151" y="700" type="move" name="top"/>
    </contour>
  </outline>
</glyph>
<glyph name="N.ss01" format="1">
  <advance width="770"/>
  <outline>
    <contour>
      <point x="274" y="698"/>
      <point x="156" y="579"/>
      <point x="156" y="406" type="curve"/>
      <point x="209" y="376" type="line"/>
      <point x="209" y="492"/>
      <point x="291" y="584"/>
      <point x="407" y="586" type="curve" smooth="yes"/>
      <point x="505" y="586"/>
      <point x="572" y="517"/>
      <point x="572" y="416" type="curve" smooth="yes"/>
      <point x="572" y="0" type="line"/>
      <point x="692" y="0" type="line"/>
      <point x="692" y="444" type="line" smooth="yes"/>
      <point x="692" y="596"/>
      <point x="590" y="700"/>
      <point x="448" y="700" type="curve" smooth="yes"/>
    </contour>
    <contour>
      <point x="92" y="699.995" type="line"/>
      <point x="92" y="0" type="line"/>
      <point x="210" y="0" type="line"/>
      <point x="210" y="700" type="line"/>
    </contour>
    <contour>
      <point x="249" y="10" type="move" name="ogonek"/>
    </contour>
    <contour>
      <point x="385" y="0" type="move" name="bottom"/>
    </contour>
    <contour>
      <point x="385" y="700" type="move" name="top"/>
    </contour>
  </outline>
</glyph>
<glyph name="T.ss01" format="1">
  <advance width="653"/>
  <outline>
    <contour>
      <point x="218" y="705"/>
      <point x="113" y="679"/>
      <point x="27" y="632" type="curve"/>
      <point x="68" y="529" type="line"/>
      <point x="142" y="569"/>
      <point x="233" y="592"/>
      <point x="323" y="592" type="curve" smooth="yes"/>
      <point x="414" y="592"/>
      <point x="504" y="569"/>
      <point x="580" y="529" type="curve"/>
      <point x="621" y="631" type="line"/>
      <point x="533" y="679"/>
      <point x="429" y="705"/>
      <point x="323" y="705" type="curve" smooth="yes"/>
    </contour>
    <contour>
      <point x="265" y="644" type="line"/>
      <point x="265" y="0" type="line"/>
      <point x="383" y="0" type="line"/>
      <point x="383" y="644" type="line"/>
    </contour>
    <contour>
      <point x="327" y="350" type="move" name="center"/>
    </contour>
    <contour>
      <point x="313" y="0" type="move" name="bottom"/>
    </contour>
    <contour>
      <point x="327" y="700" type="move" name="top"/>
    </contour>
  </outline>
</glyph>
<glyph name="W.ss01" format="1">
  <advance width="1180"/>
  <outline>
    <contour>
      <point x="985" y="700" type="line"/>
      <point x="985" y="260" type="line" smooth="yes"/>
      <point x="985" y="165"/>
      <point x="920" y="101"/>
      <point x="820" y="101" type="curve" smooth="yes"/>
      <point x="720" y="101"/>
      <point x="650" y="165"/>
      <point x="650" y="260" type="curve" smooth="yes"/>
      <point x="650" y="700" type="line"/>
      <point x="532" y="700" type="line"/>
      <point x="532" y="260" type="line" smooth="yes"/>
      <point x="531" y="165"/>
      <point x="464" y="101"/>
      <point x="362" y="101" type="curve" smooth="yes"/>
      <point x="263" y="101"/>
      <point x="196" y="165"/>
      <point x="196" y="260" type="curve" smooth="yes"/>
      <point x="196" y="700" type="line"/>
      <point x="78" y="700" type="line"/>
      <point x="78" y="260" type="line" smooth="yes"/>
      <point x="78" y="103"/>
      <point x="187" y="-5"/>
      <point x="345" y="-5" type="curve" smooth="yes"/>
      <point x="458" y="-5"/>
      <point x="554" y="51"/>
      <point x="591" y="132" type="curve"/>
      <point x="629" y="51"/>
      <point x="724" y="-5"/>
      <point x="837" y="-5" type="curve" smooth="yes"/>
      <point x="994" y="-5"/>
      <point x="1102" y="103"/>
      <point x="1102" y="260" type="curve" smooth="yes"/>
      <point x="1102" y="700" type="line"/>
    </contour>
    <contour>
      <point x="590" y="700" type="move" name="top"/>
    </contour>
  </outline>
</glyph>
<glyph name="Y.ss01" format="1">
  <advance width="739"/>
  <outline>
    <contour>
      <point x="492" y="158"/>
      <point x="597" y="280"/>
      <point x="597" y="459" type="curve"/>
      <point x="546" y="476" type="line"/>
      <point x="546" y="353"/>
      <point x="469" y="266"/>
      <point x="362" y="265" type="curve" smooth="yes"/>
      <point x="264" y="265"/>
      <point x="196" y="333"/>
      <point x="196" y="429" type="curve" smooth="yes"/>
      <point x="196" y="700" type="line"/>
      <point x="78" y="700" type="line"/>
      <point x="78" y="418" type="line" smooth="yes"/>
      <point x="78" y="263"/>
      <point x="185" y="156"/>
      <point x="338" y="156" type="curve" smooth="yes"/>
    </contour>
    <contour>
      <point x="545" y="700" type="line"/>
      <point x="545" y="174" type="line" smooth="yes"/>
      <point x="545" y="73"/>
      <point x="466" y="1"/>
      <point x="354" y="1" type="curve"/>
      <point x="277" y="1"/>
      <point x="190" y="39"/>
      <point x="141" y="92" type="curve"/>
      <point x="84" y="8" type="line"/>
      <point x="144" y="-59"/>
      <point x="259" y="-105"/>
      <point x="368" y="-105" type="curve" smooth="yes"/>
      <point x="542" y="-105"/>
      <point x="662" y="7"/>
      <point x="662" y="172" type="curve" smooth="yes"/>
      <point x="662" y="700" type="line"/>
    </contour>
    <contour>
      <point x="370" y="700" type="move" name="top"/>
    </contour>
  </outline>
</glyph>
<glyph name="Z.ss01" format="1">
  <advance width="666"/>
  <outline>
    <contour>
      <point x="323" y="393" type="line"/>
      <point x="323" y="299" type="line"/>
      <point x="546" y="299" type="line"/>
      <point x="546" y="393" type="line"/>
    </contour>
    <contour>
      <point x="107" y="397" type="line"/>
      <point x="107" y="302" type="line"/>
      <point x="327" y="302" type="line"/>
      <point x="327" y="397" type="line"/>
    </contour>
    <contour>
      <point x="50" y="700" type="line"/>
      <point x="50" y="594" type="line"/>
      <point x="464" y="594" type="line"/>
      <point x="37" y="85" type="line"/>
      <point x="37" y="0" type="line"/>
      <point x="628" y="0" type="line"/>
      <point x="628" y="106" type="line"/>
      <point x="197" y="106" type="line"/>
      <point x="623" y="615" type="line"/>
      <point x="623" y="700" type="line"/>
    </contour>
    <contour>
      <point x="333" y="700" type="move" name="top"/>
    </contour>
  </outline>
</glyph>
<glyph name="a.ss01" format="1">
  <advance width="675"/>
  <outline>
    <contour>
      <point x="476" y="532" type="line"/>
      <point x="476" y="0" type="line"/>
      <point x="590" y="0" type="line"/>
      <point x="590" y="532" type="line"/>
    </contour>
    <contour>
      <point x="136" y="536"/>
      <point x="35" y="427"/>
      <point x="35" y="268" type="curve" smooth="yes"/>
      <point x="35" y="106"/>
      <point x="137" y="-5"/>
      <point x="290" y="-5" type="curve" smooth="yes"/>
      <point x="436" y="-5"/>
      <point x="520" y="97"/>
      <point x="519" y="267" type="curve"/>
      <point x="520" y="436"/>
      <point x="434" y="538"/>
      <point x="286" y="537" type="curve" smooth="yes"/>
    </contour>
    <contour>
      <point x="410" y="439"/>
      <point x="476" y="367"/>
      <point x="477" y="264" type="curve" smooth="yes"/>
      <point x="476" y="163"/>
      <point x="410" y="91"/>
      <point x="314" y="91" type="curve" smooth="yes"/>
      <point x="217" y="91"/>
      <point x="151" y="163"/>
      <point x="150" y="264" type="curve" smooth="yes"/>
      <point x="151" y="366"/>
      <point x="218" y="439"/>
      <point x="314" y="439" type="curve" smooth="yes"/>
    </contour>
    <contour>
      <point x="627" y="10" type="move" name="ogonek"/>
    </contour>
    <contour>
      <point x="333" y="532" type="move" name="top"/>
    </contour>
  </outline>
</glyph>
<glyph name="ae.ss01" format="1">
  <advance width="967"/>
  <outline>
    <contour>
      <point x="552" y="124" type="move"/>
    </contour>
    <contour>
      <point x="241" y="320" type="line" smooth="yes"/>
      <point x="114" y="319"/>
      <point x="41" y="257"/>
      <point x="41" y="160" type="curve" smooth="yes"/>
      <point x="41" y="66"/>
      <point x="113" y="-5"/>
      <point x="228" y="-5" type="curve" smooth="yes"/>
      <point x="344" y="-5"/>
      <point x="429" y="45"/>
      <point x="470" y="144" type="curve"/>
      <point x="405" y="196" type="line"/>
      <point x="403" y="133"/>
      <point x="337" y="86"/>
      <point x="252" y="86" type="curve" smooth="yes"/>
      <point x="188" y="86"/>
      <point x="149" y="117"/>
      <point x="149" y="165" type="curve" smooth="yes"/>
      <point x="149" y="216"/>
      <point x="184" y="236"/>
      <point x="259" y="236" type="curve" smooth="yes"/>
      <point x="418" y="236" type="line"/>
      <point x="418" y="320" type="line"/>
    </contour>
    <contour>
      <point x="119" y="389" type="line"/>
      <point x="172" y="425"/>
      <point x="225" y="443"/>
      <point x="275" y="443" type="curve" smooth="yes"/>
      <point x="360" y="443"/>
      <point x="402" y="403"/>
      <point x="403" y="335" type="curve"/>
      <point x="404" y="151" type="line"/>
      <point x="517" y="148" type="line"/>
      <point x="516" y="349" type="line" smooth="yes"/>
      <point x="515" y="466"/>
      <point x="438" y="536"/>
      <point x="301" y="536" type="curve" smooth="yes"/>
      <point x="199" y="536"/>
      <point x="146" y="513"/>
      <point x="72" y="469" type="curve"/>
    </contour>
    <contour>
      <point x="812" y="115"/>
      <point x="759" y="88"/>
      <point x="700" y="88" type="curve" smooth="yes"/>
      <point x="600" y="88"/>
      <point x="530" y="162"/>
      <point x="530" y="272" type="curve" smooth="yes"/>
      <point x="530" y="383"/>
      <point x="592" y="443"/>
      <point x="689" y="443" type="curve" smooth="yes"/>
      <point x="753" y="443"/>
      <point x="798" y="418"/>
      <point x="823" y="358" type="curve"/>
      <point x="509" y="264" type="line"/>
      <point x="513" y="177" type="line"/>
      <point x="934" y="304" type="line"/>
      <point x="925" y="449"/>
      <point x="828" y="538"/>
      <point x="683" y="536" type="curve" smooth="yes"/>
      <point x="519" y="534"/>
      <point x="416" y="422"/>
      <point x="416" y="267" type="curve" smooth="yes"/>
      <point x="416" y="105"/>
      <point x="528" y="-4"/>
      <point x="692" y="-4" type="curve" smooth="yes"/>
      <point x="785" y="-4"/>
      <point x="863" y="31"/>
      <point x="923" y="104" type="curve"/>
      <point x="856" y="165" type="line"/>
    </contour>
    <contour>
      <point x="477" y="532" type="move" name="top"/>
    </contour>
  </outline>
</glyph>
<glyph name="bp.util" format="1">
  <advance width="554"/>
  <outline>
    <contour>
      <point x="122" y="536"/>
      <point x="36" y="436"/>
      <point x="37" y="264" type="curve"/>
      <point x="36" y="97"/>
      <point x="121" y="-4"/>
      <point x="267" y="-4" type="curve" smooth="yes"/>
      <point x="419" y="-4"/>
      <point x="519" y="105"/>
      <point x="519" y="264" type="curve" smooth="yes"/>
      <point x="519" y="426"/>
      <point x="416" y="536"/>
      <point x="265" y="536" type="curve" smooth="yes"/>
    </contour>
    <contour>
      <point x="336" y="440"/>
      <point x="403" y="367"/>
      <point x="403" y="268" type="curve" smooth="yes"/>
      <point x="403" y="166"/>
      <point x="336" y="94"/>
      <point x="241" y="94" type="curve" smooth="yes"/>
      <point x="146" y="94"/>
      <point x="79" y="165"/>
      <point x="79" y="268" type="curve" smooth="yes"/>
      <point x="79" y="368"/>
      <point x="146" y="440"/>
      <point x="241" y="440" type="curve" smooth="yes"/>
    </contour>
  </outline>
</glyph>
<glyph name="dq.util" format="1">
  <advance width="557"/>
  <outline>
    <contour>
      <point x="136" y="536"/>
      <point x="35" y="427"/>
      <point x="35" y="268" type="curve" smooth="yes"/>
      <point x="35" y="106"/>
      <point x="137" y="-5"/>
      <point x="290" y="-5" type="curve" smooth="yes"/>
      <point x="436" y="-5"/>
      <point x="520" y="97"/>
      <point x="519" y="267" type="curve"/>
      <point x="520" y="436"/>
      <point x="434" y="538"/>
      <point x="286" y="537" type="curve" smooth="yes"/>
    </contour>
    <contour>
      <point x="410" y="439"/>
      <point x="476" y="367"/>
      <point x="477" y="264" type="curve" smooth="yes"/>
      <point x="476" y="163"/>
      <point x="410" y="91"/>
      <point x="314" y="91" type="curve" smooth="yes"/>
      <point x="217" y="91"/>
      <point x="151" y="163"/>
      <point x="150" y="264" type="curve" smooth="yes"/>
      <point x="151" y="366"/>
      <point x="218" y="439"/>
      <point x="314" y="439" type="curve" smooth="yes"/>
    </contour>
  </outline>
</glyph>
<glyph name="e.ss01" format="1">
  <advance width="598"/>
  <outline>
    <contour>
      <point x="133" y="178" type="line"/>
      <point x="553" y="304" type="line"/>
      <point x="544" y="449"/>
      <point x="447" y="538"/>
      <point x="302" y="536" type="curve" smooth="yes"/>
      <point x="138" y="534"/>
      <point x="35" y="422"/>
      <point x="35" y="266" type="curve" smooth="yes"/>
      <point x="35" y="105"/>
      <point x="148" y="-4"/>
      <point x="312" y="-4" type="curve" smooth="yes"/>
      <point x="404" y="-4"/>
      <point x="482" y="31"/>
      <point x="542" y="104" type="curve"/>
      <point x="475" y="166" type="line"/>
      <point x="432" y="115"/>
      <point x="378" y="88"/>
      <point x="319" y="88" type="curve" smooth="yes"/>
      <point x="219" y="88"/>
      <point x="150" y="162"/>
      <point x="150" y="272" type="curve" smooth="yes"/>
      <point x="150" y="383"/>
      <point x="212" y="443"/>
      <point x="309" y="443" type="curve" smooth="yes"/>
      <point x="372" y="443"/>
      <point x="417" y="418"/>
      <point x="442" y="358" type="curve"/>
      <point x="128" y="264" type="line"/>
    </contour>
    <contour>
      <point x="543" y="10" type="move" name="ogonek"/>
    </contour>
    <contour>
      <point x="302" y="0" type="move" name="bottom"/>
    </contour>
    <contour>
      <point x="302" y="532" type="move" name="top"/>
    </contour>
  </outline>
</glyph>
<glyph name="eight.dnom" format="1">
  <advance width="407"/>
  <outline>
    <contour>
      <point x="114" y="416"/>
      <point x="56" y="376"/>
      <point x="56" y="311" type="curve" smooth="yes"/>
      <point x="56" y="272"/>
      <point x="81" y="239"/>
      <point x="121" y="221" type="curve"/>
      <point x="68" y="203"/>
      <point x="35" y="164"/>
      <point x="35" y="115" type="curve" smooth="yes"/>
      <point x="35" y="42"/>
      <point x="100" y="-3"/>
      <point x="204" y="-3" type="curve" smooth="yes"/>
      <point x="307" y="-3"/>
      <point x="372" y="42"/>
      <point x="372" y="116" type="curve" smooth="yes"/>
      <point x="372" y="165"/>
      <point x="341" y="203"/>
      <point x="290" y="221" type="curve"/>
      <point x="327" y="238"/>
      <point x="351" y="270"/>
      <point x="351" y="308" type="curve" smooth="yes"/>
      <point x="351" y="375"/>
      <point x="293" y="416"/>
      <point x="203" y="416" type="curve" smooth="yes"/>
    </contour>
    <contour>
      <point x="260" y="186"/>
      <point x="293" y="163"/>
      <point x="293" y="123" type="curve" smooth="yes"/>
      <point x="293" y="82"/>
      <point x="260" y="59"/>
      <point x="204" y="59" type="curve" smooth="yes"/>
      <point x="146" y="59"/>
      <point x="114" y="82"/>
      <point x="114" y="124" type="curve" smooth="yes"/>
      <point x="114" y="163"/>
      <point x="147" y="186"/>
      <point x="203" y="186" type="curve" smooth="yes"/>
    </contour>
    <contour>
      <point x="252" y="360"/>
      <point x="280" y="339"/>
      <point x="280" y="304" type="curve" smooth="yes"/>
      <point x="280" y="268"/>
      <point x="252" y="248"/>
      <point x="204" y="248" type="curve" smooth="yes"/>
      <point x="155" y="248"/>
      <point x="127" y="268"/>
      <point x="127" y="304" type="curve" smooth="yes"/>
      <point x="127" y="339"/>
      <point x="155" y="360"/>
      <point x="204" y="360" type="curve" smooth="yes"/>
    </contour>
  </outline>
</glyph>
<glyph name="eight.numr" format="1">
  <advance width="407"/>
  <outline>
    <contour>
      <point x="114" y="703"/>
      <point x="56" y="663"/>
      <point x="56" y="598" type="curve" smooth="yes"/>
      <point x="56" y="558"/>
      <point x="81" y="526"/>
      <point x="121" y="508" type="curve"/>
      <point x="68" y="490"/>
      <point x="35" y="451"/>
      <point x="35" y="402" type="curve" smooth="yes"/>
      <point x="35" y="329"/>
      <point x="100" y="283"/>
      <point x="204" y="283" type="curve" smooth="yes"/>
      <point x="307" y="283"/>
      <point x="372" y="329"/>
      <point x="372" y="403" type="curve" smooth="yes"/>
      <point x="372" y="451"/>
      <point x="341" y="490"/>
      <point x="290" y="508" type="curve"/>
      <point x="327" y="525"/>
      <point x="351" y="556"/>
      <point x="351" y="595" type="curve" smooth="yes"/>
      <point x="351" y="662"/>
      <point x="293" y="703"/>
      <point x="203" y="703" type="curve" smooth="yes"/>
    </contour>
    <contour>
      <point x="260" y="473"/>
      <point x="293" y="450"/>
      <point x="293" y="410" type="curve" smooth="yes"/>
      <point x="293" y="368"/>
      <point x="260" y="346"/>
      <point x="204" y="346" type="curve" smooth="yes"/>
      <point x="146" y="346"/>
      <point x="114" y="369"/>
      <point x="114" y="410" type="curve" smooth="yes"/>
      <point x="114" y="450"/>
      <point x="147" y="473"/>
      <point x="203" y="473" type="curve" smooth="yes"/>
    </contour>
    <contour>
      <point x="252" y="646"/>
      <point x="280" y="626"/>
      <point x="280" y="590" type="curve" smooth="yes"/>
      <point x="280" y="555"/>
      <point x="252" y="535"/>
      <point x="204" y="535" type="curve" smooth="yes"/>
      <point x="155" y="535"/>
      <point x="127" y="555"/>
      <point x="127" y="590" type="curve" smooth="yes"/>
      <point x="127" y="626"/>
      <point x="155" y="646"/>
      <point x="204" y="646" type="curve" smooth="yes"/>
    </contour>
  </outline>
</glyph>
<glyph name="eight.ss01" format="1">
  <advance width="626"/>
  <outline>
    <contour>
      <point x="170" y="705"/>
      <point x="79" y="638"/>
      <point x="79" y="528" type="curve" smooth="yes"/>
      <point x="79" y="460"/>
      <point x="120" y="405"/>
      <point x="188" y="374" type="curve"/>
      <point x="99" y="346"/>
      <point x="44" y="280"/>
      <point x="44" y="194" type="curve" smooth="yes"/>
      <point x="44" y="71"/>
      <point x="148" y="-5"/>
      <point x="314" y="-5" type="curve" smooth="yes"/>
      <point x="479" y="-5"/>
      <point x="583" y="71"/>
      <point x="583" y="196" type="curve" smooth="yes"/>
      <point x="583" y="281"/>
      <point x="530" y="346"/>
      <point x="444" y="374" type="curve"/>
      <point x="509" y="403"/>
      <point x="548" y="456"/>
      <point x="548" y="524" type="curve" smooth="yes"/>
      <point x="548" y="636"/>
      <point x="457" y="705"/>
      <point x="313" y="705" type="curve" smooth="yes"/>
    </contour>
    <contour>
      <point x="413" y="323"/>
      <point x="471" y="280"/>
      <point x="471" y="207" type="curve" smooth="yes"/>
      <point x="471" y="131"/>
      <point x="413" y="88"/>
      <point x="314" y="88" type="curve" smooth="yes"/>
      <point x="214" y="88"/>
      <point x="156" y="131"/>
      <point x="156" y="207" type="curve" smooth="yes"/>
      <point x="156" y="280"/>
      <point x="214" y="323"/>
      <point x="313" y="323" type="curve" smooth="yes"/>
    </contour>
    <contour>
      <point x="398" y="620"/>
      <point x="448" y="582"/>
      <point x="448" y="517" type="curve" smooth="yes"/>
      <point x="448" y="452"/>
      <point x="398" y="415"/>
      <point x="314" y="415" type="curve" smooth="yes"/>
      <point x="229" y="415"/>
      <point x="179" y="452"/>
      <point x="179" y="517" type="curve" smooth="yes"/>
      <point x="179" y="582"/>
      <point x="229" y="620"/>
      <point x="314" y="620" type="curve" smooth="yes"/>
    </contour>
  </outline>
</glyph>
<glyph name="eogonek.ss01" format="1">
  <advance width="598"/>
  <outline>
    <contour>
      <point x="219" y="88"/>
      <point x="150" y="162"/>
      <point x="150" y="272" type="curve" smooth="yes"/>
      <point x="150" y="383"/>
      <point x="212" y="443"/>
      <point x="309" y="443" type="curve" smooth="yes"/>
      <point x="372" y="443"/>
      <point x="417" y="418"/>
      <point x="442" y="358" type="curve"/>
      <point x="128" y="264" type="line"/>
      <point x="133" y="178" type="line"/>
      <point x="553" y="304" type="line"/>
      <point x="544" y="449"/>
      <point x="447" y="538"/>
      <point x="302" y="536" type="curve" smooth="yes"/>
      <point x="138" y="534"/>
      <point x="35" y="422"/>
      <point x="35" y="266" type="curve" smooth="yes"/>
      <point x="35" y="105"/>
      <point x="148" y="-4"/>
      <point x="312" y="-4" type="curve"/>
      <point x="354" y="-4"/>
      <point x="394" y="8"/>
      <point x="429" y="28" type="curve"/>
      <point x="386" y="-30"/>
      <point x="366" y="-79"/>
      <point x="366" y="-123" type="curve" smooth="yes"/>
      <point x="366" y="-178"/>
      <point x="406" y="-201"/>
      <point x="445" y="-201" type="curve" smooth="yes"/>
      <point x="482" y="-201"/>
      <point x="516" y="-180"/>
      <point x="539" y="-144" type="curve"/>
      <point x="506" y="-105" type="line"/>
      <point x="492" y="-124"/>
      <point x="475" y="-137"/>
      <point x="458" y="-137" type="curve" smooth="yes"/>
      <point x="441" y="-137"/>
      <point x="428" y="-125"/>
      <point x="428" y="-105" type="curve" smooth="yes"/>
      <point x="428" y="-56"/>
      <point x="473" y="16"/>
      <point x="532" y="86" type="curve"/>
      <point x="471" y="151" type="line"/>
      <point x="432" y="111"/>
      <point x="377" y="88"/>
      <point x="319" y="88" type="curve"/>
    </contour>
  </outline>
</glyph>
<glyph name="f.ss01" format="1">
  <advance width="322"/>
  <outline>
    <contour>
      <point x="165" y="747"/>
      <point x="74" y="688"/>
      <point x="74" y="564" type="curve"/>
      <point x="74" y="0" type="line"/>
      <point x="188" y="0" type="line"/>
      <point x="188" y="575" type="line"/>
      <point x="188" y="625"/>
      <point x="221" y="647"/>
      <point x="260" y="647" type="curve"/>
      <point x="284" y="647"/>
      <point x="311" y="638"/>
      <point x="333" y="622" type="curve"/>
      <point x="377" y="710" type="line"/>
      <point x="343" y="735"/>
      <point x="300" y="747"/>
      <point x="257" y="747" type="curve"/>
    </contour>
    <contour>
      <point x="84" y="512" type="line"/>
      <point x="84" y="426" type="line"/>
      <point x="327" y="426" type="line"/>
      <point x="327" y="512" type="line"/>
    </contour>
  </outline>
</glyph>
<glyph name="fi.ss01" format="1">
  <advance width="605"/>
  <outline>
    <contour>
      <point x="168" y="747"/>
      <point x="74" y="691"/>
      <point x="74" y="564" type="curve"/>
      <point x="74" y="0" type="line"/>
      <point x="188" y="0" type="line"/>
      <point x="188" y="575" type="line"/>
      <point x="188" y="627"/>
      <point x="219" y="646"/>
      <point x="260" y="646" type="curve"/>
      <point x="288" y="646"/>
      <point x="321" y="637"/>
      <point x="352" y="623" type="curve"/>
      <point x="356" y="723" type="line"/>
      <point x="328" y="739"/>
      <point x="293" y="747"/>
      <point x="257" y="747" type="curve"/>
    </contour>
    <contour>
      <point x="104" y="512" type="line"/>
      <point x="104" y="426" type="line"/>
      <point x="327" y="426" type="line"/>
      <point x="327" y="512" type="line"/>
    </contour>
    <component base="i" xOffset="321"/>
  </outline>
</glyph>
<glyph name="five.dnom" format="1">
  <advance width="377"/>
  <outline>
    <contour>
      <point x="325" y="413" type="line"/>
      <point x="56" y="413" type="line"/>
      <point x="56" y="185" type="line"/>
      <point x="85" y="191"/>
      <point x="147" y="194"/>
      <point x="171" y="194" type="curve"/>
      <point x="222" y="194"/>
      <point x="253" y="171"/>
      <point x="253" y="132" type="curve"/>
      <point x="253" y="87"/>
      <point x="222" y="61"/>
      <point x="171" y="61" type="curve"/>
      <point x="132" y="61"/>
      <point x="90" y="79"/>
      <point x="57" y="111" type="curve"/>
      <point x="23" y="45" type="line"/>
      <point x="66" y="17"/>
      <point x="128" y="-3"/>
      <point x="180" y="-3" type="curve"/>
      <point x="279" y="-3"/>
      <point x="342" y="52"/>
      <point x="342" y="137" type="curve"/>
      <point x="342" y="210"/>
      <point x="282" y="257"/>
      <point x="187" y="257" type="curve"/>
      <point x="173" y="257"/>
      <point x="149" y="254"/>
      <point x="134" y="250" type="curve"/>
      <point x="134" y="347" type="line"/>
      <point x="325" y="347" type="line"/>
    </contour>
  </outline>
</glyph>
<glyph name="five.numr" format="1">
  <advance width="377"/>
  <outline>
    <contour>
      <point x="325" y="700" type="line"/>
      <point x="56" y="700" type="line"/>
      <point x="56" y="472" type="line"/>
      <point x="85" y="477"/>
      <point x="147" y="480"/>
      <point x="171" y="480" type="curve"/>
      <point x="222" y="480"/>
      <point x="253" y="457"/>
      <point x="253" y="419" type="curve"/>
      <point x="253" y="374"/>
      <point x="222" y="348"/>
      <point x="171" y="348" type="curve"/>
      <point x="132" y="348"/>
      <point x="90" y="365"/>
      <point x="57" y="398" type="curve"/>
      <point x="23" y="332" type="line"/>
      <point x="66" y="303"/>
      <point x="128" y="284"/>
      <point x="180" y="284" type="curve"/>
      <point x="279" y="284"/>
      <point x="342" y="339"/>
      <point x="342" y="424" type="curve"/>
      <point x="342" y="497"/>
      <point x="282" y="543"/>
      <point x="187" y="543" type="curve"/>
      <point x="173" y="543"/>
      <point x="149" y="541"/>
      <point x="134" y="537" type="curve"/>
      <point x="134" y="633" type="line"/>
      <point x="325" y="633" type="line"/>
    </contour>
  </outline>
</glyph>
<glyph name="five.ss01" format="1">
  <advance width="577"/>
  <outline>
    <contour>
      <point x="79" y="600" type="line"/>
      <point x="79" y="230" type="line"/>
      <point x="126" y="235"/>
      <point x="221" y="239"/>
      <point x="263" y="239" type="curve" smooth="yes"/>
      <point x="353" y="239"/>
      <point x="408" y="196"/>
      <point x="408" y="124" type="curve" smooth="yes"/>
      <point x="408" y="46"/>
      <point x="353" y="-2"/>
      <point x="262" y="-2" type="curve" smooth="yes"/>
      <point x="199" y="-2"/>
      <point x="129" y="25"/>
      <point x="73" y="72" type="curve"/>
      <point x="26" y="-24" type="line"/>
      <point x="95" y="-72"/>
      <point x="192" y="-104"/>
      <point x="275" y="-104" type="curve" smooth="yes"/>
      <point x="432" y="-104"/>
      <point x="534" y="-11"/>
      <point x="534" y="132" type="curve" smooth="yes"/>
      <point x="534" y="254"/>
      <point x="436" y="344"/>
      <point x="284" y="344" type="curve" smooth="yes"/>
      <point x="259" y="344"/>
      <point x="216" y="343"/>
      <point x="188" y="342" type="curve"/>
      <point x="188" y="494" type="line"/>
      <point x="506" y="494" type="line"/>
      <point x="505" y="600" type="line"/>
    </contour>
  </outline>
</glyph>
